/* XPM */
static char * ball_xpm[] = {
"8 8 5 1",
" 	c None",
".	c #040404",
"+	c #CECECE",
"@	c #4E4E4E",
"#	c #FEFEFE",
"#+@..@+#",
"+......+",
"@......@",
"........",
"........",
"@......@",
"+......+",
"#+@..@+#"};
