/* XPM */
static char * brick3_xpm[] = {
"16 10 5 1",
" 	c None",
".	c #BFBFBF",
"+	c #000000",
"@	c #3F3F3F",
"#	c #7F7F7F",
"...............+",
"..............@+",
"..############@+",
"..############@+",
"..############@+",
"..############@+",
"..############@+",
"..############@+",
".@@@@@@@@@@@@@@+",
"++++++++++++++++"};
