/* XPM */
static char * brick1_xpm[] = {
"16 10 4 1",
" 	c None",
".	c #BFBFBF",
"+	c #3F3F3F",
"@	c #7F7F7F",
"...............+",
".@@@@@@@@@@@@@@+",
".@+++++++++++.@+",
".@+@@@@@@@@@@.@+",
".@+@@@@@@@@@@.@+",
".@+@@@@@@@@@@.@+",
".@+@@@@@@@@@@.@+",
".@............@+",
".@@@@@@@@@@@@@@+",
"++++++++++++++++"};
