/* XPM */
static char * brick4_xpm[] = {
"16 10 5 1",
" 	c None",
".	c #7F7F7F",
"+	c #000000",
"@	c #3F3F3F",
"#	c #BFBFBF",
"...............+",
".@@@@@@@@@@@@@@+",
".@##@@@@@@@@##@+",
".@##@@@@@@@@##@+",
".@@@@@@@@@@@@@@+",
".@@@@@@@@@@@@@@+",
".@##@@@@@@@@##@+",
".@##@@@@@@@@##@+",
".@@@@@@@@@@@@@@+",
"++++++++++++++++"};
