/* XPM */
static char * brick5_xpm[] = {
"16 10 17 1",
" 	c None",
".	c #050505",
"+	c #6B6B6B",
"@	c #C5C5C5",
"#	c #222222",
"$	c #A5A5A5",
"%	c #343434",
"&	c #787878",
"*	c #424242",
"=	c #CECECE",
"-	c #969696",
";	c #4B4B4B",
">	c #B8B8B8",
",	c #5A5A5A",
"'	c #868686",
")	c #E0E0E0",
"!	c #131313",
")))))=@>$$-''&+,",
")))==@>$$-'&&+,;",
"))==>>$$-'&++,;*",
")=@>$$--'&+,,;*%",
"=@>$$-''&+,;;*%#",
"@>$$-'&&+,;*%%#!",
">$$-'&++,;*%%#!.",
"$--'&+,,;*%##!..",
"-''&+,;;*%#!!...",
"'&&+,;*%%#!!...."};
