/* XPM */
static char * brick2_xpm[] = {
"16 10 17 1",
" 	c None",
".	c #3E3E3E",
"+	c #7E7E7E",
"@	c #BEBEBE",
"#	c #F2F2F2",
"$	c #A6A6A6",
"%	c #E9E9E9",
"&	c #A1A1A1",
"*	c #DEDEDE",
"=	c #989898",
"-	c #D6D6D6",
";	c #8E8E8E",
">	c #AAAAAA",
",	c #FAFAFA",
"'	c #868686",
")	c #C6C6C6",
"!	c #B6B6B6",
"@@@@@@@@@@@@@@@.",
"@++++++++++++++.",
"@+...........@+.",
"@+.++++'=!)%#@+.",
"@+.+;&!)*###%@+.",
"@+.&-%#,##@>=@+.",
"@+.-,#*@$&'++@+.",
"@+@@@@@@@@@@@@+.",
"@++++++++++++++.",
"................"};
