/* XPM */
static char * conton_xpm[] = {
"32 13 17 1",
" 	c None",
".	c #020202",
"+	c #6B6B6B",
"@	c #A1A1A1",
"#	c #BABABA",
"$	c #CECECE",
"%	c #DADADA",
"&	c #9A9A9A",
"*	c #FEFEFE",
"=	c #DEDEDE",
"-	c #E2E2E2",
";	c #B1B1B1",
">	c #8C8C8C",
",	c #EBEBEB",
"'	c #F3F3F3",
")	c #AAAAAA",
"!	c #C3C3C3",
".******************************.",
"*',,',,',,,',,',,,',,',',,',,',)",
"*,,,,,....,,,,,,,,,,,,,,,.,,,,,)",
"*,,,,.,,,,.,,,,,,,,,,,,,,.,,,,,)",
"*=--=.-=---=-...--.-..-=...--=-&",
"'%$$%.$%$$$%.$%$.$..$%.%$.%$$%$&",
",$$$!.$!$$$!.$!$.$.$$!.!$.!$$!$>",
",!!!!.!!!!!!.!!!.!.!!!.!!.!!!!!>",
",;##;.#;##.;.#;#.#.##;.;#.;##;#>",
"-;));)....);)...)).));.;)..));)+",
"-@@@@@@@@@@@@@@@@@@@@@@@@@@@@@@+",
"%&&&&&&&&&&&&&&&&&&&&&&&&&&&&&&+",
".++++++++++++++++++++++++++++++."};
