/* XPM */
static char * done_xpm[] = {
"32 13 17 1",
" 	c None",
".	c #020202",
"+	c #6B6B6B",
"@	c #A1A1A1",
"#	c #BABABA",
"$	c #CACACA",
"%	c #D2D2D2",
"&	c #9A9A9A",
"*	c #E2E2E2",
"=	c #FEFEFE",
"-	c #B1B1B1",
";	c #8C8C8C",
">	c #EBEBEB",
",	c #F3F3F3",
"'	c #AAAAAA",
")	c #DCDCDC",
"!	c #C3C3C3",
".==============================.",
"=,>>,>>,>>>,>>,>>>,>>,>,>>,>>,>'",
"=>>>....>>>>>>>>>>>>>>>>>>>>>>>'",
"=>>>.>>>.>>>>>>>>>>>>>>>>>>>>>>'",
"=)**.**)*.*)...**.)..)*)..)**)*&",
",)%%.%%)%.%.%%).%..%%.%.%%.%%)%&",
">$$$.$$!$.$.$$!.$.!$$.$....$$!$;",
">!!!.!!!!.!.!!!.!.!!!.!.!!!!!!!;",
">-##.##-.##.##-.#.-##.#.##.##-#;",
"*-''....'''-...''.-''.'-..-''-'+",
"*@@@@@@@@@@@@@@@@@@@@@@@@@@@@@@+",
")&&&&&&&&&&&&&&&&&&&&&&&&&&&&&&+",
".++++++++++++++++++++++++++++++."};
