/* XPM */
static char * launchon_xpm[] = {
"32 13 18 1",
" 	c None",
".	c #020202",
"+	c #FEFEFE",
"@	c #EBEBEB",
"#	c #F3F3F3",
"$	c #ABABAB",
"%	c #000000",
"&	c #A1A1A1",
"*	c #E2E2E2",
"=	c #9A9A9A",
"-	c #D7D7D7",
";	c #C9C9C9",
">	c #8C8C8C",
",	c #C0C0C0",
"'	c #B6B6B6",
")	c #B2B2B2",
"!	c #7E7E7E",
"~	c #6B6B6B",
".++++++++++++++++++++++++++++++.",
"+@#@@#@@#@#@@#@@@#@@#@@#@@#@@#@$",
"+@%@@@@@@@@@@@@@@@@@@@@@@@@%@@@&",
"+@%@@@@@@@@@@@@@@@@@@@@@@@@%@@@&",
"+*%***%%%**%**%*%*%%***%%**%*%*=",
"#-%------%-%--%-%%--%-%--%-%%-%=",
"@;%;;;;%%%;%;;%;%;;;%;%;;;;%;;%>",
"@,%,,,%,,%,%,,%,%,,,%,%,,,,%,,%>",
"@'%'')%)'%'%)'%'%'')%'%''%'%')%!",
"*$%%%%$%%$%$%%%$%$$$%$$%%$$%$$%!",
"*&&&&&&&&&&&&&&&&&&&&&&&&&&&&&&~",
"-==============================~",
".~~~~~~~~~~~~~~~~~~~~~~~~~~~~~~."};
