/* XPM */
static char * launchoff_xpm[] = {
"32 13 19 1",
" 	c None",
".	c #010101",
"+	c #A4A4A4",
"@	c #9D9D9D",
"#	c #989898",
"$	c #6E6E6E",
"%	c #4C4C4C",
"&	c #FFFFFF",
"*	c #929292",
"=	c #909090",
"-	c #646464",
";	c #858585",
">	c #8D8D8D",
",	c #7E7E7E",
"'	c #5B5B5B",
")	c #787878",
"!	c #737373",
"~	c #454545",
"{	c #686868",
".++++++++++++++++++++++++++++++.",
"+@###@##@###@#@##@##@##@##@##@#$",
"+%########################%####$",
"+%&#######################%&###$",
"+%&**%%%=*%*=%=%*%%*=*%%**%&%=*-",
"@%&;;>&&%;%&>%&%%>&%>%;&%;%%;%;-",
"#%&;;,%%%&%&,%&%&&;%&%&,;&%&&%&'",
"#%&,,%,&%&%&,%&%&,,%&%&,,,%&,%&'",
"#%&))%&)%&%&!%&%&!)%&%&!%)%&)%&'",
"*%%%%!%%!%$%%%&%&!$%&$%%$&%&$%&~",
"*{&&&&{&&{&{&&&{&{{{&{{&&{{&{{&~",
">------------------------------~",
".~~~~~~~~~~~~~~~~~~~~~~~~~~~~~~."};
