/* XPM */
static char * leftpipe_xpm[] = {
"14 10 8 1",
" 	c None",
".	c #000000",
"+	c #B9B9B9",
"@	c #A2A2A2",
"#	c #8B8B8B",
"$	c #737373",
"%	c #5C5C5C",
"&	c #454545",
"...+@#$%&.....",
"...+@#$%&.....",
"...+@#$%&.....",
"...+@#$%&.....",
"...+@#$%&.....",
"...+@#$%&.....",
"...+@#$%&.....",
"...+@#$%&.....",
"...+@#$%&.....",
"...+@#$%&....."};
