/* XPM */
static char * negoff_xpm[] = {
"16 13 19 1",
" 	c None",
".	c #000000",
"+	c #C5C9C5",
"@	c #BFBFBF",
"#	c #868686",
"$	c #B9B9B9",
"%	c #ACAFAC",
"&	c #797979",
"*	c #A6A6A6",
"=	c #9F9F9F",
"-	c #484C48",
";	c #737373",
">	c #929692",
",	c #FFFFFF",
"'	c #6C6C6C",
")	c #8C8C8C",
"!	c #606360",
"~	c #7F7F7F",
"{	c #535353",
".++++++++++++++.",
"+@@@@@@@@@@@@@@#",
"+$$$$$$$$$$$$$$#",
"+$$$$$$$$$$$$$$#",
"+%%%%%%%%%%%%%%&",
"@%**%*****%**%*&",
"@====-------===;",
"$>>>>>,,,,,,,>>'",
"$))>)>>>)>)>>>>!",
"%)#############!",
"%~~~~~~~~~~~~~~{",
"%&&&&&&&&&&&&&&{",
".{{{{{{{{{{{{{{."};
