/* XPM */
static char * numbers_xpm[] = {
"80 14 9 1",
" 	c None",
".	c #020202",
"+	c #E2E2E2",
"@	c #AFAFAF",
"#	c #5B5B5B",
"$	c #3A3A3A",
"%	c #8E8E8E",
"&	c #1E1E1E",
"*	c #FEFEFE",
"................................................................................",
"................................................................................",
"...##.....##$....&#$.....######...$$......&####....&#&..&######&...##......##...",
".#***+#...**@...%***@&...*****@...+#......%****....%+...#******&.#+**+#..#+**+#.",
"&*@..@*&...@@...*%.&+@...*#..+#..$*$.*#...@%......&*#...#*...@@.&+@..@*&&+@&&@+&",
"%+....@%...@@...@$..#*......$*$..%+..*#..&*%#.....%*#.......$*$.#*#..#*##*....*#",
"@@....@@...@@......@*#......%*#..+%..*#..#***+#...***+$.....%+...@*##*@.@@...&*#",
"@@....@@...@@.....@*#.......&@*&$*@@@*@$.&@&&@*&.#*&&@*&..@***@...#**@..#*...%+.",
"@@....@@...@@....@*#.........&*##@@@@*@$......*#.+%...*#..$@*#$...%**@&.&+@&&*#.",
"@@....@@...@@...@*#.....#%....*#.....*#.$@....+%#*&...@%...@@....@*#&++&.$+**+..",
"#+&..&+#...@@...*#...#&.#*&..&*#.....*#.#*&..&*##*&..&*#..$*$...#*#..&+#...#*#..",
".++##++&...@@...*%###*#..++##+@......*#..++##+@..++##++...%+.....+@##@+&...%+...",
".&@**@&....@@...******#..&@**%&......*#..&@**%&..&%**%&...*#.....&%**@&...&*#...",
"................................................................................"};
