/* XPM */
static char * paddle_xpm[] = {
"32 10 5 1",
" 	c None",
".	c #FFFFFF",
"+	c #3F3F3F",
"@	c #BFBFBF",
"#	c #000000",
"....++++++++++++++++++++++++....",
"..++@@@@@@@@@@@@@@@@@@@@@@@@++..",
".+@@+++++++++++++++++++++++++++.",
"+@++++++++++++++++++++++++++++#+",
"+@++++++++++++++++++++++++++++#+",
"+@++++++++++++++++++++++++++++#+",
"+@++++++++++++++++++++++++++++#+",
".+++++++++++++++++++++++++++##+.",
"..++########################++..",
"....++++++++++++++++++++++++...."};
