/* XPM */
static char * pause_xpm[] = {
"32 13 17 1",
" 	c None",
".	c #020202",
"+	c #6B6B6B",
"@	c #A1A1A1",
"#	c #B2B2B2",
"$	c #C9C9C9",
"%	c #D7D7D7",
"&	c #9A9A9A",
"*	c #E2E2E2",
"=	c #FEFEFE",
"-	c #8C8C8C",
";	c #EBEBEB",
">	c #B6B6B6",
",	c #ABABAB",
"'	c #F3F3F3",
")	c #7E7E7E",
"!	c #C0C0C0",
".==============================.",
"=';;';;';;;';;';;;';;';';;';;';,",
"=;;....;;;;;;;;;;;;;;;;;;;;;;;;@",
"=;;.;;;.;;;;;;;;;;;;;;;;;;;;;;;@",
"=**.***.*...**.**.**..***..****&",
"'%%....%%%%%.%.%%.%.%%.%.%%.%%%&",
";$$.$$$$$$...$.$$.$$..$$....$$$-",
";!!.!!!!!.!!.!.!!.!!!!.!.!!!!!!-",
";#>.#>>#>.>#.>.>>.#.>#.#.>#.>#>)",
"*#,.,,,,,,..,.,...,,..,,,..,,,,)",
"*@@@@@@@@@@@@@@@@@@@@@@@@@@@@@@+",
"%&&&&&&&&&&&&&&&&&&&&&&&&&&&&&&+",
".++++++++++++++++++++++++++++++."};
