/* XPM */
static char * poson_xpm[] = {
"16 13 111 2",
"  	c None",
". 	c #000000",
"+ 	c #202020",
"@ 	c #282828",
"# 	c #282C28",
"$ 	c #302C30",
"% 	c #383838",
"& 	c #404440",
"* 	c #484848",
"= 	c #484C48",
"- 	c #504C50",
"; 	c #505050",
"> 	c #505450",
", 	c #585458",
"' 	c #585858",
") 	c #585C58",
"! 	c #606060",
"~ 	c #606460",
"{ 	c #686468",
"] 	c #686868",
"^ 	c #686C68",
"/ 	c #706C70",
"( 	c #707070",
"_ 	c #707470",
": 	c #787478",
"< 	c #787878",
"[ 	c #787C78",
"} 	c #807C80",
"| 	c #808078",
"1 	c #808080",
"2 	c #808480",
"3 	c #888488",
"4 	c #888880",
"5 	c #888888",
"6 	c #888C88",
"7 	c #908C90",
"8 	c #909088",
"9 	c #909090",
"0 	c #909490",
"a 	c #989498",
"b 	c #989898",
"c 	c #989C98",
"d 	c #A09C98",
"e 	c #A09CA0",
"f 	c #A0A0A0",
"g 	c #A0A498",
"h 	c #A0A4A0",
"i 	c #A8A4A0",
"j 	c #A8A4A8",
"k 	c #A8A8A0",
"l 	c #A8A8A8",
"m 	c #A8ACA0",
"n 	c #A8ACA8",
"o 	c #B0ACA0",
"p 	c #B0ACA8",
"q 	c #B0ACB0",
"r 	c #B0B0A8",
"s 	c #B0B0B0",
"t 	c #B0B4A8",
"u 	c #B0B4B0",
"v 	c #B8B0B0",
"w 	c #B8B4A8",
"x 	c #B8B4B0",
"y 	c #B8B4B8",
"z 	c #B8B8B0",
"A 	c #B8B8B8",
"B 	c #B8BCB0",
"C 	c #B8BCB8",
"D 	c #C0B8B8",
"E 	c #C0BCB0",
"F 	c #C0BCB8",
"G 	c #C0BCC0",
"H 	c #C0C0B8",
"I 	c #C0C0C0",
"J 	c #C0C4B8",
"K 	c #C0C4C0",
"L 	c #C0C4C8",
"M 	c #C8C4B8",
"N 	c #C8C4C0",
"O 	c #C8C4C8",
"P 	c #C8C8C0",
"Q 	c #C8C8C8",
"R 	c #C8CCC0",
"S 	c #C8CCC8",
"T 	c #D0CCC0",
"U 	c #D0CCC8",
"V 	c #D0CCD0",
"W 	c #D0D0C0",
"X 	c #D0D0C8",
"Y 	c #D0D0D0",
"Z 	c #D0D4C8",
"` 	c #D0D4D0",
" .	c #D0D4D8",
"..	c #D0D8D0",
"+.	c #D8D4C8",
"@.	c #D8D4D0",
"#.	c #D8D4D8",
"$.	c #D8D8D0",
"%.	c #D8D8D8",
"&.	c #D8DCD0",
"*.	c #D8DCD8",
"=.	c #E0DCD0",
"-.	c #E0DCD8",
";.	c #E0E0E0",
">.	c #E0E4E0",
",.	c #E8E8E8",
"'.	c #E8ECE8",
").	c #F0F0F0",
"!.	c #F8F4F8",
"~.	c #F8F8F8",
"{.	c #F8FCF8",
". {.{.{.{.{.{.{.{.{.{.{.{.{.{.. ",
"{.).).).).).).).).).).).).).).l ",
"{.,.,.,.,.,.,.,.,.,.,.,.,.,.,.l ",
"{.,.,.,.,.,.,.,.. ,.,.,.,.,.,.l ",
"{.*.*.*.*.*.*.*.. *.*.*.*.*.*.b ",
").*.Y Y *.Y Y Y . Y Y Y Y *.Y b ",
").Q Q Q Q . . . . . . . Q Q Q 9 ",
",.C C C C C C C . C C C C C C 5 ",
",.s s C s C C C . C C C C s C [ ",
"*.s l l l l l l . l l l l l l [ ",
"*.f f f f f f f f f f f f f f ] ",
"*.b b b b b b b b b b b b b b ] ",
". ] ] ] ] ] ] ] ] ] ] ] ] ] ] . "};
