/* XPM */
static char * soundon_xpm[] = {
"18 13 17 1",
" 	c None",
".	c #020202",
"+	c #555555",
"@	c #828282",
"#	c #B0B0B0",
"$	c #C2C2C2",
"%	c #CDCDCD",
"&	c #DEDEDE",
"*	c #FEFEFE",
"=	c #6B6B6B",
"-	c #999999",
";	c #E2E2E2",
">	c #EBEBEB",
",	c #A1A1A1",
"'	c #7C7C7C",
")	c #DADADA",
"!	c #F2F2F2",
".****************.",
"*!>!>!>!>++!>!>!>#",
"*>>>>>>>+-..>>.>>,",
"*>>>>>>+-.@.>.>>>,",
"*&;&;&+-;.$*.&;&;-",
"!)%.++-;-.$*.)%)%-",
">%%.+-;-;..*.%%$%-",
">$$.++-;-..*...$$@",
">##...+-;.$*.###$'",
";#####.+-.$*.####'",
";,,,,,,.+.@.,.,,,=",
")-------.+..--.--=",
".========..======."};
