/* XPM */
static char * soundoff_xpm[] = {
"18 13 17 1",
" 	c None",
".	c #010101",
"+	c #545454",
"@	c #373737",
"#	c #7D7D7D",
"$	c #919191",
"%	c #686868",
"&	c #454545",
"*	c #8C8C8C",
"=	c #9C9C9C",
"-	c #626262",
";	c #505050",
">	c #717171",
",	c #848484",
"'	c #A3A3A3",
")	c #979797",
"!	c #8F8F8F",
".''''''''''''''''.",
"'=)=)=)=)@@=)=)=)>",
"')))))))@-..)))))%",
"'))))))@-.+.)))))%",
"'!$!$!@-$.#'.!$!$-",
"=*,.@@-$-.#'.*,*,-",
"),,.@-$-$..'.,,#,-",
")##.@@-$-..'.####+",
")>>...@-$.#'.>>>#;",
"$>>>>>.@-.#'.>>>>;",
"$%%%%%%.@.+.%-%%%&",
"*-------.@..-----&",
".&&&&&&&&..&&&&&&."};
