/* XPM */
static char * start_xpm[] = {
"32 13 17 1",
" 	c None",
".	c #020202",
"+	c #6B6B6B",
"@	c #9A9A9A",
"#	c #B2B2B2",
"$	c #C9C9C9",
"%	c #D2D2D2",
"&	c #E9E9E9",
"*	c #FEFEFE",
"=	c #929292",
"-	c #ABABAB",
";	c #F0F0F0",
">	c #BFBFBF",
",	c #8A8A8A",
"'	c #A1A1A1",
")	c #DCDCDC",
"!	c #7E7E7E",
".******************************.",
"*;;;;;;;;;;;;;;;;;;;;;;;;;;;;;;-",
"*&&&&&...&&&.&&&&&&&&&&&&.&&&&&-",
"*&&&&.&&&.&&.&&&&&&&&&&&&.&&&&&-",
"*)))).)))))...)...)).).)...))))@",
";)%%)%...%%).%)%%%.%..%)%.)%%)%@",
";$$$$$$$$.$$.$$$...$.$$$$.$$$$$=",
"&>>>>.>>>.>>.>>.>>.>.>>>>.>>>>>,",
"&##>#.>#>.>#.>#.#>.>.#>#>.#>>#>!",
")#----...---..--..-..----..----!",
")''''''''''''''''''''''''''''''+",
")@@@@@@@@@@@@@@@@@@@@@@@@@@@@@@+",
".++++++++++++++++++++++++++++++."};
