/* XPM */
static char * stats_leftpipe_xpm[] = {
"11 59 15 1",
" 	c None",
".	c #020202",
"+	c #E2E2E2",
"@	c #C3C3C3",
"#	c #ABABAB",
"$	c #858585",
"%	c #929292",
"&	c #757575",
"*	c #6C6C6C",
"=	c #5B5B5B",
"-	c #4B4B4B",
";	c #3B3B3B",
">	c #2E2E2E",
",	c #212121",
"'	c #1A1A1A",
"...+@@@###$",
"...##%$&*=-",
"....#;-;>,.",
"....#%$*=;.",
"....#%$*=;.",
"....#%$*-;.",
"....#%$*-;.",
"....#%$*-;.",
"....#%&*-;.",
"....#%&*-;.",
"....#%&=-;.",
"....%$&=-;.",
"....%$&=-;.",
"....%$&=-;.",
"....%$&=-;.",
"....%$&=-;.",
"....%$&=-;.",
"....%$&=-;.",
"....%$*=-;.",
"....%$*=-;.",
"....%$*=-;.",
"....%$*=-;.",
"....%&*=-;.",
"....$&*=->.",
"....$&*=->.",
"....$&*=;>.",
"....$&*-;>.",
"....$&=-;>.",
"....$&=-;>.",
"....$&=-;>.",
"....$*=-;>.",
"....$*=-;>.",
"....$*=-;>.",
"....&*=-;>.",
"....&*=-;>.",
"....&*=-;>.",
"....&*=-;>.",
"....&*=-;>.",
"....&*=-;>.",
"....&==-;>.",
"....*=--;>.",
"....*=-;;>.",
"....*=-;;>.",
"....*=-;;,.",
"....*=-;>,.",
"...&&***===",
"...==--;;>,",
"....-,,''..",
".*-.--;>,'.",
"-*----;>,'.",
";=;,-;>,''.",
";=;,;>>,'..",
",->'>>,''..",
",-,',,''...",
".-'.''.....",
".;'........",
"...........",
"...........",
"..........."};
