/* XPM */
static char * stats_xpm[] = {
"52 44 11 1",
" 	c None",
".	c #020202",
"+	c #929292",
"@	c #FDFDFD",
"#	c #3B3B3B",
"$	c #ABABAB",
"%	c #E2E2E2",
"&	c #757575",
"*	c #212121",
"=	c #5B5B5B",
"-	c #C3C3C3",
"....................................................",
"....+@@+.....#$@@%&.......#+$+#....$$&*....&$$$$$$#.",
"...$@@@@+...$@@@@@@$....*%@@@@@%*..@@@@$*..$@@@@@@=.",
"..#@@-%@@*.+@@@@@@@@+..*%@@-$%@@%*.@@%@@-..$@@@@@@=.",
"..=@@.*@%#*@@@&..&%@@*.%@%*...=@@+.@@==@@*.$@=......",
"..=@@-==..&@@&....=+*.#@%*.....&@@.@@+$@@*.$@+===#..",
"...%@@@%*.$@@.........=@$.......@@.@@@@@-..$@@@@@$..",
"...*-@@@%.$@@.........+@&.......@@.@@@@@*..$@@@@@$..",
"..#&+*$@@=&@@#....*%&*=@$......*@@.@@-@@+..$@+===#..",
"..$@@..@@=*@@%*...$@@#*@@=.....$@-.@@$+@@*.$@=......",
"..=@@&&@@#.+@@%&=-@@-..$@@&..*$@@#.@@$*%@$.$@-$$$$#.",
"...%@@@@%...$@@@@@@@#..*%@@@@@@@+..@@$.&@@#$@@@@@@=.",
"...=@@@%*....+@@@@%#.....+@@@@%=...@@$..%$*$@@@@@@=.",
"....*==........==#.........==#..........*...........",
"....................................................",
"..........#==.......................................",
"..........$@@$&.......&$.....==*....*==......*-@%=..",
"..........$@@@@%*.....%@=....@@=....=@@.....*%@@@@#.",
"..........$@@@@@-....&@@$....@@=....=@@.....+@@$@@-.",
"..........$@@.-@@....-@@@....@@=....=@@.....$@$.&@-.",
"..........$@@=%@@...#@@%@&...@@=....=@@.....$@@+=#..",
"..........$@@@@@-...+@%+@-...@@=....=@@.....#@@@@$..",
"..........$@@@@@@*.*@@%-@@*..@@=....=@@......=%@@@+.",
"..........$@@=$@@=.&@@@@@@&..@@=....=@@.....=+=#%@@.",
"..........$@@.=@@=.%@%$$%@%..@@=....=@@.....@@$.=@@.",
"..........$@@$@@@##@@#..&@@#.@@+===*=@@====.$@%=$@%.",
"..........$@@@@@$.$@-....@@+.@@@@@@==@@@@@@.#@@@@@+.",
"..........$@@$&#..&%&....+@&.@@@@@@==@@@@@@..$@@@$..",
"..........#==............*....................#=#...",
"....................................................",
"....................................................",
"...........*==.....&$$$$$$#.=&...+#.&$$$$$$#*==.....",
"...........=@@.....$@@@@@@=$@%..#@@#$@@@@@@==@@.....",
"...........=@@.....$@@@@@@==@@#.+@%.$@@@@@@==@@.....",
"...........=@@.....$@=......@@+.%@$.$@=.....=@@.....",
"...........=@@.....$@+===#..$@%*@@=.$@+===#.=@@.....",
"...........=@@.....$@@@@@$..=@@+@@..$@@@@@$.=@@.....",
"...........=@@.....$@@@@@$...@@@@-..$@@@@@$.=@@.....",
"...........=@@.....$@+===#...$@@@&..$@+===#.=@@.....",
"...........=@@.....$@=.......=@@@#..$@=.....=@@.....",
"...........=@@====.$@-$$$$#...@@%...$@-$$$$#=@@====.",
"...........=@@@@@@.$@@@@@@=...$@$...$@@@@@@==@@@@@@.",
"...........=@@@@@@.$@@@@@@=...=@=...$@@@@@@==@@@@@@.",
"...................................................."};
