/* XPM */
static char * stats_toppipe_xpm[] = {
"160 9 14 1",
" 	c None",
".	c #020202",
"+	c #E2E2E2",
"@	c #D2D2D2",
"#	c #ABABAB",
"$	c #C3C3C3",
"%	c #929292",
"&	c #4B4B4B",
"*	c #858585",
"=	c #3B3B3B",
"-	c #5B5B5B",
";	c #757575",
">	c #6C6C6C",
",	c #2E2E2E",
"...........+@.......................................................................................................................................#$..........",
"........$$++$+++++++++++++++++++++++++++++++++++++++++@@@@@@@@@@@@@@@@@@@@@@@@@@@$$$$$$$$$$$$$$$$$$$$$$$$$$$$$$$$$$$$$$$$$$$$$######################%##%%.......",
"......@$##$+#&@@@@$$$$$$$$$$$$$$$$$$$$$$$$$$$$$$$$$$$$$$$$$$$$$$$$$$$$##############################################################%%%%%%%%%%%%%%%%*#=**%%.....",
".....+$##%#@#-#####################################################%%%%%%%%%%%%%%%%%%%%%%%%%%%%%%%%%%%%%%%%%%%%%%%%%%%%%%%%%%%%**********************%&;;*%%....",
".....@$#%**$%&%%%%%%%%%%%%%%%%%%%%%%%%%%%%%%%%%%%%********************************************************;;;;;;;;;;;;;;;;;;;;;;;;;;;;;;;;;;;;;;;;;>>%=->;*%....",
"....+$#%*;*$*=****;;;;;;;;;;;;;;;;;;;;;;;;;;;;;;;;;;;;;;;;;;;;;;;;;;>>>>>>>>>>>>>>>>>>>>>>>>>>>>>>>>>>>>>>>>>>>>>>>>>>-------------------------------*,&->*%%...",
"....+$#%;->#;=--------------------------------------------------------------------------------&&&&&&&&&&&&&&&&&&&&&&&&&&&&&&&&&&&&&&&&&&&&&&&&&&&&&&-*,&->;*%...",
"....+$#%;-.#>.......................................................................................................................................&;.&->;*%...",
"....@$#*;-.............................................................................................................................................&--;*%..."};
