/* XPM */
static char * title_xpm[] = {
"160 100 24 1",
" 	c None",
".	c #020202",
"+	c #E6E6E6",
"@	c #CECECE",
"#	c #DFDFDF",
"$	c #AFAFAF",
"%	c #BEBEBE",
"&	c #565656",
"*	c #A2A2A2",
"=	c #9A9A9A",
"-	c #646464",
";	c #838383",
">	c #474747",
",	c #727272",
"'	c #3B3B3B",
")	c #222222",
"!	c #FEFEFE",
"~	c #000000",
"{	c #B9B9B9",
"]	c #8B8B8B",
"^	c #737373",
"/	c #5C5C5C",
"(	c #454545",
"_	c #FFFFFF",
"................................................................................................................................................................",
"................................................................................................................................................................",
"................................................................................................................................................................",
"................................................................................................................................................................",
"..........+@.......................................................................................................................................@+...........",
".......@@+#@+++++++++++++++++++++++++++++++++++++++++++++++++++++++++++++++++++++++++++++++++++++++++++++++++++++++++++++++++++++++++++++++++++++++@#+@@........",
".....@@$$%#$&@@@@@@@@@@@@@@@@@@@@@@@@@@@@@@@@@@@@@@@@@@@@@@@@@@@@@@@@@@@@@@@@@@@@@@@@@@@@@@@@@@@@@@@@@@@@@@@@@@@@@@@@@@@@@@@@@@@@@@@@@@@@@@@@@@@@@@$#&$$@@......",
"....#@$*=$@$-$$$$$$$$$$$$$$$$$$$$$$$$$$$$$$$$$$$$$$$$$$$$$$$$$$$$$$$$$$$$$$$$$$$$$$$$$$$$$$$$$$$$$$$$$$$$$$$$$$$$$$$$$$$$$$$$$$$$$$$$$$$$$$$$$$$$$$$@-=*$@#.....",
"....@%*=;;@=>=======================================================================================================================================@>;=*%@.....",
"...#@$=;,;%;>;;;;;;;;;;;;;;;;;;;;;;;;;;;;;;;;;;;;;;;;;;;;;;;;;;;;;;;;;;;;;;;;;;;;;;;;;;;;;;;;;;;;;;;;;;;;;;;;;;;;;;;;;;;;;;;;;;;;;;;;;;;;;;;;;;;;;;;%>,;=$@#....",
"...#@$=,--%,'--------------------------------------------------------------------------------------------------------------------------------------,%'-,=$@#....",
"...#@$=,-.$-.......................................................................................................................................-$.-,=$@#....",
"...#@$=,-.............................................................................................................................................-,=$@#....",
"..#@@%%$$=...........................................................................................................................................=$$%%@@#...",
"..%$=;,-->...........................................................................................................................................>--,;=$%...",
"...%>>'').............................................................................................................................................-&>''>....",
"...%*;,->..............................&!!!!!!!!!!!!!!#;)........................$!!!....................&!!!!!.......................................%*;,->....",
"...%*;,->..............................&!!!!!!!!!!!!!!!!!&.......................$!!!....................&!!!!!.......................................%*;,->....",
"...%*;,->..............................&!!!!!!!!!!!!!!!!!!&......................$!!!....................&!!!!!.......................................%*;,->....",
"...%*;,->..............................&!!!@$$$$$$$$$$!!!!!).....................,$$$....................'$#!!!.......................................%*;,->....",
"...%*;,->..............................&!!!&..........)$!!!$...............................................$!!!.......................................%*;,->....",
"...%*;,->..............................&!!!&............#!!!...............................................$!!!.......................................%*;,->....",
"...%*;,->..............................&!!!&............;!!!'..............................................$!!!.......................................%*;,->....",
"...%*;,->..............................&!!!&............&!!!&...'...';@!!!$,...'$$$$$........'$#!!!$&......$!!!......)$$$$)...........................%*;,->....",
"...%*;,->..............................&!!!&............$!!!)..$!&);!!!!!!!!#&.&!!!!!......)@!!!!!!!!#'....$!!!......#!!!;............................%*;,->....",
"...%*;,->..............................&!!!&...........)!!!#..$!!!#!!!!!!!!!!!)&!!!!!.....&!!!!!!!!!!!!&...$!!!.....;!!!#.............................%*;,->....",
"...%*;,->..............................&!!!&..........,#!!!,..&!!!!!!!#$$@!!!;.&!!!!!....'!!!!!#$$#!!!!&...$!!!....&!!!!).............................%*;,->....",
"...%*;,->............................!!!!!!!!!!!!!!!!!!!!!#....&!!!!!,....)@@....$!!!....#!!!#,....'#!&....$!!!...)#!!!,..............................%*;,->....",
"...%*;,->............................!!!!!!!!!!!!!!!!!!!!#).....,!!!,.......)....$!!!...,!!!#)......)&.....$!!!...@!!!@...............................%*;,->....",
"...%*;,->............................!!!!!!!!!!!!!!!!!!!!!&.....&!!!&............$!!!...#!!!'..............$!!!..,!!!#)...............................%*;,->....",
"...%*;,->............................$$@!!!@$$$$$$$$$$!!!!#)....&!!!&............$!!!..)!!!@...............$!!!.'!!!!&................................%*;,->....",
"...%*;,->..............................&!!!&..........)$!!!;....&!!!&............$!!!..&!!!,...............$!!!!!!!!$.................................%*;,->....",
"...%*;,->..............................&!!!&...........)#!!#....&!!!&............$!!!..&!!!&...............$!!!!!!!!..................................%*;,->....",
"...%*;,->..............................&!!!&............;!!!)...&!!!&............$!!!..&!!!&...............$!!!!!!!!&.................................%*;,->....",
"...%*;,->..............................&!!!&............&!!!&...&!!!&............$!!!..'!!!$...............$!!!$@!!!!)................................%*;,->....",
"...%*;,->..............................&!!!&............;!!!'...&!!!&............$!!!...!!!!)..............$!!!..$!!!@................................%*;,->....",
"...%*;,->..............................&!!!&...........)#!!!....&!!!&............$!!!...;!!!$........).....$!!!..)#!!!;...............................%*;,->....",
"...%*;,->..............................&!!!&..........)@!!!;....&!!!&............$!!!...)!!!!$).....$#)....$!!!...'!!!!&..............................%*;,->....",
"...%*;,->..............................&!!!@$$$$$$$$$$!!!!!)....&!!!&............$!!!....,!!!!#;&&;#!!#)...$!!!....;!!!#).............................%*;,->....",
"...%*;,->..............................&!!!!!!!!!!!!!!!!!!&.....&!!!&............$!!!.....$!!!!!!!!!!!!;...$!!!.....@!!!$.............................%*;,->....",
"...%*;,->..............................&!!!!!!!!!!!!!!!!!&......&!!!&............$!!!......,!!!!!!!!!!;....$!!!.....)#!!!,............................%*;,->....",
"...%*;,->..............................&!!!!!!!!!!!!!!#;).......&!!!&............$!!!.......);!!!!!!$'.....$!!!......&!!!!'...........................%*;,->....",
"...%*;,->......................................................................................'&&'...................................................%*;,->....",
"...%*;,->.............................................................................................................................................%*;,->....",
"...%*;,->....................................................................................................$!!!.....................................%*;,->....",
"...%*;,->....................................................................................................$!!!.....................................%*;,->....",
"...%*;,->....................................................................................................$!!!.....................................%*;,->....",
"...%*;,->....................................................................................................$!!!.....................................%*;,->....",
"...%*;,->....................................................................................................$!!!.....................................%*;,->....",
"...%*;,->....................................................................................................$!!!.....................................%*;,->....",
"...%*;,->....................................................................................................$!!!.....................................%*;,->....",
"...%*;,->.......................................';#!!!$,..................,$$$.........'$$$'.............'$$$#!!!$$$,.................................%*;,->....",
"...%*;,->.....................................)$!!!!!!!!#'................$!!!.........&!!!&.............&!!!!!!!!!!$.................................%*;,->....",
"...%*;,->....................................)#!!!!!!!!!!!&...............$!!!.........&!!!&.............&!!!!!!!!!!$.................................%*;,->....",
"...%*;,->...................................)#!!!!!$$@!!!!!&..............$!!!.........&!!!&.............&!!!!!!!!!!$.................................%*;,->....",
"...%*;,->...................................$!!!!,....)@!!!!).............$!!!.........&!!!&.................$!!!.....................................%*;,->....",
"...%*;,->..................................'!!!!&.......$!!!;.............$!!!.........&!!!&.................$!!!.....................................%*;,->....",
"...%*;,->..................................;!!!,........)#!!!.............$!!!.........&!!!&.................$!!!.....................................%*;,->....",
"...%*;,->..................................#!!#..........,!!!&............$!!!.........&!!!&.................$!!!.....................................%*;,->....",
"...%*;,->..................................!!!$..........'!!!,............$!!!.........&!!!&.................$!!!.....................................%*;,->....",
"...%*;,->..................................!!!$...........!!!$............$!!!.........&!!!&.................$!!!.....................................%*;,->....",
"...%*;,->..................................!!!$..........)!!!$............$!!!'........&!!!&.................$!!!.....................................%*;,->....",
"...%*;,->..................................!!!@..........&!!!&............&!!!,........&!!!&.................$!!!.....................................%*;,->....",
"...%*;,->..................................$!!!'.........@!!!'............'!!!@........&!!!&.................$!!!.....................................%*;,->....",
"...%*;,->..................................,!!!#........,!!!@..............@!!!,.......&!!!&.................$!!!.....................................%*;,->....",
"...%*;,->...................................#!!!@).....,!!!!'..............&!!!!&.....)#!!!#)................$!!!.....................................%*;,->....",
"...%*;,->...................................'!!!!!$&&,@!!!!$................$!!!!@,&&$!!!!!!#)...............$!!!.....................................%*;,->....",
"...%*;,->....................................&!!!!!!!!!!!!$..................#!!!!!!!!!!!!!!!@...............$!!!.....................................%*;,->....",
"...%*;,->.....................................&#!!!!!!!!!$...................)$!!!!!!!!!#'$!#)...............$!!!.....................................%*;,->....",
"...%*;,->......................................);#!!!!!@'......................'@!!!!!#,..)@)................$!!!....................................@@@%$$*=...",
"...%*;,->.........................................'&&&............................&&&)...............................................................$*=;,-&>...",
"...%*;,->.............................................................................................................................................=>')).....",
"...%*;,->..........................................................................................................................................@=.=;,&')....",
"+++%*;,->,+++++++++++++++++++++++++++++++++++++++++++++++++++++++++++++++++++++++++++++++++++++++++++++++++++++++++++++++++++++++++++++++++++++++++%;==;,&')....",
"@@@%*;,->-@@@@@@@@@@@@@@@@@@@@@@@@@@@@@@@@@@@@@@@@@@@@@@@@@@@@@@@@@@@@@@@@@@@@@@@@@@@@@@@@@@@@@@@@@@@@@@@@@@@@@@@@@@@@@@@@@@@@@@@@@@@@@@@@@@@@@@@@@%,>;;->')....",
"$$$%*;,->&&$$$$$$$$$$$$$$$$$$$$$$$$$$$$$$$$$$$$$$$$$$$$$$$$$$$$$$$$$$$$$$$$$$$$$$$$$$$$$$$$$$$$$$$$$$$$$$$$$$$$$$$$$$$$$$$$$$$$$$$$$$$$$$$$$$$$$$$$$-';-&>).....",
"===%*;,->>>========================================================================================================================================*&)-&>').....",
";;;%*;,->'';;;;;;;;;;;;;;;;;;;;;;;;;;;;;;;;;;;;;;;;;;;;;;;;;;;;;;;;;;;;;;;;;;;;;;;;;;;;;;;;;;;;;;;;;;;;;;;;;;;;;;;;;;;;;;;;;;;;;;;;;;;;;;;;;;;;;;;;*>)>>')......",
"---%*;,->'''---------------------------------------------------------------------------------------------------------------------------------------=')''........",
"...%*;,->..........................................................................................................................................;)...........",
"~~~{*]^/(~~~~~~~~~~.............................................................................................................................................",
"~~~{*]^/(~~~~~~~~__~~~~~~~~~~~~~~~~~~~~~~_____~~~~~__~~~~~___~~~~~___~~~~~~~~~~~~__~~__~~~~~~~~~~~~~~~~~~~~~~__~~~~~~~~~~~~__~~~~~~~~~~~~__~~~~~~~~~~~~~~~~~~~~.",
"~~~{*]^/(~~~~~~~~__~~~~~~__~~__~~~~~~~~~~__~~__~~~~~~~~~~~~__~~~~~~__~~~~~~~~~~~~__~__~~~~____~~~_____~~~~~~~__~~_____~~~~~~~~~~~~____~~~__~~~~~~~~~~~~~~~~~~~~~",
"~~~{*]^/(~~~~~~~~_____~~~__~~__~~~~~~~~~~_____~~~~___~~~~~~__~~~~~~__~~~~~~~~~~~~____~~~~__~~__~~__~~__~~~_____~~__~~__~~~___~~~~__~~~~~~__~__~~~~~~~~~~~~~~~~~~",
"~~~{*]^/(~~~~~~~~__~~__~~__~~__~~~~~~~~~~__~~__~~~~__~~~~~~__~~~~~~__~~~~~~~~~~~~____~~~~______~~__~~__~~__~~__~~__~~~~~~~~__~~~~__~~~~~~____~~~~~~~~~~~~~~~~~~~",
"~~~{*]^/(~~~~~~~~__~~__~~~_____~~~~~~~~~~__~~__~~~~__~~~~~~__~~~~~~__~~~~~~~~~~~~__~__~~~__~~~~~~__~~__~~__~~__~~__~~~~~~~~__~~~~__~~~~~~__~__~~~~~~~~~~~~~~~~~.",
"~~~{*]^/(~~~~~~~~_____~~~~~~__~~~~~~~~~~~_____~~~~____~~~~____~~~~____~~~~~~~~~~~__~~__~~~____~~~__~~__~~~_____~~__~~~~~~~____~~~~____~~~__~~__~~~~~~~~~~~~~~~~~",
"~~~{*]^/(~~~~~~~~~~~~~~~~____~~~~~~~~~~~~~~~~~~~~~~~~~~~~~~~~~~~~~~~~~~~~~~~~~~~~~~~~~~~~~~~~~~~~~~~~~~~~~~~~~~~~~~~~~~~~~~~~~~~~~~~~~~~~~~~~~~~~~~~~~~~~~~~~~~~",
"~~~{*]^/(~~~~~~~~~~~~~~~~~~~~~~~~~~~~~~~~~~~~~~~~~~~~~~~~~~~~~~~~~~~~~~~~~~~~~~~~~~~~~~~~~~~~~~~~~~~~~~~~~~~~~~~~~~~~~~~~~~~~~~~~~~~~~~~~~~~~~~~~~~~~~~~~~~~~~~~",
"~~~{*]^/(~~~~~~~~~~~~~~~~~~~~~~~~~~~~~~~~~~~~~~~~~~~~~~~~~~~~~~~~~~~~~~~~~~~~~~~~~~~~~~~~~~~~~~~~~~~~~~~~~~~~~~~~~~~~~~~~~~~~~~~~~~~~~~~~~~~~~~~~~~~~~~~~~~~~~~~",
"~~~{*]^/(~~__~~__~~~~~~~~~~~~~~~~~~~~~~~~~~_____~~~~~~~~~~~~~~~~~~~~~~~~~~~~~~~__~~~~~~~~~~~____~~~~~~~~~~~~~~___~~~~__~~~~~~~~~~~~~~~~~~~~~~~~~~~~~~~~~~~~~~~~~",
"~~~{*]^/(~~___~__~~~____~~~__~~~__~~~~~~~~~__~~__~~_____~~~~____~~~~____~~~~~~~__~~~~~~~~~~__~~~~~~~____~~~~~__~~~~______~~__~~~__~~____~~~_____~~~~____~~~~~~~~",
"~~~{*]^/(~~______~~__~~__~~__~_~__~~~~~~~~~_____~~~__~~__~~__~~__~~__~~__~~~_____~~~~~~~~~~~____~~~__~~__~~~_____~~~~__~~~~__~_~__~~~~~__~~__~~__~~__~~__~~~~~~~",
"~~~{*]^/(~~______~~______~~_______~~~~~~~~~__~~__~~__~~~~~~______~~______~~__~~__~~~~~~~~~~~~~~__~~__~~__~~~~__~~~~~~__~~~~_______~~_____~~__~~~~~~______~~~~~~~",
"~~~{*]^/(~~__~___~~__~~~~~~~_____~~~~~~~~~~__~~__~~__~~~~~~__~~~~~~__~~~~~~__~~__~~~~~~~~~~~~~~__~~__~~__~~~~__~~~~~~__~~~~~_____~~__~~__~~__~~~~~~__~~~~~~~~~~~",
"~~~{*]^/(~~__~~__~~~____~~~~__~__~~~~~~~~~~_____~~~__~~~~~~~____~~~~____~~~~_____~~~~~~~~~~~____~~~~____~~~~~__~~~~~~~___~~~__~__~~~_____~~__~~~~~~~____~~~~~~~~",
"~~~{*]^/(~~~~~~~~~~~~~~~~~~~~~~~~~~~~~~~~~~~~~~~~~~~~~~~~~~~~~~~~~~~~~~~~~~~~~~~~~~~~~~~~~~~~~~~~~~~~~~~~~~~~~~~~~~~~~~~~~~~~~~~~~~~~~~~~~~~~~~~~~~~~~~~~~~~~~~~",
"~~~{*]^/(~~~~~~~~~~~~~~~~~~~~~~~~~~~~~~~~~~~~~~~~~~~~~~~~~~~~~~~~~~~~~~~~~~~~~~~~~~~~~~~~~~~~~~~~~~~~~~~~~~~~~~~~~~~~~~~~~~~~~~~~~~~~~~~~~~~~~~~~~~~~~~~~~~~~~~~",
"~~~{*]^/(~~~~~~~~~~~~~~~~~~~~~~~~~~~~~~~~~~~~~~~~~~~~~~~~~~~~~~~~~~~~~~~~~~~~~~~~~~~~~~~~~~~~~~~~~~~~~~~~~~~~~~~~~~~~~~~~~~~~~~~~~~~~~~~~~~~~~~~~~~~~~~~~~~~~~~~",
"~~~{*]^/(~~~~~~~~~~~~~~~~~~~~~~~~~~~~~~~~~~~~~~~~~~~~~~~~~~~~~~~~~~~~~~~~~~~~~~~~~~~~~~~~~~~~~~~~~~~~~~~~~~~~~~~~~~~~~~~~~~~~~~~~~~~~~~~~~~~~~~~~~~~~~~~~~~~~~~~"};
