/* XPM */
static char * water_xpm[] = {
"29 12 17 1",
" 	c None",
".	c #020202",
"+	c #1A1A1A",
"@	c #323232",
"#	c #636363",
"$	c #767676",
"%	c #8E8E8E",
"&	c #B2B2B2",
"*	c #B6B6B6",
"=	c #CACACA",
"-	c #DADADA",
";	c #E6E6E6",
">	c #EEEEEE",
",	c #5E5E5E",
"'	c #F6F6F6",
")	c #FEFEFE",
"!	c #7F7F7F",
")))))))))))))))))))))))))))))",
")))))))))))))=>)))))))))))))>",
")))))))))))))%*)))))))))))))*",
";)))))))))));@#)))))))))))))#",
"!')))))))))'!..=)))))))))))=.",
"+%;)))))));%+..@>)))))))))>@.",
".+#&-')'-&#+....@=)))))))=@..",
"...@,$!$,@........#*>)>*#....",
".............................",
".............................",
".............................",
"............................."};
