/* XPM */
static char * brickout_xpm[] = {
"30 30 5 1",
" 	c None",
".	c #FFFFFF",
"+	c #C7C7C7",
"@	c #999999",
"#	c #000000",
"..............................",
".++++++@++++++@++++++@++++++@.",
".+@@@@@#+@@@@@#+@@@@@#+@@@@@#.",
".+@@@@@#+@@@@@#+@@@@@#+@@@@@#.",
".@######@######@######@######.",
".++++++@++++++@++++++@++++++@.",
".+@@@@@#+@@@@@#+@@@@@#+@@@@@#.",
".+@@@@@#+@@@@@#+@@@@@#+@@@@@#.",
".@######@######@######@######.",
".++++++@++++++@.......++++++@.",
".+@@@@@#+@@@@@#.......+@@@@@#.",
".+@@@@@#+@@@@@#.......+@@@@@#.",
".@######@######.......@######.",
"..............................",
"..............................",
"............##................",
"...........####...............",
"...........####@..............",
"............##@@+.............",
".............@@++.............",
"..............++..+...........",
"...................+..........",
"................+.............",
".................+............",
"..............................",
".................##########...",
"................############..",
"................############@.",
".................##########@@.",
"..................@@@@@@@@@@.."};
