/* XPM */
static char * bkg_west_xpm[] = {
"160 80 15 1",
" 	c None",
".	c #777777",
"+	c #DDDDDD",
"@	c #888888",
"#	c #BBBBBB",
"$	c #666666",
"%	c #AAAAAA",
"&	c #999999",
"*	c #EEEEEE",
"=	c #CCCCCC",
"-	c #555555",
";	c #333333",
">	c #222222",
",	c #444444",
"'	c #111111",
"$.$$.$$.$$.$$.$$.$$.$$.$$.$$.$$.$$.$$.$$.$$.$$.$$.$$.$$.$$.$$.$$.$$.$$.$$.$$.$.$.$.$..............................................................@.....@..@..@.",
"$-.-$$$-.-$$$-.-$$$-.-$$$-.-$$$-.-$$$-.-$.-.$.$.$$.$.$.$.$$.$.$.$.$$.$.....$.......$.$.$.$.$..$$.................................@..@.@..@..@.@.@..@..@...@....@",
"$$.$$$.$$.$$.$$.$$.$$.$$.$$.$$.$$.$$.$$.$$$.-$$..$.$$.$$..$.$$.$...$.$.$$$.$$.$.$....$...$..$..............................@..@...........@.........@...@..@@@..",
".-.-.-$$$-.-$$$-.-$$$-.-$$$-.-$$$-.-$$$-.-$.$.-$$$.$.$.$$$$..$..$$.$.$.$......$..$....$............................................@..@.@......@.@.@..@..@.....@",
"$$.$$$$$.$$$$$.$$$$$.$$$$$.$$$$$.$$.$$.$.$$$$.$..$$.$$..$.$$.$$..$.$...$.$$...$..$$................$...$...$.........@........@..@.......@.@.@......@.@..@..@.@.",
".-$$$$.-$$$$.-$$$$.-$$$$.-$$$$.-$-.$$$$.$...$.$$.$.$.$$.$.$.$..$$.$.$$$.....$..$...$..$.$...............................@...@........@.........@.@.@...@...@...@",
"$.$$$$$.$$$$$.$$$$$.$$$$$.$$$$$$$.-$.$.$-$$$.$.$$.$$.$$.$..$$$.$......$.$....$.................$..........@.....@..@.....@.....@..@..@.@.@.@.@.@...@.@..@@.@....",
"-$$$$$$-.$-.-$$$$$$-.$-.-$$$$$$$.$$.-$$.$..$$.$.$.$.$.$..$$...$$.$$.$....$$.....$....................................@.@....@.@..@.@....@..@..@..@....@....@.@.@",
".$$$$$.-$.$$.$$$$$.-$.$$.$$$$$.-$$$$.$.$$$.$.$$.$.$$$.$.$..$$........$.$...$................................@...@.........@....@.@..@.@..@..@.@..........@......",
"$-$$.-$.$-.-$$$$.-$.$-.-$$$$.-$.$$-.$.$.$.$$.$.$$$..$..$.$$...$.$.$$$.$.....$............$......$.............@....@.@.@.@..@...@...@.@.@.@.....@.@.@......@..@.",
".$.-$.$-$$.-$$.-$.-$.-$.$$$$$.-$$$.$$.$.$.$.$$.$.$.$.$$...$$.$..$......$........................@.....@..@........@..@..@.@..@.@.@@...@.@.@.@.@.@.......@...@...",
"$-$.$-$..-$.$$$$.$$-$.$-.$$-.$$.$-.$.$$$.$$.$.$.$.$.$.$.$......$...$....$.........$.................@.......@..@@..@..@...@..@..@...@..@...@.@....@...@......@..",
".$-.$$$-$.-$.$-.-$..-$.$.-.$.$.$$.$$.$.$.$.$$..$..$...$...$.$.........$...............................@.@...@...@.....@.@..@.@..@.@.@.@.@@.@.@.@.......@.@....@.",
"$.$-.$$.-$.$-.$-.$-$.$-$$.$-$-$.$.$.$.$.$.$.$..$.$..$.$.$....$..$............$...........@....@.@..@......@...@...@@.@..@.@..@.@.@..@..@.@.@@..............@...@",
"$$$$$$-.$$-.$-.$-.$-$.-.-$...$-$$.$.$$$..$..$$.$......$.$.$......$...................@.....@.........@.@..@.@..@@..@.@.@..@.@..@@.@@@@.@@.@..@.........@.@.@....",
".$$.$$.$-.$-.$.$.$.$.$$$.$$-$..$.$$$..$$$$.$...$.$$$$........$.$........$.........@.....@......@..@.@...@...@.@...@..@..@.@.@@@.@.@..@@..@.@@..@.@...@.......@@.",
"$$$-.-$.$-$.$-$-.-.$-..$$.$.$$.$..$.$$...$.$$$.......$..$.$...............................@..@..@...@.@..@...@..@.@.@.@.@.@.@.@@.@.@@.@@@@.@@@.........@..@.@..@",
"$$-.$$.-..$-.$.$$$.$.$$..$$.$.$$$$.$..$$.......$$.$...$................................@..@.@..@...@..@.@.@.@..@..@..@.@@.@..@@.@@.@@@@.@@@@.@.@.@@@.@...@..@.@.",
".$$$$-$$-$.$-$.-.$$.$.$$.$.$$.$...$..$.$$..$$.$.........$..........$.........@.....@@...@...@.@.@@..@.....@.@.@@@.@@@.@@.@@@@.@@.@.@@@@@@@@@&&%#%&%&@.@.@.@.....",
".-.$$..$.-$.$.$$-$.$-$$.$$.$.$.$.$$.$....$.......$$.......................@.....@@...........@....@.@..@@@..@...@@.@..@.@.@..@@.@@@@@@&&&&##==+=+##%&@.....@.@.@",
"$$$$-$-$.$$$$.$..$.$..$.$.$$.$.$..$...$..$.$.......$........................@......@.@.@.@..@.@@..@..@..@.@@.@@..@.@@.@@@@@@@@@@@&@&##=+=*+++*+=*==#%&.@.@..@.@.",
"$.$-..$.-.$$.$.$$$.$$$.$$.$.$.$.$...$$..$....$..$............$........@.@...@..@..@.@..@.@.@...@..@.@.@@.@..@.@@@@@.@@...@@.@@@&##+=+=++++*+++*+++*+#&&..@.@...@",
"$-.$$-$.$$.$-$.$.$.$.$.$.$.$....$.........$...............$.......@..........@..@...@.....@.@.@.@.@.@@.@.@@.@...@.@@.@@@.@@@@&##+++*+*+*++**+*+*++*++#&@@..@....",
".$-$.$.$-.$.$.$$.$$.$.$.$..$.$$.$..$.$.$.................................@.@..@..@.@.@.@@..@.@.@.@..@.@.@.@@@@@@@.@@@@@@@@&&#++++=*+++++**+**+****++++#&@@..@...",
"$..$$$-.$$$.$.$.$.$.$$$.$.$......$.......$.$....$....$.....@.....@...@.@....@....@.@.@...@.@.@.@@.@@.@.@@.@@.@.@@@.@@@@@@&#=++++*=+*+*+++*+*+*+*+**+++#%&@@.@...",
"--$$$$.$..$$.$.$.$$$.$...$..$.$$......$......................@.@....@....@.@.@@.@...@.@.@@.@.@.@.@.@@@@.@.@@@@@@@@@@@@&%#=*+***+*+++++*+*+++***+*++*++#%&@@...@.",
".$..$.$$$.$.$$.$.$....$..$......$$..$............................@.@.@@@.@....@.@.@@..@.@.@@.@@.@@.@.@@@@..@@@@&@&@&&+=+*+++++*+++*+********+*****++++=#%&@@....",
"$-$$.$.$.$$.$.$$.$.$$$.$..$.$..........................@.@...@....@.....@.@@.@.@@.@.@@@.@@@@@.@@.@@.@@.@@@@@@&@&%#=*++*+++****+*+*+++++*+*++*++*++*++=+#%@@.@...",
".$.$.$.$.$.$$.$..$...............$...........$......@.....@..@.@....@...@..@.@..@.@..@@.@.@.@@@@@@@@.@@@&&&%#+++*+++*++**++****+*+*+**+*+**+*++*+=+=+=+=#&&..@..",
"$-$.$$$.$$.$.$.$..$$.$$$..$.$.$.........................@..@...@.@.@.@.@.@@.@.@.@.@@.@..@@@@@.@.@@@@@@&&%#++++*+++*+++*+++++*+*+++*++***++**++++=+=+##=+%&&@....",
".$.$..$$.$$..$.$........$...................@....@...@.....@.@.@...@.@.@..@.@@.@@.@@@@@@@&@&&@&&@@&&&@&#=*+*+++*+*+**+*+**++*++**+**++++++++*++++#=##+=+#%&&@.@.",
"-$.$$$.$.$.$$....$..$........................@..@..@...@.@..@.@..@..@...@@.@@.@.@@@@@&&&%%#%%#%%@&&%%#=+++++++++*+*++++*==*++**++*++++*+*+++=#+=#+++#=###%%&@@..",
"$.$.$.$..$..$$$$.$.....$.........................@..@.@..@@...@.@.@@@@@.@.@@@@@@.@@%&%#%##########+=+=++=+++=*=+==+++==*=+=+==++++*+*+++*+=+##++%#=++++++%%&&@@@",
"$$.$.$.$$.$........$.$..................@..@...@....@...@..@.@..@.@..@@.@@@..@.@&&%%###+=*=+++=+*++*+++++++++++++++=+++=*+=+=*++*++*+=*+++=+#=#+==+===++=#%%%&&&",
".$$$..$..$.$..$..$..........................@....@.@.@..@.@.@.@@..@@.@@.@.@@@@&@&#=*=*++++=+=+++=+++=*+++++=++=++++++*+++*++++++*+=++=+=++=+#+==+=+=++=+=##%%%%%",
".$..$.$.$...$........................@.@@...@..@..@...@..@.@.@@.@@.@.@.@@@@@@%%+=*+*+***+*++++=+++++*=+++++*++*+++*+++*+*+=*++++++*++*++**=++++*+*++*+*=+#%%#%%%",
"$.$$..$...$...$...........$........@.....@...@.@.@.@.@.@.@..@.@.@@@@@@@@&&%+==++******+++*+*+++++*=++*++*+++*++*+++*=++=+++++*+*+*+++*++++*++*++++*+=+#&&%#%%#%#",
".$...$.$.........................@...@....@.@..@..@.@.@.@.@.@@@@@.@@@&%#=*=+++*++++*+=+****+*+*++++*++*+++*+**+++++*=*++++*+++*++++*++*+*+++*=*+*=+#=%&%%%%%#%%%",
"$.$....$.$............$..@.....@...@..@@..@.@.@.@@..@@.@@.@@.@.@@&%%#+=+=+=++*++**+*****++*+*++*+*++*++*+++++++*=+=*+=+++=*++++*+*++*+++**+++=+=+=%&@&&%%##%#%%#",
".$.$........$........@.....@.@....@....@.@..@..@..@@.@.@@@.@@&%%=+=+++++*+*=+++*****+*+***+**+*+++*++*++*+*+*+++*+++=+#+++=+*=*+++*+++*+++=+=+#%#%&&#&&&%%#%%%%#",
"$.....$............$............@.@.....@.@..@@.@@.@@@.@.&@&%#=+=+++*+*+++++*++**++++*****+++*+*++++++*+++*+=++==+++=#%+=+#++#++*++*++*+*+++#+%&&%..&@@&&%#=%&%#",
".$$.$.........$.....@..@..@..@.@..@.@@@..@.@@.@@.@@.@.@@&%#=+=+=+++=+++****++*++**+***++*+***+++*+*+*++*+*=+++*+++++++==+=++##++++*=*++++*##=#%&&@@@.@@&%#%%%%%&",
"..$...................@..@.@......@..@.@.@.@..@...@@@@@&=*=+=+#++++=+#+++++*++**=+++*+*********+++*++*++++*++#++=++==+#=+=+##++++++++=++=+%##%@@.@@@..@&&%%%%%%&",
"$...$...............@........@.@@.@.@.@@.@@.@@@@@@@@@&#*++==+=+=+++++*=**+++**++=******+*+*+**+***++++*+**==%&+++=#+##=+#+###+*+*++=+=*+#&%%#&&&@.@@@@&&&%%%%%%@",
"...............@.@...@.@@.@.@...@..@@..@@@.@.@.@@@@@&=*+=++++++++**+++=++++*++*=++*+**********+++**+*+***+##&&#=+####+###+=+++++*=##&@&#&&&##=#&@@.@@@&&&&&&%&&-",
"$.....$......@.......@...@.@.@@.@@.@.@.@..@@@.@@&&&#++*=+=*++++*=+++*++=*++**++*+**+*+*+*+*+*+***+*+++++++%%&%=*=#+%###=%###%#%%%&&&&&@&&.%%#=#&@@@@@&#&@.$...$;",
"$..............@.@.@...@...@..@..@@@@@@@@@@&&&&%#=+=*+++*++++++*+*++++++**+*+*+***************++*++**+*=+##+##+++##%##*#%&@&@@@.@&&&@&&&%&&&&#%&&&&&%&%..$$-.&.-",
".....@....@.@..@..@.@.@.@.@.@.@@.@.@.&%%%&%#*+*++*+*+*=++*+=*+++=*=*++++*+***+*+*+*+**+*+*++++==+=#+==#+#=+##+++%##&#+#%%&&&&&.@@@..&@&%%&&&&%%&&&#%%&....-.%&.-",
"..............@..@..@.@.@.@@@@.@@@@&%%####=+++*+*+*++=+=+=*=++++++++++****++*++*****+*+*+*+*=+%####++##%######=&##%%%#&&&&&@&@@.@@@..@@%@@@@&%##%#%&&@...&.%#&-;",
"......@...@.@.@.@..@.@@.@@..@@@&%%##=##+=+=+=*++**+=++++++=++++++++++**+++***+**+**+*+**+++#+##%=#=%=+##+##%%+####%%&&&&&&&&@@@@.@@.@..@@&@%##+##%%%@...@#%+#@$;",
".......@....@...@.@...@@.@@@@&++*++#+=+=++++++**++++=#++=+=+*+*++*+*+++**+***=*****+*++++#*#%%&%##*=%###+#%####=#%%&&@@&@&@&@&@&@&%&&.@@@&&&%####%%&&@&%###+%$$-",
"...@.@...@.@.@.@..@.@@@..@.&%=+++*=+=+=+=+*++**+*=+++##+#=+++++++***+******+***++++*=#++#=#%%&%&##+%#+=+##%#=###&&&@&&&&@@@@@.@@@&&@@@&&%%%%&%=%#&%&%###+=+=&$.-",
".....@.@.@...@.@.@@..@@@@@@#++*+=*++=+++*++*+++*++=+=#=*++=*+*+**+***+*+*+***++*++++%##=++##%%%%#=+=+###%%#%&%%%&%&&@.&&.@@@&@@@@@@@.@%%=##%#&%%%&%&&#+#+=*=%$.;",
".....@..@.@.@.@.@@.@@@.@@&#+*+=*++==*++=+*++*+*=+++##+=+*++**+*++*++***++*++***+**####=+=##+##%&+=+#%%%&&&&@&&&%#&%&....@..@@&@..&@.&&&%#%%%%%&%&%%&%##+==*=&$$;",
"..@...@...@.@.@.@.@@@@@@%+++++=+=*++=++*++*+++=++++###++++==++**+*+**+**+**+*+*+++###++=+#=#=&%%#=%%&&&&@&@@@&&&&&&&@&&&&..@.@&@&@@@@&@&&%%%%%#%&&%&####+=+=.;-;",
"..@.@..@.@.@..@.@@@@&@&#+=#+*+#+++*=*+++**+*+*++=####+*+*=+#++++*+*+**++++++++*++=+#+==+=++#%%%&&@@@&&&@&@@&&@%&%&@&@&%&&@@@&&&&@&@&@&&&@&&#&##%%##&&@.@&=+#.-.;",
"..@.@.@.@@@.@@@@.@@&&#++*##++++=++++*++*+*+++*+*++#*+=+++++=##+=***++++*+**+*=*+%=+=++=##=###&&@@.@&&&&&&%&&&@&@&@@@@@&@&&&@&&&#%%#%#&@.@@@&&&&%%#%&&.@&%#=%$--,",
"...@.@.@...@@.@@@@@#=++*+=+=++=**+*++*****+*+=+===+=*++++*++=+=+=+=+=+##++++###+#+=+=##=##+%&&%&&@.@.@&&%&&&&%&@@&&@%%%#######%##%%#%%&&&&.@@%%%&%&%&@..#+#.;;;;",
".@..@@.@@@@@@@@&&#+**+++=++*++=++=*+**+++**++=+=*++++++++++++####+#+=+#########%%##%+###+##&&@&&%&&@@&%%#%%@&%%%@&&%%+%%++##+##%#+##%##%%%@@&&##&&%&@$$$%+#$,;,;",
"..@..@.@.@.@.@&#+++++*++++++++***+=*++***+++++++=*++=+++++=+#%#%#%####%%%#+=##%#&+#&%%%##%@&@%%%%&&&%&%###%%##%%%%&&&&##=#+##=%%%#=#%%##%+%&&#=%&%%%@$..#=%-;,-;",
"..@@@@@@@@@@@&==++*+++=++++*++++++***+*+**++++++++=#+==+##+###+#%#%%##+#=###%#%%&%#&%&&&&&@@@&%&&%&%%#=+###%&%&%%&%%%&#=###%##%%%%&##%%=%%%%%=+#&%%&.@.-@@-;,;;,",
"@@.@@.@@.@@&#+++++=*+*+*+++++*+*=*+*+*+++=+++*+++=###+##%%%=##+%#####+####=#=#%#&%&&&&&&%%%@..&%%%#&#+=#%##%%%&&&%%+##%%###%%%#%%#%%%%###%%####%%&&&..$-.$$;;,;;",
"..@.@.@@@&#=++*++*=+++*++++*++*++*+*+*=*+=+=++++++##+###%#####%%#%=#####++#%##%%%%&&&@&&%#%&&@@&%%%&%###%#%#%%%&%@&%%%%%&%%%%#%#%%&&&%#%##+%#=#&%#+#&.--..-,>;>>",
"@.@@@@@@&#++*++++++++**+*+++*++*++*++++++=+=*=+=#+%##=*#%%%%%%#%%##=#+###=+%%%%&@&&&%%%%%=#%%&%%&%%%%%%%#%%&%&&&&%%%&&&&&@&%%#%%###%&&%%++###%#####%%.$$$;;;;;>;",
"@.@@@&&#=++++*++*+****+=+++++*++*++*++==#+#=+=+=#+###+##%#%#%#%%%%%%%#=####%&&#%&&%&%&%#%%##%%&%%#%&%&%%&&%&%%=%%#=##%#%%&&&%###%%%#%@&&=+#=%##=+==&@.-;-,>;>;>;",
"&&&&&#+++++*++++++*+*+*+*=*+*+++++=+=+++##=+#+=#+####%%%%%%%#%=#%%%%#%#%=#%#&&&&&&%%%%=####%#####%&&&&&&&&%&#+###&#%%%#%&&%&&%##%#%&#%&&%++#%%==+#%%.$-;,;;>,>;>",
"####%=+=*+=*+*+****++=++++*+++**#+=++==###+=#+#+=#=%#%###=#%=%%%#%%%%%%&&&&%&&.@&@&%%##%%=%#%++#&&%##%##%###+=++=##%###@.@@@@&&&%#%%%%&&@%+#%##+=#+&.$--;,;;>;>;",
"+##=##++++*+*+*++*++*+*=++=++++#==+++++%%%#+#++=+#%##%%%%%#%###%%&&&%%%%%#%%#&..&%%&%#%#&#+###+%%#%###%%%#+#+=+=+++#++##%&&&.@@@&&%##%#&&&##+++#+#&&.$-$;;,;>;>>",
"+*+#++=+++++++**+**++++*++#=+++#++++==##%####=######=########+#&&&&&%%%%%%#+=##%&%#%&%%#%%&=&&%##=#%%%+%#+==*=+=#=+#=+++=#&.....@@@&&&&%&&&%%%####%&.$-;,;>;;>;>",
"+==+==+++=*+**++*++*+=+==#+#==%++*+=+#=#%####+#+=#+##=#=#+#+#%&@@@&&&@&&%###+#++##%##+++#%#%##+###=%#%####+=+=#+=+=+++=###&&&%&&&&@.@.@@&&&&&%%=#+#&..---,;>;>;>",
"#*=+#+=+*++*++*++*=*+++#+##++##===#+=+##%=++######+=+##+#+##&&@.@&&&@@&%%%+#+##+###===##+%######%%##%+#+=+==+##+=+####&&@%#+#+#%%###%&@.@&&%&%%####%@$$-;;,>>;>>",
"%##=%=*=++*++*++=+=++++=##+==#+++####%%#####+#+##+#+==+=+=#%%&&@&@&&&&%##%%##%##%#+###%+##%##=#%%%=#+#+#+=+=%%%&&&##++=#%##%&%&&@%&&&%%&&%%%#&%&&%%%@$$-$;;;>;>;",
"##=#+=+*+++*****=++*==+###+##+#=+###%#%%#+%####%=###+#=##%%%&@@@@&&%&&&%%%%##%#%##+++#%##+#+++####%#=#==+#%#&#%%%#%&%#&%&&%&&%%%%#++###&&&%%&&&.$.@&&.$--;>;>;>;",
"+=#%%+++**+*+*+=++#=#+=+#########=#%=#%%#%#######=+#=++#%%%&&@&@&&%%%&&%&&%%#==%##==#####=*+++#%+##%++#+%%%%%%%%%%####%######%%#+##+=##+#&&&.@$,--$.&@.$;,;>;>;>",
"+=+=%+=++*+**+++=+#+=+#%##%#####%%%#%%%%%%##=%%=+++=###%%%%&&@@&&&%&%&&&&&%#++##%#=#%+#++=++=####%+#=+#%&%#&%%&%#%%%%#=##++=+=+##%%%#####%..-;;,;,;....-;,;>>>>;",
"##%+###+***++##+=##=+###=#=%%#%%%%&%%&%#%=##%%###=+#%%%&%&&&&&&%%%%#%%%&&&%&&#+#%=+#####+++=++##%%###%%%%&&%%%%&%%#%&%#####=+#=##%&%%%#+=%&$-,;;>,;-.@$--;>;;;;>",
"&&&%%%%#++*++#=++++=+=###%%#%=%%%%%%%%%%%#%%#+=+#%&%%%%%&&&&&&%%%%%%%&%%######%#%+##%%=+*++==#=+%##+####+=##%&&%####%%+#+#+##+%%#%##=%#+=%&$,;;,';,-...-;;,>>>;>",
"&&%%&&@&##=+=##=++=##=##%&#%%#%%#&%%%%%&%%##%#%#%&&%%#&&&@&@&%%%%%%#%%%%#%####=##+##%%++==+=+#%#%##+=+++*=++#=%=##=#######%%%=%#+=#%#=+=+%@$-;,;>,;$.$--,;;;>;>;",
"&&&%&%&&&&%%+&&+=#%#&&%%&&%&%&%&&&&%%&%&%%%%##%%%&&&%%%&%&&&%&%%%###%%&&%&%%%####+++&#+====##%#%%###=++=+==++=##%%%#%%#%##%%&#%%#%#+++++=#&.$;;;;;$-..;-;,;;,',>",
"&%@&&&&@&&&@&@&@@@@&&@&@@&&&%%&&@&&&%&&@&&%%%%###%%%%%&&&&%%%%&=#+#&&@&&%%%%%%####=#%#=+=+=++%##%+##+=++=+=#=++##%%%%##=###%%%###%%==+++++%&..--$$.$$--,;;,>;;;;"};
