/* XPM */
static char * bkg_north_xpm[] = {
"160 80 17 1",
" 	c None",
".	c #222222",
"+	c #777777",
"@	c #888888",
"#	c #999999",
"$	c #333333",
"%	c #AAAAAA",
"&	c #DDDDDD",
"*	c #EEEEEE",
"=	c #111111",
"-	c #555555",
";	c #666666",
">	c #444444",
",	c #BBBBBB",
"'	c #CCCCCC",
")	c #000000",
"!	c #FFFFFF",
";+;;+;;+;;+;;++;;+;+;++;+;++++++++++++++++++++++++++++++++++++++++++++++++++++++++++++++++++++++++++++++++++++++++;+++;+++;+;+;++;+;+;+;+;;+;;+;;+;;+;;+;;+;;++;",
";+;+;+;;+;+;+;;+;+++++;++++;+;;+;;;;;++++++++++++++++++++++++++++++++++++++@+++++++++++++++++++++++++++;++++++++++++;+++;+++++++;+++;+;++++++++++;+;+++;++;++;;;",
";;+;;++;+;+;++++;;;;;+;+++++++++++++++++++++++++++++++++++++++++++++++@+++++++@++++++++++++++++++++++++++++++++++++++++++++;++;+;+;++;++;;;+;;+;+++;+;+;+;++;+++",
";+;+;;+;+++;+;;++++++++;+;+++++++++++++++++++++++++++++++++++++++++@+++@+@++@++@+++@+@++@+++++++++++++++++++++++++++++++++++++++++++++++++++++++;;++;+++;+;+;+;+",
";+;+;;+;;;++++++;+;+++++++++++++++++++++;++++++@+++@++++@++@++@@+@+@+@+@++@+@++@+@+++@++@+@+@++++++++++++++++;++++++++++++++++++++;+++;+++;+++;+++++;+++;+++++++",
"+;;;++;++++;;+;++++++++++++++++++@++++++@+@++@+++@++@+@+++@++@++@++++@++@@+++@++@+@@+@+@+++@++@@+@+@@+@+@+++@+++++++;++++++++++++++++++++++++++++;+++;+++++++;++",
";+++;++;;;++;++++;++++++++++@+@++@+@++++@++@++@+@+++@+@+@+@+@+@+@+@@+@@++@@@@+@+@++@++@+@@++@+++++++@+++@+@+@++@++@@++++++++++++++++++++++++++++++++++++++++++++",
"+;;;+;+++++++++++++++++++++++++++++++@+@++@++@++@@@@++@++@+@++@@+@@+@+@@@@+@+@+@@@@+@@@++@+@+@@+@@+@++@++@+++@++@+++@++@++++@++@++++++++++++++++++++++++++++++++",
"+;++++;+;++++++++++++++++@++@+@+@@@@++++@++@++@@++@+@@@@@+@+@@+@@@@+@@+@@+@@@@+@+@@@+@@@+@+@+@+@+@+@@+@@@+@@+@+@+@+++@+@+@+++++++@++++++++++++++++++++++++++++++",
";+++++++++++++++++++++@+@++@++@+++++@@+@+@@+@@+@@@+@@+@@+@@@+@@+@@@@+@@@@@@@@@@@@+@+@@+@@@@@@+@@@@@+@@+++@+@@+@+@+@+@+@+@++@+@+@++@+@++++++++@++++++++++++++++++",
"++;+++++++++++++++@+++@++@+@+@+@@@@@+@+@+@+@+@@+@@+@@+@@@@@@@@@++@@@@+@@@@@+@@@@@@@@+@@@@@+@@@@+@+@+@@@@+@+@@@+@@@@@++@@+@+@+@++++@++@+@@+@@++@+++++++++++++++++",
"+++++++++++++++@++++@++@+@+@+@@+@+@+@@@@@+@@+@@@@@@@@@@@@@@+@@@@@@@@@@@@@@@@@@@@@@@@@@@+@@@@@+@@@@@@@@@@@@@+@+@@++@+@@++@+@+@+@@@+@+@+@++++@+@++@@+@+@+@++@+++++",
"+++++++++@+@+@+@+@@+@+@@@@@@+@@+@@@@@+@+@@@@@@@@@@@@@@@@@@@@@@@@@@@@@@@@@@@@#@@@@@@@@@@@@@@@@@@@@@@@@@+@@@@@@@@@@@@@+@@@@@@@+@@+@+@+@++@@++@+@+@++@++@+@++@+@+@+",
"++++++@+@++@++@+++@+@@+@@+@@@@@@+@@+@@@@@@@@@@@@@@@@@@@@@@@#@#@@@@@@#@#@@@@@@@@#@@@@@@#@@@@@@@@@@@@@@@@@@+@@@@@@@@@@@@@++@+@@++@@@@@@@@@@@@++@+@+@++@++@+@++@+@+",
"++@+++@++@+@+@+@@@@+@@+@@+@@@@@@@@@@@@@@@@@@@@@@@@@@@@#@@#@@@#@#@@#@@@@@#@@#@@@@@##@@@@@@@@#@@@@@@@@@@@@@@@@@@+@@@@@+@@@@@@@@@@@+@+@++++;@+@@@@@+@@+@+@++@+@++@+",
"@++@@++@@+@+@#@@+@@@@@@@@@@@@@@@@@@@@@@@@@@@@@@@@@@@@@@@@@@@@@#@@#@#@@@@@@#@@@#@@@@###@##@#@@##@#@@@@#@#@@@@@@#@@@@@#@@@@@@@@@@@@@@@@+-$--@@@+@+@+@@+@@@+@@@@@@@",
"+@+++@@@+@@@++@@@@@@@@@@@@@@@@@@@@@@@#@#@@@@@#@#@@@#@#@@#@#@@@@#@@@#@####@#@#@#@#@@#@@@#@@@#@@@@#@@@@@@#@@#@@@#@@@@@@@@@@@@@@@@@@@@+@--;--++@@@@@+@+++@@+@@+@+@@",
"@+@@@@++@@@@@@@@@@@@@@#@@@@@#@#@@@#@@@@@@@##@@@@@###@@#@#@@#@#@@@@#@#@@@#@#@#@#@###@@#@#@#@@#@#@#@##@#@@@#@@#@@@###@#@@#@#@@@@@@@;------$--@@@@@@@@@@+@@@@+@@@+@",
"@@+@+@@@@@@@@@@@@@@@#@@@##@@#@@#@@@#@#@#@#@@@@##@@@##@@#@#@@#@###@#@##@#@##@#@#@#@##@#@#@##@@#@@#@#@@#@#@##@@##@@@@@#@@@@@@@#@@#+-->;#+;;--+@@@@@@@@@@@@@@@@@+;;",
"@@@@@@@@+@@@@#@@###@@#@@@#@@#@#@#@#@#@#@@#@##@#@#@#@##@#@#@#@#@@#@#@#@#@##@###@#@#@##@###@##@###@#@##@#@#@#@#@#@#@#@#@##@##@#@#@--+#%,%;----++@@@@@@@@@@@#@;;;;;",
"@@@@@#@#@@#@##@@@@@#@###@@#@#@#@@#@#@#@###@#@##@#@#@#@##@###@##@#@#@#@%@##########@##@#@##@#@#@###@#@##@#@#@#@#@#@###@@##@#@#@@+++%%##@+-;----++;+@@#@@@@+#,'%%&",
"@@@@@@@@@#@@@@###@#@#@@@##@#@#@#@#@@#@#@#@##@#@###@#@#################@#####@##################@#@####@###@###@##@#@@#@#@@##@+--;++@;------>------+;+#++@%%,,''*",
"@@@#@#@@@@@#@#@@#@#@###@#@##@#@###@####@#@#@##@#@##################################################@###@####@#######@####@@#%;;--++--;--$----;$;---+-+-;@;+,&&**",
"@@#@@@#@##@##@#@##@#@#@##@#@###@@###@@@#################@##########%######%#####%##########%########%############@###@##@;%&&,,#+;----;+-->--------+-;+;@+++%&*!",
"#@@@#@#@@##@@##@#@##@##@############%######@#############%#############%##########%##%##%#####%###%##############%######+%**&&&&&,%#%###+;----+-----@-+#&&'&&***",
"@#@@#@#@#@@##@##@############@########################%#####%##%####%#####%%%##%###########%###%####%###%##%##########+-%&*&&'','&,,%,,,%+-+-++@;;-++@;%%%'&'*&*",
"#@##@#@###@#########@#####################%#####%#%#####%#######%%#%#%#%#%#%#%%%#%%%#%%%###%#%########%###%##%##++@++;+,&&*'&&%,,,,',&',++----;%%+;+;%%%&**&&***",
"@@#@#@#@@####@######%#####%#%####%##%########%#######%####%#%%#%#%#%#%#%##%#%##%%#%%%%,%##%#%#%%%#%#%#%#%##%%%@;@#+;%%'*&&'&'',&&&*''&,%#-;---+@%%++@,,'&&*&&&'&",
"#@#@##################################%##%######%%#%%%#%%%%#%%#%#%#%%%#%%%%%%%%%%%%,&&**'#;###%###%%#%%#%%%%#@+%&@#++#+##@;%,&'&&&&&'&,%@+--+;@+%%,&&*****&'&***",
"##@###############%##%####%##%##%##%######%#%%%%%%##%#%##%%%%#%%%%%%%%%%#%%%%#,&,&&***!**,##%++;+;+##@@#%%%%#,'*#%,,',#+@,***&&&'&&',,%#@;+--;@@@%&&&*&'''&&**!*",
"##########%##%#########%######%###%%#%%%%#%#%#%#%%%%%#%%%%#%%%%%%%%%%%%%%%%%%,*!***!*&*&*&&&&,,,#;+#,,#%,#,***&',&*&*&&'*&&&&*&&,,,&,%#@;;-+-;+#@##,&*&&&&!**&&'",
"#######%############%#%####%%%#%%#%#%%%#%%%%%%%%%#%%%%%#%%%%%%%%%%%%%%%%%%%%,**!******'*&&&&&&&&&&,%,&&,'&!*&!*!**&&&&&&&&&'&'&&''&'&@;+-;;-+;;++#%,&,',,&'&****",
"####%####%#%#%%#%%%#%##%%%%#%##%%%#%#%%%%%%%%%%%%%%%%%%%%%%%%%%%%%%,%,%,,,&**!*!****&&,&!*!***&&***&'&&*!**!!****!****&&'&%'*&&&**&&,@;+;;+;-++@@%,&&&',,&'&*&**",
"#####%##%%%#%#%##%####%%##%%%%%#%%%%%#%%%%%%%%%%%%%%,%%%%%%%,%,,,%,',,&**!**!*!*!!*****!*!***!***!**!!!**!!******&*****&&&'&'&***&*@+@--;+;+-;@%#%%%&&*&&****&**",
",%%%%%%##%##%#%%%#%%%%%%%#%#%%%%#%%%%%%%%%%%%%%%%%%##%,,%,%,%,,,&'&*!*****!******!*!!*****!***!*!******!***!*!*!****!**&,%,,*&&**'@;+;;--+;++;+@#,,,&****&&*!**!",
"',%%%%%,%%%%%%#%%%%%%#%%%%%%%%%%%%%%%%%%,%%%,&&**&&&,%%#%%',&&***!!**!**!***!*!!*!******!**!*!***!*!*!*********&&*****&&*******&&#+-@#@;-+@;+;@#,'*&*&**&'*&****",
",%,%,'&&'%%%%%%%%%%%%%%%%%%%%%%%%%%%%%%%,&'*'*&&&*&##%',+-;,*********!*!**!!*****!!**!**!*!*******&*''&*&'&&&&&&*&!**&*****&*****;--@%;++;#@@%,%%&&&**&**&******",
",',,&&&&*&,%%%%%%%%%%%%%%%%%%%%%%,,,'&'*&&''&'&*&#--$;$->$$-,*!***!*****!***!!*!**!***&&***!*&&&*&'&,**&'&***&&&*****!*&******&*'+--;+%;+-+,,,*'&'&*&**&*****&**",
"%,,,'&''&&&,%%%%%%%%%%%%%%#++##++-++;-+@%&,+;;%'&-->$---;;$;-'****&*&*&&&*&&&&******',&'****&**&*&&,'&&'*'*&*&******&,,,&,,'&&**%-;;+,,@;;;%,&&&&&&&&****&*&***&",
"'&*'&'*&&*',%,%%,%%,%,%%%;;-$;--$-$--#,,&%--$-$-->----,&%-$;%;##%,@@#+##%&&&%''&,&*&'&%%,%,,,'&*&&'&&*'*&&&*&&&****&%%,&&&******%---;#%;+;-&,,'*&&&*&&***&&&*&**",
",'&'&'&','&,%,%@%,%%%%#%+$>+,,@+$>$>$+##;>$>-$>$$;,&&&'&#--*&&-;,&&'&'@#;###$;$--;;;-;@%%%&&*&&&*'&&'&',,,&&****&*&&'*&&****&&&&@---;+#+;%;%&*'&&&'&'&'&&*****&&",
",,,,,',',,,%,%,@%%,#@+$-$-,&&#>$.$>$$@+$>-$$>+$->>;,'',----%&&&+-%&&'*&'&+;,;->$>$>-+--,'******&,##@@%,%,,&*&**&*'&'&&&,&,,'%;#,;-+-;%,,%'&&*&&&*'&&&%%&&&&&&&&&",
",,,',,,,,',,%%%--;-$>$->-,#+-$$.$.$-+->$$>$$>;+;$$>-@&#$>--#*&&&#-@,&&*&,,+%-#+-$>$$$>->-+@@@+;+$$-$+++@@#%'&'&%,@#+@++##;+;;--;+---+&&*&&*&&*&*',#,'',%&&*****&",
"%#%%%,%%%%%%%@+..$>-;@-;,+-$%;>$$$%#-$$>$;;$$>$$;$$>$+&,'%,&&&&&&#-$-;%'*%&,@-##---->$$$-@-$$$-,;$>$-%;$>$$-%%##+---;+;-;+;;--$+;-@,,&&&*&&****&&&%@%,,##,'&&'',",
">$-++%,#+$$---$..$$%&,#,;->$%$$>-%@->;>-.-+$>$>-;+$$>-;,&&&*&&&&&&+>$>$$--@%+--+++;-$>$$-$>$>-@%';-+%'%;+->-%+-->;,%###%%@+--;-;@#,*'&&&&*&***&*'&&,##@+-+#####%",
"$>$$$>->$>$+,#;.$>-&&&,%-%$-;>$++-$$##-$$>$#;>$$-,#-$$>-,*'&&*&&*&&+-$;$>-$-+$>$-@'@$->$>-$>$-,&,##&'*'&,;+,#$>-$>+%@+;;--;+-;+%,'&'&*&****&*%@#,&&&%;+-$+++@+%%",
"$$>$>$$$-$>@,@-..;&&&#@$+$;-.$+->$;---,;$$>-,;>$>-+%;-$;$,*'&&&&*&&&@-$--+#;#,;+%'&,-$>$$>$;;$$+->;,&*&,&&,@-$$>$$$$$$$;+#&%+&,'&'&''&&&&*&&&&',&&,%%##+>++;.;%#",
"$+$$$->$>#;',-$=.%&'#-.>$$$$-$>$;-+->#@->$.>$%+>$$$-%#$-$-%*&&*&&&*&&%->$;@++&&#&&&*,@--+;+%-;$-;$$+&&&#,;;;$>$$>$>.>$>@;,,+@###'&&&&&&*&&*&&&'*&&&&,#--$+--.$+#",
"$+#>$$--@&&*%--..,&,$$$$.>$;-$$>#%$$>+-#$$$$.$,;>->$-,+>$-$,*&&*&&*&*&%-$$>-$@&*&&&'&&,#%,&&';>$>$-@*&&&+--$$>-$>$$$.$>@-+&-$;@%#@,&&*&&*&&&,'&'&&&,++;.>->;$.%#",
"$$;$@+#,&&&&-;+..#,+$..>$$-;.$.+,$>;$$->$>.$.$;+$>-$>+'@$;$-'*&&*&&&&&&+>-$$>;'&&&&&&&'*&&**@$$>$>-#&*&,;;$>++#-.$.>$$$%$-@>$-#&,+;#%&'*'&&'%&&&'&'#$++$.$$;$>;+",
">$;$%'*&&'&&;-;..$#$-$$.-%#$..;,-$>$>$$.$$>$..$>$$>-$$;&@$--#&&&**&*&&&'->$--$;#*&&&*&*&**&,+$-$$-%&&**#;%-$$-,;>$$$.+#%-#$$>$$------@,##%#%'&&%@,,,;++$...$;.;#",
"$$-;@&'*&*&&-+$...$-%+-$@#$.>$;@$.$.$.$.$.$$..$$>;,,->$;&+;+%&*&&&*&**&*@$$;,%;$;,*&&&&**&*&&%'%;#&***&#,&-->-#&->$>$@,-#;>$>$>$>-----;+-----+%&%#+#$$$..$..>.;+",
">#;+&&&&&&&&$-.=..$>->$+#$$.$>->..$...$.$>.$..$>$>;',->$;,%;%'**&&@#'*&&->$$+%&+>$@&&*&**&*&&%&&*&****','->+$-@&,-$>+&@-+-$$>$$>$%+$>-;-@++;;--;%,#-.>-.=.=.=.-.",
"#,--&,,&&*&%.-$...$$>$-;+$-.$.$.$..$$$..$@-.=..$>$$$#&;>$+,&&&'&**@--##@-$>$$-@&%-$-#&*******,#%%,%&,#%*,+$$>$-%&%++%%;-%->$$>$$++$-$>%%&&#---$>$>-$..$.......$.",
"*,$.$>$-@'&,.;$.=$;$$>-%#.$...$.$$.$>.$..$-$....$>$+$+,-$>-'&*&&&&&$$-->#$$>$$;,*'>$>+,&*&'#;-$$$$$-$>;&#$>$$.$$#'&'*;;-%%;>.$.>;>$>$-,'&'#-->$.$...=.=.=.=.=...",
",;..$$$#+%'-.$>).$->-#%;$..=.$.$.$..$$.$.>.$=.=..$$-+----$$,&&&#&&&+>;,-;>$$>$.$&%;$$$-#+-;$>$;$>>$>$$$#+>$$>$.$$+''&;--,&,$$$.$>$$$>$>;#+;$-$.$>$$....)......=.",
"%#..$.$-,&,.......$@++$.$...=$.$>$$..$$.=.....=..$>$-%->$>@*&*'--#%-$;'&;.>$$$.$&'#+-$$$$$$$>.$;;-$##,,&#$.$>$.>.$+&&%;#&'&$>$$$.$>$$$>-$$>;+$.$..$.=...==.=...=",
"$-......#&,=.$=.=.$+.$..$.=..>$$...$$.$..$.=.=...$$>$-%$$$>;+,+>$>,-$$@'&;$.$...%*'&,@>$>$>$$.>$>#,-++;+->$..$.$.$>%'&,'&*,-->.>$..>.>$+>$$.;+$$$..=..=..)...=..",
"..=..$$-&&;..;.....=....=$..=.$$$$>.$>$..=....=..$>.$+@>$$>$>$$$.$>+>$$@&#%>$.=.;*'+$-$$>$>.$$..$$@++-+#$>.$$.$$.$>$#&*&&&-$$.$.$.$.$.-,->$.>$;.$$..=..=..=...=.",
"$$.=.+-.$$....=.=..$=.$...=..-.....$.$$=.$.=.=....$$$$#%-.>$$;@$.>$$>$>$;-+-$=..$,&%>$@@--$.$-$$>$$$#&'%$$$.$.$.$..>-%&*&+$.$.$.$.$..$.@.$.$.$-...=..=..=.=.=...",
"....)>..-#$.=$...=....=.$..=>$.$$$$$.>........=.=.$>>$$%,$$>.$-$.$.$+-$>.-.>.$...$#-#.$%&,-$.-+.$->$$&&-$;$$.$$;$$$$$-#+-$.>.$$.$.=$..$;.$...$$$...==.=...)..=.=",
".=.=..$$@$=....=...=.$...=...$....$>$=.=.=.=.)....$$$>$$+-.$$$>$$.$>;+$$.$.$..=...$.$-$$#@@$>$$$$..>-,;$.$.>$.$-#>$.>$>$>$.$..$..$.$=....$.$..$.$=..=...=..=....",
".$..=.......=.).=....=.$..=..=.$..$$>....=...=.=...$$>$$>-$.>$$>$...$->$$$-.$..$.$......$$.$.>$>$$..$>.$.$$.$;$$$>$.$$$$..=$.$.$....$.=..=..$.....=..=)..=..).=.",
"..=..=..=.)..=...=.=....=..=..$.=...$$.=...=..).=.>$>$>$$>$$.>$-$$.$.-->$>+$..=..$=.$$$..$.$...$+-.$.$$.$..$-->>$$$..>.$$$..$...$.=...$.$.$..$.$=..=...=....=...",
"..).).)..=.=.).=....=.=..=..=...$.=....=.=.).....=.$$$>$$$>$.$>$>.$..$#-$$$$..=......$$..$.$$$$.$$.$$..$..$>$$$$>.$$.-$>..$..$.=.$..=...=$.=...$....)...).=..=.=",
")......=..)...)..=.=...=..=...=...$=.=......=.=).....$$>$>$$$..$$=.$.>-->>$.$...$=.=.>-.$$>$.>$$>$.>$>$.$..$$.>.$$>$--$.$..$.=.$..=..=.$...$=$...=.=..=.=..)....",
".=).).).)...=..=...=.$.....=..$.=....=.=.=..)...=...$.$..$>$..$>$$..=.$-$$>.$.=.......$..$$$$>$>$$$$$>$..$....$$>.;>->.=.$.=....$..=....=$....=.....=.)..=..=.=.",
")...=..=..=....).=....=.)=...=.$...=..=...=..=.=..=..-.$$..$$...>$.$$.>-+$$.=..=.=.=$$...>$>$-$$>$>>$$-$..=.$...$$--;.$..$.>=.=..=...=.$..$.$.$.=.=....=..=.)...",
".=).).).).)=.=...=.=..=...=.....=.$.=..=..)....)...=>$..$$..$$.=>$$..=.$;..$..........$=.$$>$>$>$$$$>$$$$$.$.=$...$+;..=.$....=..=.=....=..=..=...=.=...==..=.=.",
")..=...=...)..)=.....$>=.=.=.=.=.....=...=.=.=.=.=....$..$$...$...$>$.$.#$...=.==.).=.....$$>$$$>$>$>$;$>$..$..$.$....$...=.=..=.....=.$.$.$.$..=...)=.=..=.....",
"..).)....=..=...=.==.-+......=..=.=...=....==....=.=......$$..$.$..$..$.$@$.=....=..=.=...$.$>>$$>$$$$>$$$...$....=$..=.=$...=..=.=..=.....=.$..=.=.....=..=.=.=",
"=..=..)=)..)..=.)....;@.)=.=..=..=..=.)=.=..=)=.)...=$=$=...$.$=.$.$$....-;...)=..=.....=.>$.$.>$$>.>$$>-$$$..$=.$...=.....=..=....=..=.=$.$..=.....=.=...).....",
".).).....=...)...=)..$+.....=..=.........)......=.)......=.=..$>.=..$.$...;.=...=..).=..=..=$$$$.$$$.$$>->$$.$.$..=...=.=...=..=.=).......$$..=.=.=..).=..=.=.=.",
"..=..).)..)=..)=...)..=.=.=......=.==.)=..=.=.=)...=..=.$.....$.$.$..$$.$..-..=.==.=..=......$>$...$.>.$$-$$.$..$.$=.=....=..=.....).=.$=..-=......=....=..)....",
".).).=..=...)...=...=...=..=.=.=........=..)....=...=...=.=$=......$.$+.=.$-..).....=.).=.=..$>$.$..$$...>$>$.$.......=.=..==.).=..=.)...$.-.=.=.=..=.=).=..=).=",
"....)..).)=..=.).)=.==.).)..=...=.=.=.=.==...)..).=...=.......=.$=.=..$$....=.=.=.)....=...=...>$$.$$.$.$.$$$$.$.$=.=..).=..=..=....=..=......=...=.......=.....",
".=..=.)....=...=...=.....=...=..=....).=..=.=.=...).=..=.=..=$....$.$...$=.....).=.=.=..=...=.=$.$..$.......>.=.....=..=.)...=..).=..=..=.$=...=...=.=.=...=.=..",
".).)...=.)..)=.==.)..).=..)=..=...=.=....).)..)=.=....=...=...=.=.....$.=..)=.=...)..)..).=......$$..$.$=.$=.$$.$=.)..)....=.)=...).).=.$...=.)..=...)..=.)...=.",
".=..=).)..=.....)..=.=..)...=...=....=.).=..=...).=.=..=...=.$...=.$=.=>.$....=.=..=..=....=.=.$..$.=.$............=..=.=.)....=........=$....=...=...=...=.=...",
"..)...=..)..).=..=.....=..=..)=..=.)..=....)..=......=...=.....$..=.$...=.=.=....=..=..).=..=......$....$.$.=.=.$=..=....=..=.).=.=.=.=...=.=..=.=..=..=.=....=."};
