/* XPM */
static char * bkg_south_xpm[] = {
"160 80 11 1",
" 	c None",
".	c #999999",
"+	c #888888",
"@	c #AAAAAA",
"#	c #BBBBBB",
"$	c #777777",
"%	c #DDDDDD",
"&	c #EEEEEE",
"*	c #CCCCCC",
"=	c #FFFFFF",
"-	c #666666",
"-$-$-$$$$$$$$$$$$$$-+$$$$$$$$$$$$$$$$$$$$$$$$+$$$$$$+$+$++..@@@#@@#@@@@.@.@@@@@@@#@#@#####%####%*&*#%*#%*%#%%%%%%*%*#%######@#@@@@@@@@@@@@@@@@@...@@@..@..@.@.@.",
"$$$$$$$$$$$$$$$$$$$$$$$$$$+-+$$$+$+$$$+$+$$$$$$+$+++$$+$..@@@@#@#@@#@@@@.@@@@@@@@@@@@@@#@@###%###%###%##%#%**%*%%*%#%#%##*#@#@@#@@@@#@@@@@@@@@.@@@@.@.@@@..@.@..",
"$$$$+$$$$$$$$$$$$$$$$$$$$$+$$$$$$$$$+$$$$+$$+$+$$+$$++++.@.@@@@.@@@@.@@.@.....@@@@@#@@@####*#@########%*#*#%*%*%%*%*#####@##@#@@@@@@@@@@@@.@@@@@.@.@@..@.@.@..@.",
"$$$$-$$$-$$$$$$-+$$$$$$+-$-$$+$+$+$+$+$++$+$$$$+$$++$$+.+..@@@@@@@@@@@.@@@@@@@@@@@@@@@@@@@#@##@###*######%#*##%#*#*#%#*##*#@*#@#@#@@@@.@@@@@@@@@@@@.@@@@@.@.@.@@",
"$$$$$$$+-+$$$$$$$$$$$$$$+$+$$+$$$+$+$$$+$$$+++$+$+$$+++.+$..@@@@#@@@#@.@@.@@.@@@@@@#@#@@@@##@#*@####*######**#%#%##########@#@@@@@#@@@@@@@.@@.@@.@@@..@.@.@.....",
"$$$$$$$$$$$$$$$$$$+$$+$$$$$$+$$+$$$$$++$$$+$$$$.+++++$-.+.+...@@@@@@@@@@.@@@@#@@#*@@*@#@#@@@@####*#@#@#@*########***##@#*@##@@@#@#@##@#@@@@@@@@@@.@..@.....@..@.",
"$$$$+$$$+$$$$$$$$$+$+$+$+$+$$+$+$+++$$$++$+$+++$$$$+++.+$$+$++...@@@@@@@.@@@@###@#@##@##@#@#*@@#@@@##@*###*###@######*#@#@@@#*#@*@#@*@##@#@#@@@#@@@@@@@@@@@.@@.@",
"$$$$$$$$$$$+$$$$+$$+$$$$$$$$+$$$$$$$$+$$$++$+$$++++$$+$$+.+.$+++..+...@....@*#*#######*##*####*###@#@#@#@#@@##*###*#####@*@#.#@@@###@##@*#@@*#@@@@@@.@@.@@.@@@@.",
"$$$$$$$+$$$$$$$+$$$$$$$.$$+$+$+$+$+$$$++$+$$$$+$++++++.$$+$.+..$+...+.+.....@###*%%%&%&=&%&%&%%%%%%%#######*@###@##@#@@#@#@@#@#@#@*#####@##@#@@#@@@@@@@@@@.@..@@",
"$+$$$$$$$$$$+$+$$+$+$+$$$$$+$+$++$++$+$+$$$++$+$+$$+$$$++$$++$$+++$++..@##@@@###*#*%%&%&=&=&&&=%%%%&%%%%*#####*##@*#*#@@#@#@@@*@##@#@#@*@#@#@#*@#@@@@@@@@@@@@@@.",
"$$$$$+$$+$$$+$$$$$+$$++$+++$$$$$$$$$+$$.$+.$$++$$+$+$$+$$.+$++$+$...++*%%&#@.@@#%%%%&&&&&&=&==&&=&&%**#*%##*###@###@##@#*@@#####*##*##@#@*#@#@@@@#@@@@@@@@@@.@@.",
"$$$$+$$$$+$$$$$$$$$$+$$$$$$+$+$$+$++$+$$$$$+$.$++$+++.+++$++$.+++++$.@&&=%#*#.@@%*&&&&==&===&=&=&=&==&&&%%%*&#*#@####*#@@#*##@@@#@#@*##@#@@@@@@#@@@@@@@@@@@@.@.@",
"+$$$+$$$$$$$$$$$+$+$$$$+$$$+$$+$+++$$$+$++$+$$+++$$+$$++++$+$++++$+$#&&&&&*#@.$+.#&%=&==&=&=&=&=&=&==&=&&%%*&*##*#*%##%##@##*#####@#@#*@#@#@#@@@@@@#@@@@@@.@@@@.",
"$$+$-$$+$$$$$$++$$+$$+$$$+++++$+$+$$+$++$+$+$+$$+++$$$+$+.$.$.++$.+@%%=&&%%#.+@#@%&&&&=&=&==&==&==&=&=&&&&&%%#%##%***%##%##@##*#*##@#@@@@@@@@@@@@@@@@#@@@@@.@@@@",
"+$$$$+$$++$+$$+$$$$$+$+$+$+$$+$+$$$+$+$+$+$+$++$$+$++.$++$++$++$@*%*%#%=&*###&=&%&&&==&==&=&=&=&=&==&==&=&&%&*%%*&&%%%*%##%#######*@#@##@#@@@@@@@@@@.@.@@@@@@@.@",
"+$$+$$+$$$$+$$$$+$$$$$$+$$$$+$+$++++++$+$+$$++$+++.$+$$.+$.+.$+.*&%*%*%*&&#%*=&==&==&=&=&=&===&==&=&=&&&&&&&%%%%&*&*%%%#%####*##@#@@@@@@@@@@@@@@@@@@@@..@@@@@@@@",
"$$$.$$$.$$$+$$$$+$+.$+$$+++$+$++$+$$$$++$+++$++$$.$+++.$+.$$@*#%&==&&&%*%#%#%=&=&=&=&==&==&=&=&=&==&==&&&%%&&&%%&&&%%**%#%%####*###@@#@..@@@@@@@.@@...@..@.@@.@@",
"+$$$$$$$$$+$++++$+$$$+$+$+$+$+$$+$+$.$+$+$+$+$$.+$++$$+$+$.@%&%%%&*%&&%%###%&&=&===&=&=&=&=&=&=&==&=&&==&=%%&&&%%**%%%%*%*##*#####@@#@@@@.@@..@@@.@@@...@@.@..@@",
"$+$$+$+$+$++$$$$$+$+$$++$$$++$$.$++$+$+$+$+$+++$$$.$.++.+++#*%&&%%*%&=*%*%*%&==&=&=&===&=&===&==&=&===&=&==%%%*####**#%*#%####@@@@@#@@@@.@@@@@.@@.@@.@.@...@@.@@",
"$$$$$$$$$+$$++$+$$$+$+$$+++$+$+$.$+.$+$+++++++$+..$.$$+.@+.#&&%%%%&%*#%#%*%&&=&=&=&=&=&===&&=&=&==&=&=&==&=&=&%%##*##%######*@#*##*#@##@@#@@@@.@@..@....@....@..",
"$+$+++$++$$$+$+$+$+$$++$+$+++$+++$$$+$++++$.$+.+++.+..@@@@#*%&&&%%%%#**#%%%%==&===&=&=&=&==&==&=&==&==&=&==&=&%%%%*%###*###@########@#@##@@@.@..@@..@.@...@..@..",
"+$$$$+$$$++$$+$+$+$.$$$+$+$$++.$$+@##@+.$+.+++..+.++..@###@*%%&&&&%#%#%*&%%&&&=&&==&==&=&=&==&==&&=&&&==&=&=&=&&%%&*#%###*##@*#@@*@@*@#@@@@@.@@@...@@...........",
"$+$$$+$+$+$$$+$+$++$$.+$+$.+$$$.#%&&%##..$+.++$..@...@@#%%*%%&&&%&%%#%*%%%%%&&==&=&=&===&=&=&=&=&&&=&&&&==&==&&&&&*####*#####@@#@@#@@@@@@@.@.@..@@.......@......",
"$+$$+$+$+$+$+$+$$$$++$++$+$$.#*%=***%#@..+++$++..@*#@@@####*%*%%%&&%%*%%*&%%&&&&==&&=&&==&==&=&&&=&=&&&=&=&=&&%%&*&%%####*@#@##@@###@@@@..@..@........@.........",
"$$$+$+$$+$$++$+$.++$+++$+$$+%%&&&&%###@..$.+.+.+.@@.@#@#@%#%*%%%%&&*#%#%%%%%&&&&&&&&==&=&=&=&=&&&&&=&=&=&==&==&&&*%%%%##%##*#@@@#@#@#@@@.@.........@..+.........",
"+$+$$$++$+$+$+$+$++$$.$++##%%*%*&*##*@@#@.$.$++.+.@.@#*###*%%%%&%%%*%*%***%%%&%%&&&&=&==&==&===&=&&=&%=&=&==&=&=&&&%*%*%####*#@*@@@@@.@...+@...@................",
"$$+$+$$+$$+$++$.$$+++$$+#&=%%*%#*####%###%#++.+++.@@@@##*#*%**%&%&&*%#*#%%*&*&%&&&&%&&&==&=&=&==&==&===&=&&=&=&=&&%%**#%*###@#@#@@@@@.@@..........+.............",
"++$+$+++$+$$.++$$+.$++$@%&&%*%*%#*##%%&@###.+$.$+..@@#@###%*%%&*&%%%%&#%**#%&%%%&%%&&&=&==&==&=&=&==&=&====&==&&%%&*%###@###@@@@@@@@.@.....@+........@...+....+.",
"$$.$++$$++++$++++$+.$$.*=&&&%%%*%*%&%%%@#@@..@..+.....@.@@#*%*%%%*&%%%%*%#%*%*&%&%*%&%&&&=&=&==&==&=&=&=&=&=&=&=&%*%@#@#*#*##@@@@@.@..@...+.......@....@....+..+",
"++$$+$+.+$+++.+$++$++$@%%&&&%&%%%%&%%%%##@..#%#.+.+++....@*#*%%%*%%%&%%%*%*#%%%&%&%%&&&&&&==&=&=&&=&==&=&=&&&&&%%#%##*##@#@#@@@@.@@.....@+...+.@.............++.",
"+$++$++$..$.++...$..++%%&&=&&%&*%%&%**#*#@@@*%#@.....+.++.@#%#%%%%%%&%*%*%%*%*&&&%%&&&%%%=&&==&===&=&=&=&==&=&&%%*%#####@#@@@@@@..@.@.....++......@@@....+.+..+.",
"$++$.$+++$++$+++..$$+#%%&&%&&%*%*%*%%%####@@%*##@.++.......###%%&%&%*%%*%#*#%%*&%%&&%&*&&*&=&=&=&==&=&===&=&&&&%*%#%#*@@@@@@@@.@@........++.............+..+++..",
"+.++$+++$..+..+++..$@&&%&&&%&&*%%%*%#*%#@#####%##@@+.@@.@@@@#*%%%%&&**%###%*%*#*%%%%&*%%&&&=&==&=&===&=&=&&&&&%***####@#@@@@@@.@..@.+.+....+...@....+...+.+...+.",
".+$++++.$.+.++...+++#=&&&&&&&%&**%*#%##@@##%######@@@@.@.@@#%**&&&&%%&%*%%*#%%*%%*%%&*&%&%&&&=&=&=&&=&&&%&&&%%%#*###@@@.@@@....+@..@...++.+...+.+.+..+.+.+..+...",
"+$.$$+++.+.+...+.+.+%%=%&&&%&&%&%%%*%**##%*%#@#*#@#@@@@@@@@*#%*&&=&&&%########%#%*%**%*****&&=&&=%&&%&%&%&%%%*%*#%#*#@@....+@........+....+.+.+.+..+.+.+....+@+.",
"..+.+$+.$++.+...+..@@#%&&%&%&%%%&%%#*##%%*%*%###@#@@@@#@#@@#%*%%%%&&&&###*####*#%######%%%%*&&%%%%%*%%%%%%%%#%####@@@.@.+.+.+.........+++..+...+..+.....++..+...",
"$.$$$+$+$+$$..+...+.##%%&&=&&&&%%%%*%%**&*%###@#@#@#@#@@@@%#@@##@##%%%%####*####%##*%#%##%#*%%*##*#%##%%%%#**%##@##@@.+..+..+.+....+....+..$+++...+++.+..+......",
".$+++++$++++.$++$.+@%%%=&=%%&&&%&%#%*%*%*%%%##*###@@@@@#@##########*###@#@##*###########*#%*%##%#%##**##*###%#*##@@.....+.+.+.+.+....+.+.++...++++...$+++.+.+...",
"$.+++$.+++$+$++++++#%&&&&&=%%%&&%%#%*##%%%*#*@#@*@@#@#*#@@@@@#*#%%%%#%#@@@#@#@#@#*##########%%############*#####@@@...+...+.++....+...+..++++..+.+.+....+..+.+..",
".$+$$++$+.+++$+$.$.*&&&=&=&&&&&%%*##%#%**%*%####@#@@@@#@@@@#@@##%&%%*###*#@@#@*#####*#*######*###*##@@@*######@@@@@....++..+.+.+.....+.+...+.+.++..++++.+.+.....",
".$+++$+++$++.++++++#%&&&=&=&&&&%&%*###%**%*%*#*###@@@@@@##*####**&&%%#####@#*@#@##*#####*#*##*#*#@@#*##@@###@@@@@........+.+..+++.+..+.+..+..+..+.+.++.+..+.+.+.",
"+$.$$++$$+$$+$+$++.%&%&&&&%&%%&&%%%%%*#%##%*%###@#@@@@.*##*%%%##*&&%*%%#*##@@@#@#@###*#@###########@@@@#@*@@@@@@.@......+........+.+..+.++.+.+.+++.++..++..+....",
"+$$$+$++$+++$+++$.%%&%&&&&&%&%%&&&%*%##%*#%#%*%##@#@@@@@#***%%&*&%*&**#%#@#@@@@@@@@@@@##@##*##@#@@@#@#@@##@@@@...@.......+++.+.+...+..+..+.+.+..+...+...++..+++.",
"$+++$$.+$++$+$.$+$@%%&&%&&&&%%&&&&&%**%##%**%#%#*#@@@@@@@#%&%%%%%%%*%#####@###@#@@@#@#@*@#@#@@@@#@#@#@#@@@@#@@@@.@+...+.....+....+......+.+..+.+.++..++....+....",
"+$$.$+$$$+$+++$+.$+.%%&&&%&&&%&%&&%%&%%%*%#*%*%####@@@@.@#&*%&*%&*%%**%##@*@@@@@##@@@@@@@@@@#*#@*@@@@@*@#@@#@@@@@.......+.+..+.+..+.+.+.+.+.++.+.......+.+.+...+",
"++$$++++$.+$.$++$.+@*&%&&%&&%&%&%%&&%%%*%##%*%##%*##@@@@***&%*%*%*%*%*###@@#@@#*@#@@@@@@@@@@@@@@@@@@@#@@@@@@@@@@@@@@.@...+..+.+....+.+.+..@..@@...+++.+.+...+...",
".$++$$++$+$++++.$+$.%%%%&%&%%%*%%%%%%*%#######*####@#@@@##%%%%%&*%%###*##@@@*@@@@#*#@@@#@#@@@@@@@@@@@@@@@@@@@.#@@@@@@....@.......@..@@..+@@@#@@#.....+..++.+.+..",
"$.+$.+$++++$++$$++++#%%&&&&%&*&%%%*%*%##%###@*##*%*#@#@@#%*%*%#%*##%####@#@@#@###@#####@@@@@@@@@@.@@@@.@@@@@@@@@@@.@........@.@@@@@@@@@@@.#@@@@@@@@.......+.....",
"+$$$+$++$++$.++.$$++.#%%%%&%%*%&*%*%######*@@##*#####@@@@%*%*%#######*##*@@@#@@#@@#*#@@*@@#@@@@@@@@@@@@@@.@@@@@@@.@.@...+.....@@.@@@@@@@@@@@@@#@@@....@....+..+.",
"+++$+$++++$+$++$$..+.%%&%%%%%*%*%*%####*##@@#@##@@@@#@@@#####*######@###@#@@@*@#*#@#@##@##@#@@#@@@@@@@@@@@@@@.@.@@@..@..........@..@..@.@@@@@@@@.@@.@.+.+.......",
"$$+.$.$$++.$+$+.@#@+#&%&&&&%&%%*%*%#####@#@#@@@#@@@.@@#@#####*#*@@@*@@@@@@@#@#@###@@#@@@@@*@@#@@#@@@@@@@@@.@.@@.@...@...+......+...+.....@@.@@............+.+..+",
"+++$$$++++++++++###*&&&%&&&&&%%%*%*#*##*##@@#@@..@.@#@#@*#*##@@@@@@@@@@@@@@@@@##%#*@#@###@#@#@@@@@@@@@@.@@@@.@@.@.@..+......+..@...@+@....@.@....+.........+.+..",
"$+$+++.$$$$.@@..%#%*%%*@@#%%%*%%*%%*#####@*@@@@@@.@@@@@#@@#@#@@@.@.@@@@@@@@@@#%*%*%%#%#*##@@@#*#@@@@@@@@@@.@@@@...@.....+.+..+.+.+......++...@@....+.++......+..",
"$$++++$+++.@@..@###%*#.@@@@@@@@%%*#*@##*##@#@@@@.@..@@@@#@@@@@@@.@@@@@@@.@@#@#*%*%**%%#####*#@@@@@#@@@.@@.@.@@.............+.+.+......+...@.@..@....+..+.+.....+",
"+++$+$+$+.+@@###*#####..@@@@@@...@@#@@####@#@#@@.@@@.@@@@@@@@.@@@..@@.#@.@@#@###*%%*##%%###@##@@@@@@@@@@@@@@@@@@@@....+.+...+.+..+.......+..@...@.......+.++.+..",
"$+++$.$+++..#@@##@@@#@...@@@#@@.@@.@@@@@#@*@#@#.@...@@@..@.@.@@..@@@@@.@@@@*#%#%%**#%*###*######@@@@@.@@@@@.@@.......+...+.+.+...............@...@..........+@+.",
".+++$+++.+..@#*@###@@@...@@@@@@@..@@.@@@##@#@@@.@..@@@@@.@.@.@.@.@@@@.@@.@####%*##%######@#*#*@#@@@@.@@@@@@@@@..@......+.+.+..+....................@+..+..+....+",
"++$$+++++++@##@#*@#*#@@@...@@@.@.@@@@@@@@#@###.@@@..@...............@@@@@@@@#######%#%#*####@##@@@@.@@.@@@@@@..@@....+..+...++...+...+.+@.....@............+.+..",
"....++++++.+@##@##@@@#@##...@@@@@.@@@@@@@*##@@..@....@.............@@@@@@@##*%##@@#@#@###*####@*@@@@..@.@@@@.@.@...+...+.++...+....+....+..+.+....+.+..+.+.+.+.+",
".......++++..@@#*#@#@@#@#@@@@.@@..@.@@@#@@*#@@@@@@@.....@........@..@#.@@#@###@@@@@#@@@###*#*##@@@@.@.....@@@@..........+..+.+.+..+..+.........+......+...+.+.+.",
"......+.+++..@@@@#@@@@*@...@.@.@.@@.@@@@###@@@.@..+@.@@.....+.++..@..@@@.@.@#@@@@@@#@#*#####%##@@.@.@.....@.@......+++.+.+...+......+...+.+.+..+..+.....+@+...+.",
".@@.....+.+..@##@@@#@#@.@@@.@.@.@..@..#@#@@@@@.....@.+.+.+.+.+....+...@.@@@@#@@@@@@@@.#*######@@@.@..+...........+....+.+.+.+.+.+....+.+....+++.......+..+.+.+..",
"..@@.......+.@@#@#@@@@@@###@@@.@#@@.@@@@##@@@@@@@.@......+...+.++...+.....+@@#@@@@@@..@##*###*@@@@.....+......@+.+..+...+.+.+..+.+...+.+.++..+.+.+.+..+.+....+.+",
"+........++..@@@@@@@###@#*#@@@@@@@.@#@@*@@@#@.@@.@.+..+.+..+..+..+...........@@@@#@@@..@@#@@@@@@@........+...+...+.+.++..+..+.+.+.+.+.+.+...+.+.+.+..+.+.+++.+..",
"...........+++.@@@@*@#@*#####@#@@@@@@@#@#@@@@.@@......+..+.+...+.+.....+..+.......#@@@@@.@@@@.@.@........+.....+...+...+..+..+..+.+.+...+.++..+.+.+..+..++...+.+",
"+.+......+++..@.@@@@#@####*#*@@#@@@@@#@@@@.@@.@.@@....+.+.............+..........@.@@....@.@@@.@@.@...++.+.+.++.+...+.+.+.+.+.+..+..++.+.+..+..+$.+.+..+.++.+.+.",
".+.+.+.+++.+++..@@@@#@@@@###@##@@@@@.@@@@@@.@.@.....+.+++++.+..@@......+.+++.+.+...@@....@@.@.@.@..+...+.+.+..+..++.+.+.+...+..+..+..++.+.+.++..+..++.++..+...+.",
".+.++.+.+..++.....@@@@@@@@@#@*@@@..@@@@@@..@........++....+........+...+....+.+..+@........@..@.@.@..+..+..+.+.++..+...+.+.+.++.+..++.+.+.++.++..+.+.+++...++++.",
"..+.++++.++..+...+..@.@@@@#@@@@..@@.@@@.@.@...@..@++..++.+..+...@@.+..+.++..+.+.+...@............@..@.+..+..+..+.+.+.+.++.+.....+++++...$...$+..+.+....+.+....+.",
"++.++.+++..++.++.......@.@.@@..@@.@@@.........+..+..++..+..+.+...+....+..++.+.+.+.....+.+..........+..+.+.+.+.+.+.+++$..++.+++++.+++.+++.+.+..+.$+.++.+.+.+++.+.",
"$+$+$++++++++++.++...........@......@.@........++.++.+++.+...+.+@...+.+..+.+++..+.+.+.........+..+..+.++..+++.$+$+.$.$+.++.....+.+.+.+.+.+.+...+++..+.++$..+..+.",
"++.+.$++..+$.+......+@..@.......@......@.....++..+.+.+.++.+.+.+.+.++.+.+++++.+.++.+..+..++.++..+.+.+.++.+.$+.+++..++...+.++.+++.+.+.++..+.+...+..++.+.++.+.+.$+.",
"+.++.+++@.@+.@.....@......@.......@++...+++.+.+++++++++.++..++.+++.++++.+..+.++.+.++.++..+.+.++.++.++.+.+.$+++.++.+$.+++$.+...++++$+.$+.+.+.+.++$.+.+++.+..+$.+.",
"+++@+.+..@..@..+...@..@@.........+....+.+.+.++.+.+++++.+.++.++.++.++.+.+++..+++++.+++.++++.++.++++.+++.+.+...++++$..+$.+.++$$$+.$+++.+..-.++++.++.$$+++.+++.++.+",
"++++.++.....@...@......@@@.@........+.++.+...++++..+..+.+.+++.$++++.++.+.++.$.++.$++++++++++++++++++$+.+.+++.$+++.$$.++.$.$..++.+.+$$++++.+...$.++.+.+++$++.$+$+",
".+..+.++........+..+.+..@...@.........+.....+..+.+.+.+.+.+.+.+.+++++.+++++++++++++.+.$.+$.++++.+.++...+.+..+++++$.++++$$.$++$++$++$.+++$++++$$++..$++++++.+$++..",
".++++..+.++.+@.....+.+.+...+.++.+...+....+.+.....+.+++.++.++++..++++++.+..++.+.+.$.++...+..+$.++..+++.++.+$.+.++++$.$+.+.++.$$.$+++++..+.$+...++$++.++.+.+...+.+",
"++.+$+$++++........+.++.$.$++.++.+.+..+.+..+++++..+..+$.+++.+++++.+.+.+++++.++.+$+++.$++.+.+.+.++++.+..+.+.+++$++..+++++++.$..+++...+++$+.+.++...+++.++.+.++.+..",
".+++.$++++.+.+..+.+..++$.+++.++++.$.+.+.+.+++..++++.++.++.+++.+.+.+++++.++.+$+.+.+.++++.+.++.++..+..++.+.+......+++.+.+$.+$.+..+.+++.++...++.++.+..+..+.+..+.+.+",
"++++++$+..+++.+..+.++.++++.+$.$+$+++$++.+++.++$+.++++.++.+++++.++++++++.+++$.+++.++++++.++.+$+++.++++..$+.+++.++.+.++...+.++.+++...+.+++.+..++..++.+.+.+.+..+.+."};
