/* XPM */
static char * close_left_bright_xpm[] = {
"50 160 16 1",
" 	c None",
".	c #DDDDDD",
"+	c #222222",
"@	c #EEEEEE",
"#	c #CCCCCC",
"$	c #111111",
"%	c #BBBBBB",
"&	c #AAAAAA",
"*	c #444444",
"=	c #888888",
"-	c #666666",
";	c #999999",
">	c #555555",
",	c #333333",
"'	c #FFFFFF",
")	c #777777",
".+++++++++++++++++++++++++++++++++++++++++++++++++",
"..$+$+$+$+$+$+$+$+$+$+$+$+$+$+$+$+$+$+$+$+$+$+$+$+",
"...+++$+++$+++$+++$+++$+++$+++$+++$+++$+++$+++++++",
".#%.$+++$+++$+++$+++$+++$+++$+++$+++$+++$+++$+$+$+",
".#.#.+$++$++$+$++$++$+$++$++$+$++$++$+$++$++$++++$",
"..###.+$+++$++++$++$++++$++$++++$++$+++$++$++$+$++",
"%.##.%.+$+++$+$++$++$+$++$++$+$++$+++$++$++$++++$+",
"#@%.##..+$+$++++++$+++++++$++++$+++$++$+++++$+$+++",
"###.%#...+++$+$+$++$+$+$+++$+$+++$++$++$+$++++$+$+",
"...#%.@.#@$++$+++$++++$++$+++++$++$++$+++++$+$++++",
"...%##%#-@@+++$+++$+$++$++$+$+++$++$++$+$$++++$+$+",
".#.%&;%&*@@@$++$+$+++$++$++$++$+++++$+++++$+$+++++",
">##%&&%&*@.@.++++$+$++$++$++$+$+$+$++$+$+++++$+$+$",
"*>%%%%%;*.#%..+$+++++++$++$++++++++$+++++$+$++$+++",
"&--;;%.;,@#%&.@+$+$+$++++++$+$+$+$++$+$++$++$+++$+",
"@@---&.%*@@#..@.+++$++$+$+$+++$+++$++$+$++$+++$+++",
"@@.=*-&&*@@....#@$++$++++++$+++$+++$++++$++$+++$+$",
"@..#;>,**@.....&.@$++$+$$+$++$+++$++$+$++$+++$++++",
"'@@@.#-*,.@..@.%%#@$++++++$+++$+++$++++$++$++$+$++",
"@@'@@&.%>%%@...%%&.@$+$+$++$+$++$++$+$++$++$++++$+",
"@@@@@@=..%>&@....%.#'++++$+++$+++$++++$++$++$+$+++",
"@@@@@@@.@@&*;..#...&..+$+++$+++$+++$+++$+++$++++$+",
"@.@@@@@@@@@&,-@....-#.@+$+++$++$+$++$++++$++$+$+++",
".%#...@@@@@@-*-...@*#..@+$+$++$+++$++$+$+++$++++$+",
"@%#.@.@@@@@@@)>*...*.#.@@+++$++$+++$+++$+$++$+$+++",
".%#..@@.@@@@@.%**.@,.##@.@$++$+++$+++$++++$+++++$+",
"@%.#..@@@@@@@@.%-*&*#%.@@@@$++$+++$+++$+$++$+$+++$",
"@.#..@@@@@@..@%@@)**%.#...@.$+++$++$$++++$++$++$++",
"@##..@@.@.....=@@@&*;%@#@##..+$+$++++$+$++$++$++$+",
"@#-##@@.....#%=@..@#-%.@.##%#.+++$+$++++$++$++$+++",
".@.*;.@.@...%#=@@...#=#.@...##.$++++$+$+++++$++$+$",
".@@.=-@@.@#.%#=..@#.@.%#..#.##.@$+$+++++$+$++$++++",
".#@..%*&.%&#%.=@.@....@%=%.#%@;@@++$+$+++++$+++$++",
"...%..%*>;=%%%-.@....#@@#-..%&-.#.$+++$$+$+++$++$+",
"..#%...&,,>%&%*%.@.@.##.@#=.%&=.=..+$++++$+$++$+++",
"@@#&.@..@-*>-=>&%.@%@.#...;*%%=@#.#@+$+$++++$+++$+",
"#.##...#.@.;***%...#....@#.&-&=@..%%@+++$+$++$++++",
"#%%#######@.&=>.....#...@%#@&**...##.@$++++$++$+$+",
".%;%#.###..#&#.@&...#.@@@#=@@.&)@.#.%#@+$+++$++++$",
"..##.#..#.##%%..%&;.#....@=@@...*#..&.@@+$+++$+$++",
"##%%#..........%@--=#...@.&@@@@@#*&@;#@..+$+++++$+",
"#%#%.#..@#@#&.@.@#&*%-....%#@@@@.#*)=#.#..++$+$+++",
".%%#@..@...%#@.@.;.'==%...%#.@@@@.@-;#...#.+$++$+$",
"#%%%###@......##.=.@@@&%.&&%.@@@.#@@%%..%%#@+$++++",
"=&#%%%%..@.......=%@@@@%-*=..@@..%@.@.%##%>%@+$+$+",
">-&###%#..@.@@..@).#@@@@@&%.#@...#.@..@-.;*%#.++++",
"*>-=%.##.#@.@.@@@=...@@@@@@.-@@#.%@..#@.>;-.##@$+$",
"#;-**=&#..#.@@@@.&%..@@@@@@@.-#&#&@.....%**....@++",
"..@.=*--;##..@@@@%;.@.@@.@'##.,*%=@....#@.;-@..@#+",
"....@.&*->-.@..@.&;.@.@@@@#@%@.=**@.#.@.@@@%*@%...",
"..##...@#&=&#%##.=;@..@@@@&.%.#@%%%..@.@@@@@&*%@.@",
".%.%.%..@@@#>&.#.==@@@....%####.%#@-;#@#@.@@..=.#%",
".#.#.#..#@@@@=*-.=-@@.@@@.;###..%@.&*;..@.@#=#@-.%",
"@.#.%#@.=@@@..#;>*&@##..@.&.%#@.;.@>@@=>@...-@#@*#",
"%.##%.#%>@.##.@..&#@&;...%.%#.@.&..*@@@&@#.#-.#.@>",
"#.####%&,@#%%.@#..@@@&->>=.#%%.@..@*.@@@.%&%*..@'%",
"#..%&;&&*..%...&%#@@@@.-**%&%##@..@>#@@@..=*-...@@",
"...%&&%;*@@....&%;#%..@@@=**;##..@@-.@@@...#@&...@",
".#.%%%%;,@@..@.#.#.=#.@@@@@&->=&@..-.@@.#%#%#;-..@",
"...%&%@%*@.....#...>###@.@@...;-%%%>@@.#...%.;@-@@",
"*-%;=&%&*.@@.@...@.*....@..###.@.>%*@#@.#.@%.=.@@-",
"*>*--=-**#%@@.#...@*.%....%%#..@@.&>#&.-#.#@.=@@#@",
"&#;-,****&**-;....@,##..@#....&.%..@@%*>=%#.@-..@%",
"@@.%##%%..&-*,>,-&#*%%..@.#.##-#=.%%.@@&*>%.@-.@#.",
"@.@@@&&..@..=-=>,***;#...#.#%&=@#.%###@@.@;&.*.@#.",
"@@@@@@.@@@@@..##%&=--=%.%%@#%%=@.@..&#@..#.@==;&#%",
"@'@'@@@@@'@'@.#@@@..#.%&>-%.#%=@....;%...#;#@.@>*%",
"@@@@@@@'@@@@@@&@....@@'@@#-*=-,=%..@;..#%%*&.#.@.;",
"@@@@.@.@@@@@..=@@@#.##...@..=>&%***);...#&*.#.#@..",
"@#@...@@.@@#.%=@.@..@##..#.@.&...&--*;.&.&-...&@..",
"@##.@@@@@.@.##=....@.##.@#&@@@'@@.@@@@.;*=,%@@#.#&",
".%#..@@.@@..%#&@@....@.@.#=@@@@@@.@..#@@&=#=,*%...",
"@%.#..@@#...%#=.@@.#.#.@@.&@@@@@#%@@...#.@@@...&*-",
".%#..@@...##&%-%%..##.....%#..@@.%@.....'@@@%#...@",
"@.%..@@@..%##%>&#@#@#...@#%..@@..%@@#..@@.@#-.#.@@",
"@@###.@@@&=%;=*%....#@....%%#@.#%%@.#...@@@.=@.@@@",
".&*>>--)=->;-**...&##;.@.&-@#@.##=...@.#@#..*...@@",
"@@@#.%=*,,*---=@===>%)%%&*&.;%#-%*@.%&@%@..%-.@..@",
"@@@....##.#%%%..@====%#=)&@@.#**-=.--&&*@>>-&;-.@@",
".#.#...#..@#;%#%@%.@@@@@'@@....@%..&@@@@...%#;.#@%",
"...%.@.###.##@@..=@@@@@@@@@.%@#.&@.>@@@@.#.%.;@@..",
"..#&..#.#..##@.@.=%.@.@@@@@@%##.%.#*.@@@..%#.)@@.%",
".@#%.#%##...&..#.=...@@@@@;@#...;@@*.@.@#..%.=.@#@",
"@@%##.....@%#@...=#.@..@.@%##..@%.@*.@@@.#@.@-@.#.",
"###%.#.....#....@;##@.@@@.&#%#@...@-.@.##.#..-@@.#",
"%%&#.#@...@#..@@@&=.@.@...;.#..@.@@*@@@#.%..@*#--=",
".#%%.#.@...@@.@@.%;.@...@.#%%%#..@.*@%@-=&=&;-%&#@",
"#.%%.....@@@@.@@@&&@@@.@@%.#%###@%#>%;,**).@.@.@..",
"##%#.#%.....@@@@#;=@@#..&=.;&;=*&-*>@@@......#.@#%",
"#&%##%%##.#.@@##.=-@###-**-*>*;@@%.@@.@@#.-&..#@#%",
".%%%%.#%..#..%##.-&#&=>*-=##@..@@@#%.....%*..@#...",
"#%##%.%#&;-%%#&-->%@@@@@@@@.##.@&.%#%.@.%%>..@#%;>",
"=;;&===-*-=&>-=;&%@'@@@@@@.%##;#=.#.&%#.#&-@=,=.&=",
"**-***>-%.@@@#..@@...#.@...#.@-@..#.;..#.;,*=.@.@@",
"**=&#.@@@@@@@.@##%#&#..@..#.#;)@...@=.@=**...#..@@",
"..@@@....@@.%..&&;@-##..@##.%&=@...-=-%#%.@@&..@@@",
"...#.%..;'.%#..%.#.>.%......%%=#=>,-.@@@.'@.-...@@",
"...%.#@.*@#%...%...,.%...#.#%%*=-=#@.###@.@.-...@*",
".#.###.%*..#.@@#.@@,.#@.@%##=*&.@.@...@.@@..>.&%@@",
".##.%.#;*.@@...#..@*%#..=-=*-#.@@#@@@#@.@.@%-&=@.#",
".#####%&*@.......@.*;&%=&#%@.%@@@%...#...@.&.;@@..",
"..##%=%=,@@.@.@.%-*,-&#@@@..@'@@%#@..@.@@&,&%;.@#.",
"%..%&&%&*.@@@%)***-%.@@@##%@@@@@.#'#...-.@.#@=.@.%",
"##.%&%.%>.%=****;%..@.##.#-'.@@..%@..=%=@#.#%)@@#%",
"#..%%%.=,%***-&#@@@####@..&@.@@.%=@#=&.@...&@-.@;>",
"...%;&=**%&#&..@..#.@##.@.&#.@.#%-.-&@@@.#.#@-.*=.",
".#.&=-*-%@@@.@%@.@..@..@@.%%#@@;=*@&@@@@#.@.@*=@.@",
".%;=**=#.@@.@@;@@@.......#%%.@#,;.@*@@@@#.#..=@@.&",
"*>*>-#..@@@'.@=@...#...@..;@#*,#%.@*..@.####>..@%%",
"*=&%.&&@@@'@.%)..@.......&;#&...%@.>.@...%-.@##@.&",
"&@.@@@@@'@@..#;@@@..#..@.*#@..#.%.@*.@@;=>@@..%..;",
"@@@@@@@@@@@.%#;.#.#.####=;@.#.#.;.@-@.@-*.#&#.%&-+",
"..@'@@@@.@..%#-%%...#-%-.@@.&#..%.@-@#*-..-.#@;@$+",
"'@@@@.@.@.@.%#>&.@%&%=.'@@@@#..@@@.>.=#@.%>..*.+++",
"@'@@..@@@...&%*%..;*=@@@@@%@%.@..@#>.@@..%*@*@+$+$",
"@@@..@@@..##%;>.=->@@@@@@@&##....%#-@.@.%;-*#$++++",
"@....@@..@%%=-*@.%.@@@@@@.%.%##@@%=...@##&,.++$+$+",
"@##@..@@.%=#**#.@&@@@@...@=#%%#=)&@%##...-.+$+++++",
"@#%.#@@@.;>*=%.%.=%#.@@@@#%#%#==@.##&#.%*%+++$+$+$",
"@%##@@@.%**&%##@.=#.@.@.@..%%-;@@.%.;#@-%++$++++++",
"@%..#@#>,*##=..@.=.#@@..@%@=>#.@=.#.=.=@+$++$+$+$+",
".#%#&-**&@@##@...;#...@.@-;,@..@&@.@=;@$++$++$++++",
"@@#--%%@...#%.#..;)@.@.@-*-##.=.#.#=-@+++++$++$+$+",
"@%>%@.@%##..%@..@%;@@..&*=@@#.-@..--@++$+$++$+++++",
"@#@....##..#%@.@@&&@'#&*@@@%..=@@-*@+$++++$++$+$+$",
"@@@#.@.##.@%.@@@@&;@#=*.@@#.#;=.*-@+++$+$++$++++++",
"@..%#.%#.#@#@.@@.==.&%@@..%.#%=-=.++$++++$++$+$+$+",
"...&..#..@...@@@#=)@@@@@@..#%%,#.+$++$+$++$++$++++",
"..#%......@@@..#.-%@'..@.###%;&@+++$++++$++$++$+$+",
".@###..@....@@##%>@@#.#.@..#&*.$+$++$+$+++++$+++++",
".@%#.#.@.@..@#.-=#@%#....#@;*%++++$+++$+$+$++$+$+$",
"..&###....#...*;...;#....&&>#+++$+++$++++++$++++++",
"#%&#..##..#.&>%.@%.-#%..#-)@+$++$+$++$+$+$++$+$+$+",
"##%&@#%#.#-&=%@#%&#*..@@-#.$++$+++++$+++++$++$++++",
"..%#.%.%#-=.@.@&%..,#%#;.@++$++$+$++$+$+$++$++$+$+",
".#%%%#%%>=.@...%..@*%%&@.+$+++$+++$+++++++++$+++++",
"#%#%%.&*=@@@&..%.@.*;-.@+++$+++$+++$+$+$+$+++$+$+$",
"%%%##--&@@@%.......*-@.++$+++$++$+$+++$+++$+$+++++",
".%%%>*%@.'.%...#.@>*#@+$++$++$++++$+$++$+++++$+$++",
"#&=-*.@.&@#%.....>*.@$++$++$++$+$+++++$++$+$++++$+",
"=->=@...-@..@...**#.+++++$++$++++$+$+++$+++$+$++++",
"**&@.%..,.@...@**.@$+$+$++$++$+$++$++$++$+$+++$+$+",
"*%@..#.%*@@.@#>*#@+++$++$++$++++$++$++$+++$+$++++$",
"..##.#%;,@.@.*-#@$+$++$+++++$+$++$++$++$+++++$+$++",
"...#%@%&*@@#**#@++++$++$+$+++++$+++++$++$+$+++++$+",
".#..%#&;*.%*>%#+$+$++$++$++$+$+++$+$++$+++++$+$+++",
".##.%&%&>.>=#@+++++$+++++$++++$++$++$++$+$$+++$+$+",
".###&&#%,%&.@$+$+$+++$+$++$+$++$+++++$+++++$+$++++",
".###&%.-*#@@+++$++$++$++$+++$+++$+$+++$+$+++++$+$+",
".@.%&%&,&.@$+$++$++$++$++$+$++$++$++$++$++$+$+++++",
"%#.%&&-=.@++++$++$+++++++++$++$+++$++$++$++++$+$+$",
"#..#;->#@+$+$+++++$+$+$$+$++$+++$++$+++++$+$++$+++",
"#.#%-*..++$++$+$++++++++++$++$+++$++$+$++++$++++$+",
".#.=*#=+$++$++$++$+$$+$+$++$+++$++$++++$+$++$+$+++",
".@)*%&+++$++$++$+++++++++$++$++$+++$+$+++$++++$+$+",
".*>&@$+$+++++$+++$+$+$+$++$++$+++$++$++$+++$+$++++",
"**#.+$++$+$+++$++$+++$++$++$++$+++$++$++$+++++$+$+",
"*.@$++$++$++$++$+++$+++++$+++$++$+++++$++$$+$+++++",
"%@++$++$++$++$++$++$+$+$+++$++$++$+$+++$++++$+$+$+",
"@+$++$+++++$++$+++$++++++$++$++$++$++$++$+$++++$++"};
