/* XPM */
static char * close_left_xpm[] = {
"50 160 9 1",
" 	c None",
".	c #000000",
"+	c #222222",
"@	c #333333",
"#	c #111111",
"$	c #444444",
"%	c #666666",
"&	c #999999",
"*	c #555555",
"+.................................................",
"@@................................................",
"+@$...............................................",
"+##@..............................................",
"+#@+@.............................................",
"$+##+@............................................",
"#++#+#+...........................................",
"#$#++#$@..........................................",
"++#+#+++$.........................................",
"++@##$@@#%........................................",
"+++#.+#+.%%.......................................",
"@++#..#..&%%......................................",
".++##.#..@+$@.....................................",
"..##.##..@+#+@....................................",
"#....#+..@+##@$...................................",
"&$...#@#.$%#++%$..................................",
"@%+....#.@%@@+++@.................................",
"&@$+.....$@@@+@.@$................................",
"&%%%@+...+%+@$@#.+$...............................",
"%&&&%.$#.##$@+$##.@%..............................",
"%%&&%%.++#..$$++@#++&.............................",
"@@%@%&@$@$#..++++++.+%............................",
"$+$@$%%&%%+#..$@+$@.++@...........................",
"+++@+$@%&%%$...@@@@.#@$%..........................",
"$##@@$$%%&&%@...@$$.+++%%.........................",
"@.+$@*%@%%&&$@#..+$.++#$@%........................",
"%##++$%@$@%%@$+#....+#@$@$%.......................",
"@@#++@%%$%@@$%#%@...##+@$+$+......................",
"$+++$%@$@$@+++.%$%...#$+$+++@.....................",
"%#.##$&$+@@++#.&$+$+.#@@@+##+@....................",
"$%+..@%$@@@@##.@$$+@+.#@$+#+#+@...................",
"@@%$..@%+$#+#+.@@$++@$#++++$#++%..................",
"++@@@#.#$#.##+.&@@@@+$%#.#++#@.%%.................",
"+@@#@+.....#.#.+%@@@@#$&+.++#..++@................",
"@@+#+@@#...+.#..@@$@@+#+$#.+##.@.@$...............",
"@$+.@$@+$......##@@#$++@+%..##.%++#$..............",
"++##@++++%+.....+++++++@@+@..#.%+@##&.............",
"+##+#+##++@+#..@@$++++@$@#+%...+@++#+$............",
"##.#+++#++@###@%.@@++@$%%#.$$+..%+++#+&...........",
"++#+++++#+++.++++..@#@++@$.&&+@+.++@.+@%..........",
"+####+@+@@@++@+#%...++@@@@.%%&&$#..$.+$$+.........",
"####++@$@+@+.$$+@+..#.+$@+#+%@%&$#...#@++@........",
"+#.++@+%+$@#+@+%+.@&..#@@@.+@@%%&+$..+++++@.......",
"####+#+$$+@++$++@.@%%%##+.#.@%%@++$%##@+###%......",
".#####.++@$+@@++$.+@%@&....++@$$+#%+@@##+#.#@.....",
"..###+#+@@$@%@$@@.++$$%%&.#@+%@@+++$@@$.+..#+$....",
".....++#++$$%$%%%.++$@%%&%%@.$$#+#%@@+@@...@#+%...",
"+......#+$#+*@*$@#.+$%@%$%%$$.+.+.&@++$+#..$+++&..",
"+@$+.....#++%$%%%#.+$$@%@%&#++..#.$+++$+@+..$@+$+.",
"$@+$$@#....$@$+%@..$@$%@$%+$#$+...%@+@@@&%%#.$#$++",
"+++#+@@%+#.###+#+..%$$$%@%.%.++@###++$$$%%&$..#$$@",
"+#+++#$+$&@+.#+#@..&*$+@$+#+++++#+@..+@#$+%&+@.@##",
"++##+#@++%%%%...@..&&@$@%+.###+@#$@#..$$$+%#.+%.+#",
"$++@#+@@.&&%@++...#++#@$%@.+#+$@.@@.%%..%@+@.++@.+",
"#@#+.$+#.%+#+$%$+.+@#.@++#+##@@$.@@.%%&#@+++.@++&.",
"#++##+#..@###+@+@%$&&.....@###@@@@$.+%%&$#.#.++%&#",
"+#+#..#..@+.+++###$@&%$...#.##+$@$%.+@%%++...+@+%$",
"+++#.##..@%@@@@.#.+#++@%%....+#@#$@.+$@%@+++%#+++%",
"@++#####.$%+$@@#++@.+@$%%%$#...#%$$.$$@$#####..@@%",
"@@+#.#@#.@$@@@@+@+@.+#+@$@%@@$..###.&%$+++@#$.%.@%",
"..##..#..$@$@@+++$@.+++$$++++++%+.#.%#@@++@#+.@&$.",
".........+#%$@+@@@@.+#@@$+###+@&%+#.##+.#++@$.@$+$",
"##............++@@%.+#++$+++++#+#@@$&#..##++%.$@%#",
"&%+##+##+@#......##.##$@@++@#+.+.+##+$%#..#@$.$@+@",
"$@$$@#.+@$@+.........++@@+#+#..%+@#+##%%+$..+.+%#@",
"&%%&&%+%%%%%$@+##.....#@##@+##.%+@++.+@++++%....+#",
"&&&&%&%&%&&&@%#%$%$@++##..#+##.@$++$.#$@++.+%$&..#",
"%&%%%%@%&&&&$%#%$+@#$%%%$+......#@@$.+++##..#++%+.",
"%*@@@$@$%@%@$+.%@$+++++@+%@+..##.....+@#+..++++$+$",
"$+$@+$%+@%@+++.%%@@@@+++@#+$@#+$+#....@.@#.@+@#@@+",
"$+#@$@%%$$@@##.+$@+$$#++$+.%&%&%%+%%$@$....#$@+$+.",
"+#+@@$%%@$@+#+.&$@$+@@+@%+.&&%%&&+$+@+$%#.#....+++",
"$#+++@%$+$+@#+.+%$@++++$@$.%@$@@##%@@++#$%%$+$@#..",
"+##++%%$+@#+.#.##+@+#@$@$+.++%%$+#%@$+@+&%&&##++@$",
"%@#+@@&$@@####..+++@++++$+##@$@@+#%@++$@%+$#.@#$&@",
"$+++#$%$@..#...#@$+++@$@@+###%$+##&++$$$@$%@.@@%%$",
"$..............++$.++.+@$..$+%@##.@@+@@+$#@+.+@+$%",
"%%$++#.........%....#.#+...+.#+.#.@+##@#%@@#.+@@@%",
"@%&@@++++++###@+%....##..#%%+#....$..#..@...#..+$$",
"@#+++@$#++%+.#+#$#$&%%%&&%%$+@@$#++.&&&%$@+###@+%#",
"+++#+@@#++++#$@@+.%@%%@%&%*+#@++#%+.$%&%+++#@.$&++",
"+$+.@@#+#+++#$$$@.#$@$%%@%%$#+++#@+.@@%%@+#++.%$@+",
"@@+#++#+#+@+#@++@.++$%@%$%.%#+@$.$$.+$@%+++#+.@$#@",
"@$#+#+++++$##$++@.++$+$$@$.+#++@#+$.@$%@#+@@%.$+++",
"+#.+#+@@@@@++@+@%.#+@$%%@$.+#+@$@@%.+@$++@++$.$%++",
"##.#++@@@@++@%$%$..@%@@@$+.#++@$+%%.%$@++#+@@.+...",
"++##++@%@@@$%@@%%#.@@$@@%++####++@+.&+@....#..#.+$",
"++##@++@+$$@%$%%$.#&%$@$%#@.#+++%#+.#.....+%+@$$++",
"+###++#+@@@+$@%%+..&&++@#.@.........%$@@+++$+++$@#",
"+.##+##+#+#@%@+#+..$##+........@%#+@%@%$++..+@+$##",
"+.##.+##@@#@$#+#@..+......++$$@&$$+#++@@++.++$++@@",
"+###++##....#+....#%&%%$%%%++#+$.+##++$+#..@$@##..",
"...........#....##@&&$@%@$$##+.+.@++.#+++#.$...$#.",
"........#@$%@+@$@$$+++$%@@##@$.$+@+@.+++@....@%+%%",
"...#++$%@%%%$@%++#+.+++$$++@#..%+@+$.+$...+$++#$%@",
"++%@$@+@@%&+#@@...@.+++@$#+###.%$+@...#+#+%&.@+%$%",
"+@+++#@+.&+##++#+#@.+#@+$+++##.#....+%%@$&%+.@+@@&",
"@+++++@+.%+#+@@#@@@.+#+$@++###....+%@#++&$@@.+@@%.",
"+++#+#+#.+++@@$#@@$.++@+@#++...@$+%+++++%$%+.+##%$",
"+#++#$+..@%@$@+++@$..++$.....+$$%+$$$+@$@#@#...&++",
"++#+###..$%++@@+$@+..#..###$##&&%#$@++$+%$$#@.$%++",
"@@###.#..$@@$+@@#.....+%%%+@&&*%##%$+$@@%#..#.@%+@",
"#@+##.#..$%@%#.....#+%%@++#%&%$%+#&++$$.@$$#%.@@+#",
"#++#.#@#.@#......#+@$+++@#.&$@%+@.%+$.+.$#+++.$$+#",
"+++###+..#....##$%$+++#+$+.$+%$@#.$+..@&++#.@.@%..",
"++++.....#.+.++%$+++$#+$%@.+@@@+#.#.#%&%@+$+%.+..@",
"@++.....#@@$$@#%@$++$++@$+##+%$...%.%%%%##$+$..&@$",
"+#.....+@$%%$%.&$$+$@+$$@+##+@+.#+$.@*$@+++@@.%$+.",
".....+#+%%&&%@.$@@$#++@@@+.$+..##@$.+$%@++#+.@@@##",
"..##+.#%&&&%@+.+$%$++@@+@#.+.+++#$+.+%+@##.@%++$+.",
"#@$@%%%&&%*+#+.%%@@+++@$+.+%@$+@#@$.+$%...%%#@#@@#",
"&%@&%&@%%%$+#+.+++#+++++..@+#+++.@%.$@$..$+.++##..",
"$$%&%%@$@@@@##.##$+$#.#.$&%@##+@++%.&+..++.++@#@..",
"&%&&@$@$$$$+##..+@..#.@&%%&$#+$$@$%.$.+%+#.+$.$...",
"&&%$@$%%@$++##.#@@...&%&%%#@+#@$+%#.@%%@+#.$.@....",
"%%@@$@%%@@#+#..@...&%$@%+%.##@@+@##.&+%+#...+.....",
"%@@@$@%@@$.#...%@#+&%$%%$$#+#++@@#.$++$++..$......",
"$++@+$@$@#.+..++%.%$@%+@%$.+.#+...$#+++++.@.......",
"@+#++%%@$.....+#@.#+$$$%@+.##+..%$##.+@#.#........",
"@.++@$&$...##+++@.++$@%+$@@#+..%$+#+.+@.#.........",
"$#+++@#...++.@$%$.++$@$@%.@..+@&.++@.+.%..........",
"@##+#....%@+#%@#@.++$$$@$...%++@.$#$..&...........",
"%@+..##@++@+#@#+$..@@@$$...+++.++@+..%............",
"@#.#$+$#++++.$+@%#.%%@@...%@++.%+@..$.............",
"$+%+@@@+++@+++@%@#.&&+..@$%#+@.&@..%..............",
"%%%++@#+#@@#@$@%$..&#..@&$#++..@..%...............",
"@@+#+@##++@#$$%%@..@##%%@@#++#...@................",
"$++#@+++@$@@%@%%##.@&%+%$++#.#.+$.................",
"+@##+++@@+@@%$@++.#&&+$@$+++#..@..................",
"+$##++@$@@$@$@+##.%%+@+$@+++..$...................",
"@$##++@%+$@+%++..+@#+#++$#@..#....................",
"%+.+#+@@@@++@+..@++.+++@$#..+.....................",
"+#.#++#+#@++..#$$#+.+#@+#..$......................",
"####++##@#.#.#%##.@.++@@.#@.......................",
"++#++#+#+..@$@$.#+@.+#+.$%........................",
"+###.+#...$%@@+#+$@.##.$@.........................",
"+####+#..&%%.@@#+$@...+%..........................",
"####+...%%%#+@+++@@..$%...........................",
"+.#...#$+&+#+@$+@$..+@............................",
"##...@@@.%+#@@+@@..+$.............................",
"....%+$@.@+@@@@+..++..............................",
"..#%@#++.+%@@+$..#$...............................",
"..$+++$#.$%+$+..+$................................",
"+++#+##..$+%@..+$.................................",
"+$+##$#..$%#..+%..................................",
"@+++###..@#..##...................................",
"+#++#.#..+..#$....................................",
"+#+##.+#..#$$.....................................",
"+++#.#+..+@%......................................",
"$$+####..@%.......................................",
"##+#....@@........................................",
"#++##..+%.........................................",
"+++...++..........................................",
"++@..+............................................",
"@+..##............................................",
"+..#@.............................................",
"..++..............................................",
".$@...............................................",
"#%................................................",
"&................................................."};
