/* XPM */
static char * far_center_xpm[] = {
"24 24 7 1",
" 	c None",
".	c #111111",
"+	c #222222",
"@	c #333333",
"#	c #000000",
"$	c #555555",
"%	c #444444",
"+.+++@@+.@++@%++++++%+++",
".#..#+..#..#...##.#.+.##",
"@@@+@@.@@%+@+++@$+@+@++$",
"@$+.++++%+.@@++@+#@@@.@@",
"..#..+++.#..+++.....++..",
"+++@.$@.++@#%$.++@.@$++@",
"..+....#.++......+.+.##.",
".++++@@+.@.+@@++++.@@+++",
".#+..+++#+...++#....@+.#",
".++..+...@..++..@..++..@",
"@%+.+@+@%+.@+++@@.@+@.@@",
"+.#....+.#.#+.++##..+++.",
"++@++$$+++@.$$.++@.@$+.+",
".+@+.+..+@@.@+.+@@.@+.++",
"..+.++..#+..+..#+..++...",
".#+@.+++#@+.+++..@.+++..",
"...#.+......+..#+#.++.#.",
"%$@+++.%$@.@+@+$@.++@.%$",
"..#..+#+.#.....+#...+...",
"+++++$$+++@.$$++++.$$@++",
".+@++@+.+@@.%@.+@%.$@.+@",
"..+.+....+..+#.....+.#..",
"+#@..+++#++.+@+..+.+@+..",
"##...+..#..#+..#..#.+.#."};
