/* XPM */
static char * far_center_bright_xpm[] = {
"24 24 7 1",
" 	c None",
".	c #DDDDDD",
"+	c #CCCCCC",
"@	c #BBBBBB",
"#	c #AAAAAA",
"$	c #EEEEEE",
"%	c #999999",
".+..+.$.@..+.$.++.+.$.++",
"#%@#%++#%+##++@%@##@+@##",
"..$...+..$+.....$+..$+.$",
".$+@..+.$+@...+..@...+..",
"+@#+@.+.@#+#+..@#@@+..+#",
"+...@$.+...@$.+..$@.$++.",
"##++++##@+.@+###+.#.##@@",
"+..+...++.+..$.++.+.$.+.",
"+%.+#..+%.+#.+.#@+@+..@#",
"+++++.@++.@+.+@+.@+.+@+.",
"$$++..+.$.@....$.@...+.$",
"+@%@@+@.@%@@++++##@+.++#",
"+...+$$+...@$$+.+$@.$.+.",
"@+..+.+@+.$@.+@+..@..@+.",
"@++@.++@@++++++@+++.+@@+",
"+#..@..+%..+...#+.++..@@",
"@@@#@.@+#+##++@#+##+.@@+",
"$$.+..+$$.+....$.@$..+.$",
"+@%@#+#.+%#+@@++##@@+++#",
".....$$.+..+$$..+.+$$.+.",
"+...+..++..+$.@+.$@$.++.",
"#@+@++@#@++++@@@+@@.@@@+",
"+#..@...#.+@...@+.++.++@",
"###@#.@@%@#@++@%@##+++%@"};
