/* XPM */
static char * far_left_xpm[] = {
"10 24 8 1",
" 	c None",
".	c #000000",
"+	c #222222",
"@	c #111111",
"#	c #333333",
"$	c #555555",
"%	c #444444",
"&	c #666666",
"+.........",
"++........",
"+@+.......",
"+%@+......",
"#+&.&.....",
"+++%@#....",
"@@+@#.+...",
"+.@++.#%..",
"++@+@#.#+.",
"#...$#.$%$",
"+#$&&@.#@&",
"#@....++%#",
"+@+##$.#.#",
"@..+%##@$&",
"++@..+#@+.",
"+..%+..+..",
"$&#@+$@...",
"+++#++....",
"#@+.#.....",
"@@#.......",
".+@.......",
"+@........",
"+.........",
".........."};
