/* XPM */
static char * ground_xpm[] = {
"160 80 13 1",
" 	c None",
".	c #CCCCCC",
"+	c #555555",
"@	c #777777",
"#	c #999999",
"$	c #888888",
"%	c #AAAAAA",
"&	c #444444",
"*	c #BBBBBB",
"=	c #666666",
"-	c #DDDDDD",
";	c #333333",
">	c #EEEEEE",
";&;&;&;&;&;&;&;&;&;&;&;&;&;&;&;&;&;&;&;&;&;&;&;&;&;&;&;&;&;&;&;&;&;&;&;&;&;&;&;&;&;&;&;&;&;&;&;&;&;&;&;&;&;&;&;&;&;&;&;&;&;&;&;&;&;&;&;&;&;&;&;&;&;&;&;&;&;&;&;&",
"&;&;&;&;&;&;&;&;&;&;&;&;&;&;&;&;&;&;&;&;&;&;&;&;&;&;&;&;&;&;&;&;&;&;&;&;&;&;&;&;&;&;&;&;&;&;&;&;&;&;&;&;&;&;&;&;&;&;&;&;&;&;&;&;&;&;&;&;&;&;&;&;&;&;&;&;&;&;&;&;",
"&;;&;;&;&;&;&;&;&;&;&;&;&;&;&;&;&;&;&;&;&;&;&;&;&;&;&;&;&;&;&;&;&;&;&;&;&;&;&;&;&;&;&;&;&;&;&;&;&;&;&;&;&;&;&;&;&;&;&;&;&;&;&;&;&;&;&;&;&;&;&;&;&;&;&;&;&;&;&;&;",
";&;&;&;&;;;&;&;;;&;&;;;&;&;;;&;&;;;&;&;;;&;&;;;&;&;;;&;&;;;&;&;;;&;&;;;&;&;;;&;&;;;&;&;;;&;&;;;&;&;;;&;&;;;&;&;;;&;&;;;&;&;;;&;&;;;&;&;;;&;&;;;&;&;;;&;&;;&;;&;&",
";&&&;&&&&&;&&;&&&;&&;&&;&&&&&;;&&&;&;&&&;&&;&&&&;&&&;&&;&&&;;&&&&;&&;&&;;&&&;&&;&&&&&&&&&;;&&&;&;&&&&;&&;+;&&;&&;&;&&&&;;&&&&;;&&&&&;&&&&&;&&&;&&;&&;&&;&&&&&;&;",
"&&&&&&&&&&&&&&&&&&&&&&&&&&&&&&&;&&&&&&&&;&&&;;&&&&&&&;&&&&&+;&&&&&;&&&&&&;&;&;&&&&;&&&&&&&&&;&&&&;&&&&&;&&&;&&&&;&&&;&&&&&&&&&&&&&&;&&&&&&&&&;&&&&&;&&&&&&&&;&&&",
"&&&&&&&&&&&&&&&&&&&&&&&&&&&&&&&&&&&&&&&&&&&&&&&&&&&&&&&&&&&&&&&&&&&&&&&&&&&+&&&&&&&&&&&&&&&&&&&&&&&&&&&&&&&&&&&&&&&&&&&&&&&&&&&&&&&&&&&&&&&&&&&&&&&+&&&&&&&&&&&&",
"&&&&&&&&&&&&&&&&&&&&&&&&&&&&&&+&&&&&&&&&&&&&+&&&&+&&&&&&&&&&&&&&&&&&&&&+&&&&&&&&&&&&&&&&&&&&&&&&&&&&&&&&&&&&&&&&&&&&+&&&&&&+&&&&&&&&&&&&&&&&&&&&&&&&&&&&&&&&&&&&",
"&&&&&&&&&&&&&&&&&&&&&&&&&&&&&&&&&&+&&&+&&&&&&&&&&&&&&+&&&&&&&&&&+&&&&&&&&&&&&&&&&&&&&&&&&&&&&&&&&&+&&&&&&+&&&&&&&+&&&&&&&&&&&&&&&&+&&&&&&&&&&+&&&&&&&&&&&&&&&&&&",
"&&+&+&+&+&&&+&&&+&&&&+&&+&&&&++&&&&&&&&&&&&&+&++&++&&+&+&+&+&&++&+&+&&&+&&&&&&&&+&&&&&+&+&&&&&+&&&+&+&+&&+&&&&+&+&&&++&&&&+&&+&+&&+&+&+&+&&&+&&&+&&&&+&&++&&&++&",
"&+&++&+&++&&+&+&+&+&&++&+&&+&++&++&+&+&++&+&+&++&+++&+&+++++&++++&++&+&++&+&&+&&++&+&&&&+&+&+&++&++&++++&+&&+&+++&&+++&+&++&&+++&+&++&+&++&&+&+&+&+&&++&+&&+&++&",
"&+++&+&+++&++&&+++++&+&++++&+++++&+++++++++++++&+&+&++&+&+&&+&++++&+++++++&+++&+++++++++&++++++&+&++&&+++&+++++&+++&&++&+&&++++&&+++&+&+++&++&&+++++&+&++++&++++",
"++++++++++++++++++++++++++++++++++++++++++++++++++++++++++++++++++++++++++++++++++++++++++++++++++++++++++++++++++++++++++++++++++++++++++++++++++++++++++++++++",
"++++++++++++++++++++++++++++++++++++++++++++++++++++++++++++++++++++++++++++++++++++++++++++++++++++++++++++++++++++++++++++++++++++++++++++++++++++++++++++++++",
"++++++++++++++++++++++++++++++++++++++++++++++++++++++++++++++++++++++++++++++++++++++++++++++++++++++++++++++++++++++++++++++++++++++++++++++++++++++++++++++++",
"+++=+=++++=++=+=+++=++++++=+++=++++++++++++++++=+++++++++=+++++=+++++++++=+=+=+=+++=+++=+++++++++++=++++++++++++++++++=+=+=++=+++++=+++=++=++=+++=++++++++=++++=",
"+=++=&=++=+++++==+=++++=+=++=++=++++=++++=+=++++++=+=++=+=+=++++==+=+++=+++++=++=+++=++=+=+==+=++=++=+=++++=+=+====++++++++=++=++=+==++++=+++==++==++++=+=++=+=+",
"=+===+=+=+=+===++=+=+==+=+==++=+=+==+===+=++==+===+=+==+=+=++=+=++=++=+=+===+=+=++===+=+=+=++=+==+=+=++=+==+=+=+++==+===+==+==+==+=+=+=+=+=+=++==++==+=+=+=+=++=",
"=+++=+=+=+=+=+===+==++=+=++==+=+=++=+++=+==++=+++=+=++=+=+==+==+==+===+=+=+=+=+==+++=+=+=+=+=+=+=+=+==+==+=+=+===++==++=+=+=+=++=+=+=+=+=+=+==+=+==+=+=+=+=+==+=",
"+===+=+===+=+=+++=++===+==+=+=+===+===+=+=+==+===+=+==+==+=+=+=+=+=+++=+=+=+==+=+===+=+=+==+=+==+==+=+=++=+=+=+++==++==+=+=+=+==+=+=+=+==+=+=+=+=++=+=+=+=+=+=+=",
"==+====+====+=======+===+======+===+==========+========+====================+====+=======+====+==+===================+=================+====================+===",
"+====+===+======+====+=====+=+==+====+=+=+=+=====+=+=+===+=+=+=+=+===+=+=+===+=+===+=+=+===+=======+=+==+=+=+===+=+=====+=+=+=+=+=+=+====+=+=+=+==+=+==+=+===+==",
"=======+====+=+====+====+==========+========+==+============================================+=+=+=============+====+===================+=============+=====+@=+=",
"==============@===========================@====@=======+===============================+==================@============================@========================",
"==@=@=@====@===@=====@=====@===@=@===@======@=======@=@========@==@==@==@=@==@=@==@=@=@=====@=====@=====@==@========@==@=====@===@@=@====@====@=@===@=@====@=@==",
"=@===@=@=@==@=@=@=@@==@=@=@=@=@===@=@=@=@=@==@=@=@=@===@=@=@=@==@==@==@==@==@==@=@===@==@=@===@@==@=@=@==@==@@=@=@=@=@==@@=@==@@=====@=@===@=@===@=@====@=@===@=",
"==@@@==@=@==@==@@==@@@==@@@=@=@@@@=@==@@==@@@=@==@=@=@==@==@=@@==@@=@=@@@=@=@@=@@=@@@=@=@@=@@==@@=@=@@=@=@@===@@=@==@=@@==@=@@==@=@@@==@=@@==@=@@==@@@@=@@@=@=@=",
"@@@=@@==@@@==@@@@@=@@@=@=@@@=@@@@@@@@@@@@@@=@@@@@@=@=@@@@@@@@@@@=@@@@=@@@@==@=@@@@@@@@==@@@@@=@=@@@=@@@=@@@@@=@@=@@@@@=@@@@@=@@@=@@=@@@=@=@@=@@@@@=@@@=@=@@@@@@@",
"@@@@@@@@@@@@@@@@@@@@@@@@@@@@@@@@@@@@@@@@@@@@@@=@@@@@@@@@@@@@@@@@@@@@@@@@@@@@@@@@@@@@@@@@@@@@@@@@@@@@@@@@@@@@@@@@@@@@@@@@@@@@@@@@@@@@@@@@@@@@@@@@@@@@@@@@@@@@@@@@",
"@@@@@@@@@@@@@@@@@@@@@@@@@@@@@@@@@@@@@@@@@@@@@@@@@@@@@@@@@@@@@@@@@@@@@@@@@@@@@@@@@@@@@@@@@@@@@@@@@@@@@@@@@@@@@@@@@@@@@@@@@@@@@@@@@@@@@@@@@@@@@@@@@@@@@@@@@@@@@@@@",
"@@@@@@@@@@@@@@@@@@@@@@@@@@@@@@@@@@@@@@@@@@@@@@@@@@@@@@@@@@@@@@@@@@@@@@@@@@@@@@@@@@@@@@@@@@@@@@@@@@@@@@@@@@@@@@@@@@@@@@@@@@@@@@@@@@@@@@@@@@@@@@@@@@@@@@@@@@@@@@@@",
"@$@@@@@@$@@@@@@@$@@@@@@@$@@@@@@@$@@@@@@@@$@@$@@$@$@@$@@@@@$@@@@@@@$@@@@@@@@@$@@@@@@@@@@@@$@@@@@$@@@@@@@$@@@$@@$@$@@@@@@@@@$@@@@@@$@@@@@@$@@@@@@@$@@@@@@@$@@@@@@@",
"$$$$@@@@$$@$@$@$@$@$@$$@$@@$@$@$@@$@$$$@@$@@$$@$@$$@$@@$@@$@$$@$@@$$$$@@$@@@$$@$@@@$@@$@$@$@$@$@$@$@$@@@@$@$@$@$@@$$@$@@$@$@$$$$@$$$@@@@$$@$@$@$@$@$@$$@$@@$@$@$",
"@@$@$$$$@$@$@@$@@$$@$@@$@$$$@$@$$@$@@@@$$@$$@$@@@$@@@$@@$@@@$@$@@$@@$@$$@$$$@$@$@$$@$$@$@$@$$@$$@@$@$$@$$@$$@@$$@$@@$@@@$@$@@$@$@$@$@$$@@$@$@@$@$@$@$@@@$@$$@$@$",
"$$$@$@$@$$@$$$@$$@$$$@$$@$@$$$@$@$$$$@$@$$@$$$@$$$@$$$$@$$$$$@$$@$$$$@$@$@$@$$$$@$$@$$@$$@$@$@$@$$$@$@$@$$@$$@$@$@$$$$$$$@$$$@$@$$@$$@$$$$@$$@$@$$$$$@$$$$@$$$@$",
"@@$$@$$$@$$@$@$$@$$@$$@$$@$@$@$$$@@$@$$$@$$@@$$$@$$@$@$$@$@@$$@$$@$@$@$$@$$@$@@$$@$$@$$@$@$$@$$$@$@$$$@$$@$$@$$$@$$@@$@@$$@$@$$$@$$@$$@$@$$@$@$$@$@@$$$@@$$@$@$$",
"$$@$$@@$$@$$@$@$@$@$@$$@$$$@$$@$$$$$$@@$$@$$$@@$$@$$@$@$$$$$@$$@$$@$$$@$$@$$$$$@$$@$@$$@$$@$$@@$$@$@$$$@$$@$@$@$$@$$$@$$@$$$$@@$$@$$@$$$@$@$$$@$$@$$@@$$$@$@$$@$",
"$@$$$$$$@$$$$$$$$$$$$$$$@$$$@$$$$@$@$$$$$$$@$$#@$$$@$$$@$@$$$$@$$$$$$$@$$$@@$$@#@$$$$$$$$@#@$$#@$$$$@$$$@$$$$$$$$$$@$$$$$$@$$$$$$$@$$@$$$@#@$@$$$$$$$#@$$$$$@$$$",
"#$$$$$$$$$$$#@$$#$$$$$$$#$$$$#$$$$$#$$$$$$$$@$$#$$#$$@#$#$$#$$$@$$$$$$#$$#$$$$$$#$$$$$$$#$$#$$$$@$$$#$$#@#@$$$$$$$$$$$$$$#$$$$$#$$#$$$$$$$$#$$$$$$#$$$$$$$$$#$$$",
"$$#$$$$#$$#$$$#$$#$#$$$$$$#$$$$$$$$$$#$$#$$#$#$$$#$$#$$$$#$$$$$#$$$#$$$#$$$$$#$$$#$$$$#$$$$$#$$$#$$#$$#$$$#$#$#$$$$$#$#$$$#$$$$$$$$$$#$$$$#$$$#$#$$$$$#$$#$$$#$$",
"$$$#$#$$#$$#$$#$$$$$#$#$#$$#$#$#$#$#$$#$$#$$$$#$$$#$$#$#$$#$#$$#$#$$#$$$#$#$$$#$$$#$#$$#$#$$$#$#$$$#$$$#$$$$$$$#$#$$$$#$#$$#$#$#$#$#$$#$#$$#$$$$#$#$#$$#$$#$$$#$",
"#$#$$$#$$#$$#$$$#$#$$#$$$$$$#$$$#$$$$$$#$$#$#$#$#$$$#$$$$#$$$#$$$$#$$$#$$$$$#$$#$#$$$#$$$$#$#$$$$#$$$#$$#$#$#$#$$$#$#$$$$$#$$$#$$$$$#$$$$#$$#$#$$#$$$$$$#$$#$#$$",
"#$$#$$#$#$#$#$##$$#$$$#$###$$###$$##$#$$#$$#$$#$####$#$#$###$#$##$$##$$#$#$##$#$$#$#$$##$$#$$#$%$$##$#$$##$$#$$#$#$#$#$#$$#$#$#$%$$$$##$#$#$#$$#$$#$##$$$#$$$#$%",
"##$##$###$#$%$$##$####$$$#$###$###$#########$######$#$#$$##$###$####$#$#$#$##$##$%###$#$%$###$#$###$#%#$#######$####$##$############$$###$###$###$#$#$$#$#####$#",
"$%#$###########%#$#########$#########$#####################$#####################$######$########$#####$#$######################$##$%#####$################$####",
"#####################################################################%##############################################%###########################################",
"#######################%################################%######%###############################################################%#####################%##########",
"##########################%#################%##############%##############%####%###%#####%##%###%####################%###################%##%#############%#####",
"#%#%%#%#%%##%#%#%%#%#%%%%##%%####%#%#%##%#%###%#%#%##%##%#%##%####%###%###%#%#%#%####%#%##%#%#%#%#%#%%##%##%##%#%%##%#%#%#%##%###%#%%#%#%%##%#%#%%#%#%%%%##%%###",
"%%%%%#%#%%#%%%#%%%%%%#%#%#%%%#%#%%#%%%%%%%%%#%%#%%%%#%%##%%#%%#%#%%%#%%%#%#%%%##%%%%#%%%#%%#%%%#%%%#%%#%%%%%%%%#%%##%%#%#%%#%%#%%%%%%#%##%#%%%#%%%%%%#%#%#%%%#%#",
"%#%#%%%#%%#%%#%#%#%#%#%%#%#%%%%%#%%#%%#%#%#%#%%%#%#%%#%%%%#%#%%%%#%%%#%%#%#%#%%%#%#%%#%#%#%#%#%#%#%#%%#%%#%#%%%%#%%%#%#%%#%%%#%%#%#%%#%%%#%#%#%%#%#%#%%%#%#%%%%%",
"%%%%#%#%%%%#%%%%%%%%%%#%%%%%#%#%%#%%#%%%%#%%%%#%%%%#%%%#%#%%%#%#%%%#%%#%%%%%%%#%%%%#%%%%%%%%#%%%%%%%#%%#%%%%#%#%%%#%%%%#%%%#%%#%%%%#%%%#%%%%%%#%%#%%%%#%%%%%#%#%",
"%#%%%%%##%%%#%#%##%#%%%#%##%%%%#%%%%%#%#%%#%#%%#%#%%%#%%%%%#%%%%#%%#%%%#%#%#%%%#%#%%#%#%#%#%%##%#%#%%#%%#%#%%%#%#%%#%#%%#%%%#%%#%#%%#%%%#%#%#%%#%%#%#%%#%##%%%%%",
"%%#%#%%%%%#%%#%%%%%%#%#%%%%#%%%%#%#%#%%%#%%%%#%%%*#%%%%#%#%%#%#%%%%%%#%%%%%%%#%%%*#%%%%#%%%#%%%%%%%%%%#%%%%#%%%%%%%%%%%#%%#%%#%%%%#%%%#%%%%%%#%%#%%%%%#%%%%#%%#%",
"%%%%%%%%%%%%%%%%%%%%%%%%%%%%%%%%%%%%%%%%%%%%%%%*%%%%*#%%%%%%%*%%%%%%%%#%%%%%*%%%%%%%#*%%%%%%%%#%%%%%%%%%%%%%%%%#%%%%%%%%%%%%%%%#%%%%%%%*%#%%%%%%*#%%%%%%%%%%%%%%",
"*%*%%%***%*%*%%%%%%%*%*%%%*%*%*%%**%*%*%%*%%*%%*%*%%%***%*%%%%%%*%%%%%***%%%%%**%*%%*%%*%%%*%**%*%%*%*%%*%*%%*%*%%%**%%%%%%*%%*%*%*%%*%%*%*%*%*%%%*%%%*%%%*%*%*%",
"%%***%%%*%%*%**%***%*%***%*%*%%*%%*%*%*%%%*%**%*%*%*%%%*%*%*%*%*%***%*%%%****%%*%**%*%*%**%*%%*%*%%*%*%*%%*%%*%*%*%%*%***%%*%%*%*%%*%**%*%*%%%*%*%***%***%*%*%%*",
"**%%%**%*%*%*%%*%%%*%*%%%*%*%*%*%*%*%*%*%*%*%%*%*%*%*%*%*%*%*%*%*%%%%*%**%%%*%*%*%%*%*%*%%%*%*%*%**%*%*%**%*%*%*%*%*%*%%%*%*%*%*%**%*%%*%*%**%*%*%%%%*%%%%*%*%*%",
"%***%%*%*%*%**%*%*%*%*%*%*%*%*%*%*%*%*%*%*%*%*%*%%*%*%*%*%*%*%*%****%*%%*%*%*%*%**%*%*%***%*%*%*%%*%*%*%%*%*%*%*%*%*%*%*%*%*%*%*%%*%*%*%*%%%*%*%*%**%*%**%*%*%*%",
"*%****%**%**%%*********%*%*%***%**%**%**%*****%***%*%*%*%*%*%**%*%***%***.%*%*%%*%*%*****%%*%***%*%*%****%**%*****%**%***%*%*%*****%**%*****%%****%****%*%*%****",
"*%***%.******.*****%*********%**************%*****%***%***.****%***%*.*%******.%.%.*%**%*.***********%**********%.*%***%.******%*%*********.*****************%*%",
"*****************************.*********.***.*****.*****.******.***.**************************************************************.***********.******************",
"***.***.***.******.**.**.*******.**.*************************************************.*******.*****.**.*******.****.**********.*******.********.*******.*****.**",
".**************.************************.***.******.***.**.****.*****.**.**.**.**.*****.**.****.*******.**.****.*******.**.********.*****.******.**.******.*****",
"**.**.***.***.**.********..*.***.****.*********.***.***.****.*****.***.**.******************.***********.***********.*.***.*****.*.*********.***.*********.*****",
"*..*.*.**.*.*...*.*..*.***..*..*...*.*.*.*.*.**.*...**....**.*.*.****..*..*.*..***.*.*..*.**.*....*..*.*..***..*..*..*...*.*..*.*..*.*.**.*.*...*.*.*..***..*..*",
"..............*..*...........*....*.*.......*..........*...............................*......*.*........*......*.*.*..*....*.................*..*...........*..",
"................................................................................................................................................................",
"....*....*..*.......*....*.....................*...............................................................................*...........*.........*..........",
"*................*...................*.....*....*..*..*..*..*..*..*..*..*..*...........*..*.......*..*.....*......*..*.....*....*......*....*....*......*.......",
"......................*-.....*...*.-......-....-...-.....-.......-......-..-.*-..*.....-..........-.......-.......-..-.........-...........-...........-.....*-.",
".-.--..-..-..-.-..-.....-.-.-...-.-...-.-.--...-.-.-.--....---.....--..-.....-.-.-.-.-*-.-..-...-.-.-...-.-.-*-.-......--...-....-.-..--...-*-.-..-.....--.-....",
"-....-..-.-.-.-.-..---.-.-.-.-.-..-.-.-.-..-.-.-.-.-..-.--.-.-.---..-.-.-.---.-..-.-.-.-.--.-.--.-.--.-.-.-.-.-.------.-.-.-.-.-..-.-...-.-.-.--.-.-.-..-.-.--.-",
".----.--.-.-.-.-.--...-.--.--.-.--.---.-.--.-.-.-.-.--.-..-.-.-...--.-.--.-..-.--.-.-.-.-.--.-..-.-..--.-.--.-.-.....-.-.-.-.--.--.-.---.-.-.-..-..--.--.-.-.-.-",
".-..-.-.-.-.-.--.-.--.-.-.-.-.-..-...-.-.-.--.-.-.--.-.--.-.-.----.-.-.-.-.--.-.-.-.---.-..-.--.-.--.-.-.-.-.-.-----.-.-.-.-..-.-.-.-..-.-.--.--.--.-.-.-.-.-.-.",
"-.--------.-.--.-.-.--.-.-.-.---.-------.-.-.-.--.-..---.-.-.-.-..-.-.-.----.-.-----..--.---.-.---..-.-.---.---...-.-.-.-.-.->.-.-.----.>.-..--.-..--.-.--.-.-.-",
"--.-..-.--.>.---.------.>--.-.------.-----.--------------------->.-----.-------.-.->------.----.-------.------->--.--------.--.>.---.-----.>.---.------.->.-----",
"---->->------>----->-------->---->-------->------->-------------------->-->----->--------->----->----->------------------->->---------------->------>-----------",
"->------>------>----->-->----->---->-------->------->--->-->-->-->---------->-------->------>----->----->-->-->-->->--->------>-->->---->-->--->-->--->->-------",
"---->---->-->----->-------->-------->->-->---->-->--->------------->-->-->----->-->--->-->----->----->-------------->---------------->------->----------->-->->-"};
