/* XPM */
static char * middle_right_xpm[] = {
"21 66 9 1",
" 	c None",
".	c #000000",
"+	c #222222",
"@	c #111111",
"#	c #333333",
"$	c #444444",
"%	c #777777",
"&	c #555555",
"*	c #666666",
".....................",
"....................+",
"...................##",
"..................#+$",
".................+@+@",
"................&#+++",
"...............$%@@@.",
"..............&.$...&",
".............$++&..#%",
"............$@##.@%%%",
"...........%.+#.#%$$$",
"..........%+@#.&%$$+#",
".........%$@@.@$&%#+$",
"........#@+@.#@+#$+.&",
".......#++#&+$#++#@$+",
"......#.+.%++$.@.++@#",
".....#+..@##$+.@#++@@",
"....$##.&.&+#.+@++#.+",
"...++&.%$.#..##.#$+++",
"..%$+$&$+..%$#++#+.@.",
".$%+%#+#@$%#&$&+++..@",
"&+.&++..@&$&+$#$..#++",
"@.%*#@@+@++$##@+%++++",
"@#+$@.##.@&@#@$+%++@+",
"@#.#$.&+@..%+@+.#@.++",
"..#@&.+.+%&+.##+&+@@+",
"$.#@&.++@@#+.##+.....",
"+.@.$++.+++@...@#@+#$",
".#%+++#.@.@+&#+%%%%%%",
"++%+#..#@@@++$.@%$$$%",
"@.@.&+%%%.###&@+#&#@#",
"@#$%+#+$+.##+@.+#&#@&",
"@++##+@#+.#.@@......$",
"...&+.@#%%%%%&+@&@++#",
"&.#$&.++.$%$$##@+++@#",
"@.&@#.%+@@%&$&+.+#+@+",
"$+..#.#+@@$$+&$&+&+@@",
"++#+&#@..@.+@@#++@@@+",
"..$+#+#.@%%%%..@.@#@@",
"@#$.@&#.@@$+.#$&%&...",
".+&%##..@#@@@++.%#@@+",
"&.@#++%$..#@@#+++@@+#",
"+.##+#+$%.%+..##$@.@#",
"..#+%.@+#.#++#..@@@+@",
"+.#+$.@+#.$#+&@##..++",
"@+%@#.+++.##+#.%%#@..",
".+&+@.%+@%.@++@+$%%&$",
"...+$.$#@#%%.#.+#$$%%",
"...+#+.+@+$#%%.+#$##%",
"....+++&.+##$#+..&$+#",
"......#.+.$&++#.$..+#",
"........+$.+#&+@+++.$",
"........@+%%@+$#+@#+&",
".........+#+$+@++#+@+",
"..........#@@$.&+#+.#",
"...........@@@$@.++@+",
"............@+#+%.@@@",
".............#+@%#.@+",
".............@#++&+..",
"..............@+&.@@@",
"...............@@@@@#",
"................#.@++",
".................@.+@",
"...................++",
"....................+",
"....................."};
