/* XPM */
static char * bkg_east_xpm[] = {
"160 80 17 1",
" 	c None",
".	c #EEEEEE",
"+	c #FFFFFF",
"@	c #222222",
"#	c #000000",
"$	c #111111",
"%	c #333333",
"&	c #777777",
"*	c #555555",
"=	c #DDDDDD",
"-	c #666666",
";	c #888888",
">	c #999999",
",	c #444444",
"'	c #AAAAAA",
")	c #BBBBBB",
"!	c #CCCCCC",
"+.+.+.+.+.+.+.+.+.+.+.+.+.+.+.+.+.+.+.+.+.+.+.+.+.+.+.....==....+.+.+.+.+..+...+.+..==.=....==.............+..===!.=...+.+.+.+.+........................=..=.==.",
"++.+++.+++.+++.+++.+++.+++.+++.+++.+++.+++.+.+.+++.+.+........+.++.+++.+++..+.+.+....==.=.....===..==..=...=...===.....++.+.+........=.=.=...=..=....=..........",
".+.+.+.+.+.+.+.+.+.+.+.+.+.+.+.+.+.+..+..+.+.....+.+..........++.+.+.+.+.++.++.++..=.==...=.==.====.===.........+..........=...==..=...=...........=+.=..=....+.",
"+.+.+.+.+.+.+.+.+.+.+.+.+.+.+.+.+.......++.++.++..+.+++....+++.++.+.+.++.+.+.++..+......=..=.===.=.....=.==.=..=...........=.===.=..=..=.=.=...=.=...........+.+",
"+.+++.+++.+++.+++.+++.+++.+++.+++++.++.+....+..++.......+....+..++.++.+.++.++.+++....==.====.............=...=.......................=..==..==.....=.....+...+..",
".+.+.+.+.+.+.+.+.+.+.+.+.+..+.....+.......+......+............++.++.+.++.+.+.+......=.==.=.=....+.+...=...=.....=.==....+.......+...............=.............+.",
"+.+.++.+.+.+.+.+.+.+.+.++++.+.+.....++..+..+.++............+..+.+.+.++.+.++....=..=..=.======.=.....=...=...=.=.=.==.=...........+....=..==..==.=.......=.=.=.==",
"++.+.++.+++.+++.+++.+++..+..+..+.++....+.....+.....=.......++.++.++.+.+.+..+.....=..=.==.=!.=...==!=.===...=.=.=.........+...+...+..+.+....==..=.=.=..=...=====.",
".++.+.+.+.+.+.+.+.+.+.++.++.+...+....+..............=...........+.++.++.+...+....=..=..=...=..==...==.===!.=.=..=.=.....+......+........+.=..=...=..======.=.===",
".+.++.++.+.++.++.++.+.+.++.+.++...+...................=.+.+......+.+.+.+++.....=..=..=.....++.++..=.==.=.=.....=.=.....+.+..++..+.....+.+..=......=......===....",
"+.+.++.+.++.++.+.+.++.+.+.+....+....+......=................+...+...+.+..++........=.=......+.++..==.===.=.==..=.=.......+.+.+..++..+++.+++...=.....=......===.=",
"++.+..++.+.+..+.+.++.++.++.++.....+.=...............=...+.+..+.......+.++..+......=.....+++..+.+.=====.========.....++.++.++.+++..++..++..++..+.=....=.=..=.....",
".+.+++.++.+++++.++.+.+.+.+.+.++.+..+...=.............=.=.............=.......+.......+.+.+.+=.+.=======.=.=.......++.+.++.+.+.+.++.++..+++..+..+........=..=.==.",
"+.++..+.+.+..+.+..++.++.+.+..+....................=..=....+...............+.........+.++.++.+....=====.====....+++.++.+.+.++.+.++.+.+++...+..............=..=..=",
".+.++.+.++.+.++++..+.++.+++...+.+.+.+..............=.......++...=.....+.+...+.+.+.+.++.+.+.++.+.====.==......+.+.+..+.+.++.+.++.+.+.+.+++.............==.=...=..",
"..+.++.+.++.+.+.+++.+.++..+.++...+....+.....=..=..++....++......==...........+...+.+.+.++.+.+..=.=.==......++.+.+.++++.+.++.+.+.++.+.+.........=...=.......=....",
".+.+.+++.+.++.+.+.++.+.++.++.+.+...++..+.+....+.+..+++++.+..++.++.+.+.+.+++..+.+.++.++.+.++.+.=..+.+.+..+++.+++.++.+.+.++.+.+.++.+.++.+....=.......=.=..=.......",
"..+.+..+.+.+.+.+.+.++.+.++..+.++.+.=+.+...+....++++.+.+.+.++.+.+.+...+.+=+.++++.+.+.+.++.+.+....+.++.++.+..+.+.+.+.++.+.+.++.++.+++...........=.=.=.=.=....=..=.",
"..+.++++.+++.+++.+.+.++..++++.+..++.+.+.+..+......+.+.+++.++.+.+.++.+..+.++...+.+.++.+.+.+.+.++.++.+.++.+++.++.+.++.+.+.++.++.+..........=.=......=.....=.......",
"=..+..+.+.+.+..++.++.+.+++..+.+.+.++.+.+.++.+.+..+++.+.+.+.++.++.+.+.+.+..++++++.+.++.+.++.++.+.+.++.+.+.+.+.++.+.+.++.++.+..+.........=.....=..=...=.=+...=.=..",
"==..+.+.+.+.++.+.+.+++.+.++.+.+++.+...++.++.+++.+..+.+.+.+.+.+.++.+++.+.+...+...++.+.++.++.+.++.+.+.++.+.+.+.+.++.++.++.+.++..+..+.......=.=........+...........",
"=!.=++.+++.++.+++.+.+.+.+.+.++..+.++....+.++..++.++++.+++.+++.+.++....+.+++.++.+.+.++.+.+.+.+.++.+.+.++.+++.+++.+.+.+..+.+.+.+.+....+....+..+.........+.........",
"=!==.+.+.+.+.+..+.+.+.+.+.++.++.++.+.+.++..++..+.+..++..+.+.+.+..+++++.+.++.++.+.++.+.++.++.++.+.++.+.+.+.+.+.+.+++.++++.+.+.++.+.+........+..+.+.+.+...........",
"!=.=..+.+.+++.++.+++.+++.++.++.++.+.+.+.++.+.++++.++.+++.+.+.++++.+.+.++.+.+.++.+..++.+.++.+.++.+.++.+++.+.+.+.+..++..+.+++.+.++.++.++++.+.+..+..+.+...+..+++..+",
"!!==..+.++..++.+.+.+.+.+.+.+.+.+.++.+.+.++.+.+..+.+.+..+++.++..+.+.+.+.+.+.++.+.+++.+.+.+.++..+++.+.+..+.++.++.+++.++.+.+.+.+.+.+.+.+...+..+.+.+.+.++.+.+...++.+",
"==!!=..+.++.+.+++.+.+.++.++.+.++.+.+.++.+.+++.++.+.+.++..+.+.++.+++.++.++.+.++.++.+.++.+.+.+++..+.+.+++.++.++.++..+.++.++.++.+++.+.+.+.+.+.++.+.++.+.++.+++++.+.",
"=====..+.+.+.+..+.+++.+.+.+.++.+.+.++.+.+.+.+.++.+++.+++.+++.+.+..+.+.+.++.+.+.+.++.++.++.+..++++.++..++.+.+.+.++.++.+.+.+.+.+.+.++..++.++.+.++.+.++..+.+...+.++",
"===.=..+.++.+++.++..+.++.+.+.+.++.+.+.++.+.++.+.+.+.+.+.+.+.+.++++.+++.+.++.+.+.+.+.+.+.++.++...+.+.++..++.++.+.++..+.+.+++.+.+.+.+++.+.+.+.++.++.+.+++.++++.++.",
"=!=...+.+.+.+.++.++.++.+.++.++.+.++.++.+.++.+.+.+.+.+.++.+.++.+..++..+.+.+.+++.++.++.++.+.+.+++++.++.+++.+.+.++..++++.++..+.+++.+...+.+++.++.+.+.++.+.+.+.+.+.+.",
"!==..+.+++.+.+.+.+.+.++.+.++.++.+.+.+.+.+.+.++.+++.++.+.++.+.+.++.+++.++.++..+.+.+.+.+.+.++.+..+.+.++...+.++.+.+++..+.+.++.+.+.+++++++..+.+.+.+.++.+.++.+.++.+.+",
"=!==.+...+++.+.+++.+..+++.+.+.+.++.++.+++.++.+.+.+.+.++.++.+.++.+..++.++.+.+++.+.+.+++.++.+.++.+.++.+++++.+.++.+.++.+++.++.+.+.+..+..++.++.++.++.+.++.+.++.+.++.",
")===...++..++.+.+.++++..+.++.++.+.++.+.+.+.++.+.+.+.+.+.+.+++..+++.+.+.+.++.+.+++.+.+.+..+++.++.+.+.+..+.+.+.+.+.+.+.+.+.++.++.++.++.+.++.+.+.+.+.+.++.+.++.++.+",
")!==.+....+.+.+.+.+..+++.+.+.++.+.+.++.+.++.+++.+++.+.+.+.+.+++..++.++.++.+.++..++.++.+++..+.+.++.++.++.++.++.++.+.+.+.+.+.+.++.+.++.++.+.++.++.++.+.+.++.+.+.+.",
";>))==.+..++.+++.+.++..++.+.+.++.+.+.++.+..+.+.++.++.+++.+.+..+++.++..+..+.+.+++.+.+.+.+.++.++.+.+.++.+.+.+.++.+.++.+++.+.++.+.++.+.+.++.+.++.+.+.++.++..+.++..+",
"&;&&>')=...+.+.+.++.++.+..+.+.++.++.+.+.+++.+.+.+.+.+.+.++.++...+..++++++.++...+.+++.+.+.+.+.++.++..+.++.++..+.++.+.+.+.++.+.+.+.++.+..+.+..+.++.+.++.++++.+.+.+",
">>>>;;&&&&>'')!=..+.+.+++.++.+.+.+.++.++.+.+++.+.+.++.++.++.+++++++..+..++.++++++..++.+++.++.+.+.+++.+.++.+++.+.++.+.+++.+.++.++.+.++++.++++.+.++.+..+..+.+.+++.",
";>>>;>>>;;*-&-&&;;>>')!..+.+.+.++.+.++.+.+.+.+.++.+.+.+.+.+.+..+..++.++..+...+..+..+.+..+.+.++.++..+++.+.+..++.+.+.++..+.++.+.+.++.+.+.+.+.++.+.+.+++++.+..+..++",
">;>>>;;;;;;&&-&***--*&&>>'=++.+.++.+.+.++.+.+.+.++.+.+.+.++.++.+++.+.+.++++++.++..++.+++.++.+.+..++..+.++.++.++.+.+.+++.++.+.+.+.+.+.++.+.+.++.+.++.....+.+++.+.",
">;;&;&;&&-&&-*&-&&&&-***&-&'..+.+.++.+=!))')!!..++.+++.++.+.+.+.+.++.+==)';;&&&>>))=!=.+.++.+.+++.+++.+.+.++.++.++.+..++.+.+++.+.+.+.+.++.+.+..+..+.+++...+.++.+",
";>;&&&&--*-%%,%*&---&-&-&-**&>===)''';&--*&--&&>)!+.+.+==).+++.++...)>;&&&;&&--*-&--&&>)=+.+++.+.+..++.++.+.+.++.++.++.++.+.+.+++.+++.++.++.+.++.+.+.+.+++.+.++.",
";>>;;&-&--***%,%%-&-*-&*&&--&******-*-*-&-&&--&&-*;;>>&&-&&;;>>>>>;;&>;;;&&&&&-&---&&-&&&&=..+.+.++.+.+.+.+.+..+.+.+.+..++.++.+.+.+.+.+.+.+.++.+.++.++.+.+.+.+.+",
";;;;>&&-&&**-%%@@@%,*&--**-**-&*-*&-&-&-&---&---&&-&;;;&&&&;&&;;&;&;;;;&;;&;&*&-&--&-&-&&&-&>'=.++.+.++.++.++++.+.++.+++.+.+.+.+.+.+.++.+.++..++.+.+.+.+.++.+++.",
">;--&---*--%%-%%@@@@%%*----&--*&*-**--*-*--*--&--&&&&;&;;>>;&&&;&;&>;;&&&;;;&*-&-&-&-&--&-&&&&&;;'>>''''''')!.+.++.++..+.+++.+++.++.+.+++.+.++.+.+.+.+++.+.+..++",
">>&&%*-*,%*-%%%@@$@@@@@%,****--*-**-**&&**%,%%,%,%*******-&;&>'>;&>>''>&&>;;-***--&-&-&-&-&&--&-&&&&;;;;>;;>>>)!+.+.+++.+.+.+..++.++.+.+.+.++.+.+++.+.+.++.++.+.",
">;;;&*%%%%%%,%%@%@$@$@@@#$@%%*****-****%*,%@@%@@@@@@%@@@@@@%%*;>'=>>'';&&;;&&&--**-*-*&--&-&--&&&&&&&;>>>>>>>;&;)=+..++.++.+++.+.+.+.+.+.++.+.++..+.+.+.+.+.++.+",
"-;>&&&%,@@,%@%@@@#@@@##$@@@@@%,*****%,%%@#,%%%@$@$@@@%%@%@%,%@$@&)>;>>;-*;&-&--*&*----*&*-&&-&---&-&-&&;>>>>'';&;).++.+.+.+.+.++.++.+++.+.++.++.++++.+.+++.+.++.",
">;>&-&*%%@%@%@%%@###@@@%%%%%@@@@***,*%,%@@%,@@@@%@%@@@@$%@@@%,%@@%-*-&&-*&;-*&*****-*&*---*-*-&&-&&-&&;>>'''>>;&;'+.+.+++.+.+.+.+.+.+.+.++.+.+.+..+.++.+.+.+.+.+",
">>>;&&*%@%%@@@,%%@@%%%*,%@$@%@##$@%@,%%,$@@%$@$@%@%%%$@@@@$@@%%$@%-%--&-&&&&**&**--*****-*&-&&----&-&&&&'''''>>&;>+.++..++.+.+.+++.+.++.+.+.+++.++.++.+.+++.+++.",
"'>>;&%,%@@%@$%*,%@@*-%@@@####$@@##@@@@@#@@@@@@@@%%@@@@%@%@%@%@,@@@%@@%,*--*--*--******&**-*****&&--&-&;&;>;;>'>&;>'=.+++.+.+++.+.+.+.+.+.++.+.+.++.+.+.+..+.+.++",
">';>*,%*@#@@@%*%%%#%%@#@#$#$##$@@####@###@$@#$#@@@@@%@%%*%%%%%@%%@%%%%*,**-&-&--&-**&*-*----*&***--*&--&&&>&&&&&;>&'....++.+.+.+.++.+++.+..+.+.+.+.++.++++.+.+..",
";-;;&%,%@@#@%,%,@,@@@##@$@#$#$@@@#@@##$##@@#$###@$@@$@@%,%@@@%%@%%@,%%,%@%%***-***-***-*****-&--*-*---&;;;>;&&&&&>&&'=++.++.++.++.+.+.+....+.++..+.+.+..++.+++++",
"';&*-@%%$@@%%,%%%@%$@#@@@%@$@@$@@#%@#@$#$$@##$#$##$@@@#@#@@@@@@@,%%%,%@@@%@,%%@@@%***%****&***&*&*&*--&;;;;>;;>;&&>&&>';>;=!.=..+=+==))'''>).+.++.+++.++.++...+.",
"-&;&%@,*@$@%@@@%@@%@##@@@@@@$@#@@#@#####$#@$#@##@@@$@@@@@$@#@#@$@@,@@$@$@@%@%%@$@@%,%@,***********--*---&&&;&-&-&&&;;;&**-*-&-*&;&%>>;;>';--&>'..+..++.+..++++.+",
"@%%,%@@%@@@,$@@%%%@@@#$@$@##$####@@$#$$###@##@@@#@#@@$@$@@@@$@#@$@$@#@@@$@@@@@@@@%@,%$@@,**-*****&*-***&-&&&&*&&&;>>>;-&&;****,*-%#%>'>>>>>&&&-;>;;;;'=.+++..++.",
"%@%%%@@@$@$@@$,%@%@@@#@@$#$##$#$#######$$##$@@$@#@###@####@@@@@@#@#@@#@@@$#@#@$@@%%%,%@#@%%%-********&*-&;&-&-&;>;>>-**--*&-****%,@@*')'>>'';&-&*****-&&;>)...++",
"%@@@@$@$@@@##@,%@%%@@###@#@@@#$##$@$#$###$##@%@#@#$#$#@@@$@##@#@@$@@$@##@@@#@@@$@,%@%@%@@@@@%,%,%@,*****-&**&&;;&****,*&&*--%@,%**%#@*&>;;;-%*;&*&;;&-**--*&'=+.",
"%@%@@@@@$#@@%%@@%%,$@@$#$@$@@@#$###@@@#$#@##$#$##@##$###$@#@###@##@@@@@$@#@@$@@@$#%,@@@%%%%%@@@@@#@@%-******%%%-&*@@*--*%@@%%@#,%,@@%,#@*%*@@@%&&*--&-&-&&---;>)",
"%@%@$@$@@@$@@%@@,%%@@####$@@$@@##$##@@@#$##@#@##$#@$##$####@#@$#@######@$@@##@$@@#@$@$@@@%,%%%@##@@@%%%,%,**,#$@%@@%*&*,%%@@@@#@**%%*%##@@,%*%@@*&&&&-&&**&-*---",
"%@%@@@@$@@@%@%@$@@@##@$$#@@###@@@#$@$@###$@@##$#$#@#$@@#$##$@@##$@#@$##$@#@@@##$#@@%%@$%@@@@@*%%@%%*,@%**%,%%,#$@#@%-*@%%%@@%##@%,%,*$$#@#@@%%%@@@@-&%-&&&&&---*",
"@@%$@#@#@$@%@%@@@$@$##@###$$#$#@####$$$$####@$########@$#$####@###@@#$##$@$@#@##@#@,%@,%@#%@%%,@%@@*%#@%,*%@%%%$@#$%-%@@%@#@@@$$,%%*%$@@####$%,%###,*#,&;;---;--",
"%@@@@$@@@@@$@%@$@@$#@#@$#$@##@##$$#####$#$#$##$$#$%@#####$@#$#$#$####$#$#@##$#$####@#@%%@@%%,%#@%@%,@@*@@**@@,@@##@@%@@%@#@$@$%@%-@@,@%@$@#$#@@@@@#%,@@**%@#%&,%",
",$@$@@@$@$@@$@@@@#$@#@#$###@$#$####$$#$##@##@@#$#@%@#$$#@@@##$#@##$#$###$#$##$#$#$@%@@,%@@%,%%@%,%%%%**@@%,$@%@@@@@%%@@%@#@@@@@%*&#%*@###$###%%%$@@@%*%@@#$#@,%%",
"@@@$@$@@@@@@@$@$##@####$#$####$#$#$###$#$#$####@@@@#@@@@#$$##$#$#$##$#$##@@@@@$$@$--%%*%@%-*,%%@%@,%-*%%@#@@@$##@*@%%@@%@#@$@#$%*&@**#$###$$%&*,@#@@@%%@@#@##@%-",
"@%@@@@@$@$@$@@@$@$#@$@##$##$#$##$###$##$###$#$####$##$@##$#$####$#@##$#@%-@%%@#@@%-%@,-*$-%@$%@@@*%%--*@@@@$@@@###@@%@#@@##$###$@**%@#@@$##@*-@####*%@,%$$#@#@@@",
"@$@$@$@@@$@@#$@$#@###$#$#$#$##$##$$#$##$#$##$#$#$##$@@@##$##$$##$#,##$#,%%@@@@$@*-@@@@#@-%@@#@%%%@@-%@@%@$#@@$@$#@%**@##@@@@#$##@@#@@@###$#@@@@@#$#@@$%@@##$#@%%",
"%@@@$@@$@@#@#@@@#@$@#@##$###$##$#####$##$#$####$##@###$#$##@$@@@@@#@$#%%@@*%%%%%,%%@$@$%&%@###,**@@%%@$@#$##@@####@,%@#@$@$@$##$%*#@*%@@##@%@$@*@@@@@@@@@$###@@@",
"@$@@@$#@$@@#@#@#####$#$@#$#$#$##$$#$##$###$#$$##@#@@@###$#$@@$@%$@#@@@%,$@@%@,@@@#%@@$#@*%@@$#@%%@#@@@@@##$##$#$$##@%#$##@@%#$#$**#@@@#@@#@*@#@*$@#$@@$@##$#@$@@",
"@@@$@@@@$$@@#$@@$@@#@#####$###$####@$##@@@###@#@@@%$@@$#@#$@%%@@$#@#@%@@##@@@$@$@@@@%@#@@$$@##@@@##@@#@#$###$####$#@%@#@#$@@$###&-#$@##@%@#%%@$@$###@%@@@$##@#$@",
"$@@@$@$@@#@@@@#@$@#@#@$#$##$#$#$#$###$@%@#$##@@@$@@%@$#@@$@@%*%%@#@#@@##@#@%%%,%@$%@%@@$@#%@@###$#$$##@##$$##$#$@##,%@$#$@###$#$-*$#@@#@@#$%@#%@#$@@@%@%@@#$#$##",
"@@$@@#@@$@#@#@$@@@@@@##$##$###$#$##$##%%@$#@@$@%%@#@@$#@%$@%%,%%@@#@#@#@@@%@,%%@@#@@@@@@#$@##$@##$##$#@$####$##@#$#@,####@%@$%%%&*%%%*%%%@@@$#@@##$@%%$@$@$###$@",
"@@$@@$@#@@$@#@@$@$@#@##$#$#$##$##@#$#$%*@@#@%%@%@@@$##@@%@@%%,%@$@#@##@@#@@$@@@%@@#@######@$###@##$#$##@#$$##$###$##@#$@%*&&&;';>&;&&;;-*-*%@#%#$#*%,%@@###$$#@#",
"$@@$@@@@@#@@@#$@@#@@#@##@#%@#$##$##$#$%%@$@,%,%,%#%,@#@%@#%,%%%@$#@@@%#@@###@$@#$@$@$#$#$###@$#$#$###$#$####$##$##$##$%-&>>''''&;;>*-&&***-&%%,%***,%%$@#$##@##$",
"@$@@$@#$@@#@@#@@#@##@$##$@@@#@#$#$##@%,##%%%%@@#@##%,@@@%,%%,,@###%@@####$@#$#@#$#@@##@#$#$##$@#@#$##$#@#$#$#$#$###,->>)!>>>)>&;&;&&>>;>&&&&&&&**-*%$,*@@@@##$$%",
"@@$@@@@#@$@#@@#@#@#@#@$#@%$@$##@@#@$$@@@,%,@,$@@@@@@%@$@,-***%@@$#@@@@@@@##@#@#@#@@%#$#$###$###$##$#$###$###$##@@@;;')'>>>>;;;&;;>;;&>&-;-**&****%*-$@%$@$@,*%,%",
"@@@$@$@@@#@@#@#@#@#@###@@@##@#@$%@####@%%@%@@@$#@$@#%##@%*,%%%@$@@##@@#@#@#$#$####@@@###$#$@###$#@##$#$@#$##$#@%&>'>')>>''&&&;>>;&>>--*%****%,%-**;>%@,%**%%**%,",
"@$@@@@@$@@#$@@@#@@@@@#@#@@#$#@@,@%@$#,%%,%%%$@@@#@#@%@$##@@@%@@@$@##@$@$#$####$#$##@#@#$####$$##$##$#####$#$%-&;>)'>;>>>>>;>-&&->;-;-*--*;>&-*%*&&;-%%%*-*,**,%@",
"@@$@$@@@$@@@#@#@$@$#@@###@###@$#@%@@@%,%%,@@@$@@@@#*%%@@@$#@%@##$@#@######$$##$##$@%@#@#$$####$##$##$$#$#@**;>>>;;''>>'>;&>>&&-*&&-;-&&;*&&&-&**&;>%,*--&*-&***-",
"$@@$@@$@@$@$@#@#@@@@#@@@$#@$#@@$#%%@$@@@%%$@@%@$@#$--%%@%@@@%@$###@@@$#$$###$##$##@%@$####$#$@##$#$###@@*;>>>;&&>'>';''>&>&;&&;&&--&&&-;&%%*&--%*&>@@*%,&&&--&&&",
"@$@@$@#@@@@#@@@#@$@@#@##@#@##@$@@@%@%@#@,%@$%%@%@@@**%$@@@$@@$@#@@@#####$#$##$#$##@@##$#$##@##$##@@@@%*&>';;>>>;>>'>;>;&&;;;&-&&&&%-*&*&-,,-&*%*--;@@@@%*&--*&&-",
"@@$@@@@$@$@@$#@@@%$@@$@@@@#$#@@%%@@#@@#@@@#$@%@@%%@%&%#$@%@$@@@##@#@$#$##$##$###$##@#$#$##$##@$#@@%;&&&''*>'''>'>>'>>>->'&;;>;;&**-&*;&****>'&%&&**$@%-;**--&;&-"};
