/* XPM */
static char * close_right_bright_xpm[] = {
"50 160 16 1",
" 	c None",
".	c #DDDDDD",
"+	c #222222",
"@	c #EEEEEE",
"#	c #111111",
"$	c #CCCCCC",
"%	c #BBBBBB",
"&	c #444444",
"*	c #AAAAAA",
"=	c #999999",
"-	c #777777",
";	c #555555",
">	c #666666",
",	c #FFFFFF",
"'	c #333333",
")	c #888888",
"++#+++#+++#+++#+++#+++#+++#+++#+++#+++#+++#+++#++.",
"#++##++##++##++##++##++##++##++##++##++##++##++#..",
"+#++#+#++#++#+#++#++#+#++#++#+#++#++#+#++#++#+#@..",
"#+#+#++#+#+#+++##+#+#++#+#+#+++##+#+#++#+#+#++.%$.",
"++#+#++#+#+##+#+++#+#++#+#+##+#+++#+#++#+#+#+.$@%.",
"#++#+##+#++++++##++#+##+#++++++##++#+##+++#+.$$$..",
"+#++++++#+###+#++#++++++#+###+#++#++++#+#++$%.$$.$",
"#+####+#+#+++#++#+####+#+#+++#++#+###+#+#+.@$$.$.$",
"+++++#+#++##+#+#+++++#+#++##+#+#+++++#++#...$$$$$$",
"+##+#++#+#++++#+##+#++#+#+++#++#+##+#+#+@$..@%$@$.",
"++#++#+#++###++++#+#+++#+##++#+#++#++#+@@>.$$%%...",
"#++##++#+#+++###++#+#+#+#+++#+#++#++#+@@@&*%==%$$.",
"+#+++#+#+#+#+++#+#+#+#++#+#+#++#+#+#+.@..&=***$..&",
"#+#+#+++#++#+#+#++#++#+#++#+#+#+#+#+..$$.&=%%**$&&",
"++#+##++#+#++#+#++#+#++#+#++#+#+++#..%%$@&=.%==;;%",
"##+++#+#+#+#++#+##++#+#+#++#+++##+@@.$$@.&%.*-;-@@",
"++##++#+++#+#++++#+#++#+##+#+#++#.$...@@@&**-&-.@@",
"#++#+#+#+#+#+##+#++#+#++++#+#+#+@.*......&&&&=...@",
"+#++#++#+#++++#+#+#++#+##+++#+#..%%.@..@.&&>$.@@@,",
"#+#+#+#+++###++#++#+#+#++#+#++@.*$%@..@$%;%.*@,@,@",
"++#+#+#+#+++#+#+#+#+++#+#++#+@$.%.$..@*;$$.=@@,@@@",
"#++#++#+#+#++#++#++#+#+#+##+@.*...$..=&*.@.@@@@@@@",
"+#+#+#++#+#+#+#+#+#+#++#+++.$.;.@..@>&%.@@@@@.@.$.",
"#+#++#+#+#++#++#+#++#+#++#@@.%&....;&;@@@,@@@...$.",
"++#++#+#++#+#++#++#+#+#+#@@.$.&@@.&&=.@,@@@..@.$$@",
"+#+##++#+#+#+#++##+++#++@.@$$.&..&&$.@,@@@@@@..$%.",
"+#+++#+#+#+++##+++##++#@@.@.$$&*&>$...@@@.@@@.$$$@",
"++#+#+#+++##+++##++#+#.@.@..$%&&-.@%@@.@@@@@...$..",
"#+#+#++##++#+#++#++#+..$$@$@$=&=@@@=..$....@@.$$..",
"+++#++#++#+#+#+#+#++.$%$$...%;....@-$$..@.@@..$-$@",
"#++#+#+#+#+++#+#+#+.$..$.@.$-...@@.-$%....@@.=&$@@",
"#+#+#+++#+#+#+++#+@.$$@$$..%@..$.@.=$%.$..@@>-@@@.",
"+#++#+#++#+#+##+#@@=.$$.%-%@@$..@.,=$%$%*@*&$.....",
"#+#+#+#+#+#+#+++.$.-)$$.>.@@%@...@.>%%$==;&*..$...",
"++#+#+++#++++#+..-@-%%.-$@.$$@..@.*;%*%;''*...*$@.",
"+#+++##+#+###+...$@-%%&=@..$..$..$*;->&&>..@..%$@.",
"+#+#++#++#+++@$*..@=*>*.$......$..*&&>=$@.$...$%.$",
"#+#+#++#++#+..$....&&*@$$@@..$..@..>>*$@.$$$$$$%$$",
"++#+#++##+#,$%.$.@-*.@@-$@@..$...*@.$*$..$$$..%=$$",
"+#+#+##+++@@.*..$&...@@=.....$.=*%..$%$.$$..$.$%$.",
"+#+++++##...$=.*&%@@,@@*.@...$--;@$.@...@...$.%$$$",
"++###+#+.$.@$=-&$@@@@@$%$.@.>%&*$....=$@$..@$$%$%$",
"#+++#+#@..$.$=>@$,@@@.$%..@%=-,.=.@..$$.@.@...$%%.",
"+#+#++@%$%..%%@....@@.%**$%*@@@@-.$$@.$.$@.$..$%%$",
"+#+#+.%&%$$$.@.@%..@@..=&-%,@@.$-@.....@..$%%%$%*=",
"++#+.$%;*.>@....$...@$.%=,@@.@.$=..@.@.@.@$$$%%%>&",
"#++@.$.;=&.....@$$$@@>@@@@@@@..$=@@@@@.@$.$$.%=;&&",
"#+@.$.@&;*.@$.@@*.*$;@.@@@@.@@.%*@.@.@$$@$$*-&;;=$",
"+...@.;=.@$@$...-%&&..$,@@@@...)%@@@@@.$$=>>&-.@..",
".$@%@&$@@@.@...@&;-..%@$@..@@.@=*.@.@.@>&;&*@.@...",
"..@%&*@@@@....$$%%.$.%@=@@@.@.@=*$$$$$*-*.@...$$..",
"$$.-..,@.@$@.=>@.*@$$$$$....@@@=-.$.*&$@@@..$.$.%.",
"%.-@$=%@.@..=&*.@%..$$$=$@@..,@>-.>&-@@@@...$$$$..",
"$&.$.>...@&-@@;@.=.@$$$*.@.@$$.*&;=$.@@@,-.@$$.$..",
";,.$.>$.$@%,@@&..%.@.$%.$...=*@$=.@@.$$.@&$$@%$$.$",
"%@@..;%*%@@@@.;@..@.%$$.-;;;*@@@@.$@.%%$.&=$$%$$.$",
"@@...;&=$.@@@$;@.@.$%$=%&&-@@,@.$%*$..%$.&)*=*$.$$",
"@...*@.$..@@..>.@$..$=&&=@@..$%.=%%....@@&=%*=%$..",
"@..>=%$%$$.@.@;.@@*-;;*@@@@@.$=.$.%.@..@@&=%%%%...",
"@@>@=@$..$$@@@;$%$>=@@.@@.@$$$;........@.&$.$*%...",
";@@.=$$.$..@$@&*&.@.$$$...@...&.@.$..@.@.&=$*-**>&",
"..@@-.@..$>$*$>*.@@.$$$%.@..*.&.......@$$&&;->-;&&",
"$@..>@$$%=&&$@@.@%.*....$@..$$&@@...=>&;*';>&&;=$%",
".$.@>@.$>&*@@.$*.-$-$%.$$..@%%&$*>&&&'-*.$$%$$$.@@",
"..@.;.*)@.@@$%.%@$@-*$.$....$=&&&&&->-.@@..**.@..@",
"%$*=>=@.$..@$*.$..@-%%$.%$.$-;>-=$$..@@@@@@$@,@@@@",
"$&&,.@$=$...$=@..@@=%$.$>;*$...@@.@$@.@@,@,@@@,,@,",
"=.@$.$=;%$$.$=...%-&->&>$@@@@@$..@@*@@,,@,@@@@@@,@",
"...$.$.;=$$..=-&&&%*;-..@...$..$..@-...@@@.@@..@@@",
"..@%@..;*@*.=;->*.@.*.@.$..$$...@@@-.$..@..@@..@$@",
"*$.$.@%&-&=.@.@@.@@,@@@*$@..$@@..@.-$$..@.@@...$$@",
"...%&&-$-%@....@.@@@@@,-$@......@.@*$%...@@@@.@$$.",
">&%.@..@@@$....@$$@@@.@%.@..$.$.@@.-$%..@..@@$.$%.",
"@..$$$@,@@..$@.@%..@@.$*..@@.$...$%;$%$$..@@@.$.%.",
".@@$.>$..@@....@$..@..$%$@$..$.$.$*;%%$%...@@..%.@",
"@@@.@-.@@.@.@$$,*%$@@.%%...@.$..@.%&=**==@@@.$$..@",
"@@...;..$@$.@..@-$%@@$.-*@.$=.$*...&;>=;;)--;;&;*.",
"@....;$..@$.*$$@&$>$$=.*&=$$-%;=--@=;;;&&'&=$$.@@@",
"@@.;**;;&.&**>>@--'&%.@@*--$%>=>=@..%%$$.$$....@@@",
"%@$.=$$..@@,@,*$.%@..$@@@,@@@@@@%.%$$=$@..$...$.$.",
"..,.=.$$..@@@@&$@*..@%.@@,@@@@@@=.@.@$$.$$$...$...",
"$.@@-$$$..@@@.&.@%.$$%@@@.@@.@.%-..@.$.$..$$..*$..",
".$.@-.%.$$@.@.;.@)@..$@=@@@@@@.$=....*...$$$$.$$@.",
".$.@>@.@$$@@..;@.$..$$$*.@.....$=..$@$$....$.$$%@.",
"$.@@>@$..$.@..;@..@@$$$%@.@@@.$$=@....$......$$%$$",
"->>$;.@$%.$.@@;@@....$$=$@.@.@.=*.@@@....@.@$.$=%$",
"@$%%>=%-*=>.$,;$@..$%$%$.@..@..=%@@@.@@...@.$$%$$$",
"..@@..@.=&&&=%;$%@$$.%%.$@@.@@@=*.@@@@.@@...@.%$$.",
"$...$........@>&-*&-=*=.-*@$.@,==.@@.@....$%$.$$$$",
"%%@...*>.$@@@@..$@.=;&&>&&>.%..>=$$$@@.$.$.$%$%*%$",
"...$@$.;$.....%$@@@.@..$=>&;-*$*;.$$%..$..%$.%$$%$",
"&=$$.@.&*%.@$$$%.*@.$$.@@@@@@,@$&>>*$$%-=*$%.$%%%$",
"-%.-&-@;%$.$$*$$.-.=$$$@.@@@.,@@%%=-;;*=;;>=--====",
"@@.@.=&&=.$..=.$@$.-@.$$..@......@@.$@@@.%>;&&;;&&",
"@@@$$.@$&&-@$=@...@-=%.$.@.$.$*.%$$@@.@@@@@@.$%-;&",
"@.@..*@@.%.%---...@-*$.$$.@...>.=%*..%.@@....@.@.$",
",.@$@>.@@@.@@.>'>-.-$%$..@$.%.&.$.%..$%.,=..$$....",
"&@...>.@@@$.$.@$=;=&%$$.$.@.$.&...%..$%$@;..$.$$..",
"@@%%.;.@@@$....@...=;-$.%...$$&@@.$@@....'%.$$..$.",
"$.@-*>%.$.@@..@..@@.$>&->=..$%&...$..@.@.&=$@%.$$.",
"..@@).*@@@$....@$@,@%$@$%%-%*=&..@.....@.&**$$$$$.",
".$@@=%*'%@@....@$%@@,@..@@@$*;&&>%...@..@&=*=%$$..",
"$...-@$.@.;@..$@$.@.@@@$$.@@@.*-'&&=*@@@@&=%**%..$",
"%$@@-$.$$@-$-@.@%..@@@,>$.$...@.%=&&&&-%.&$.%=%.$$",
"&=@.-.*$..,.*=$@=%.@@$@*$@.$$.$@@@$%;&&;%&=$%%%.$$",
".=;$>@$@$.@,@*>$;$$.@.$*@@..$..$..@..*.**&&-*=.$..",
"..,->@..$$@@@@*@;==.@$$%..@$.@.$@.@%@.@@.%>&--*...",
"*..@>......@@@&..='$@.%%$.@......@@=@.@@@@$-&;-)%.",
"$$@.@;$$$$.@..>..%$&&$.=......$@.@.-@@@@@@.$.-&;&&",
"=$@$$@.;$...@$;$@%...*$=*...@$..@@.-$.@@,@@**.%%-&",
"*.@%..@@&==@@.;@.%.$@.@.&@...$...@@=.$.@@,@@@@.@.%",
"+>*%.$*$.&;@.@;@.=.$.$..=-$$.$.$.$.=$$.@@@@@,@@@@@",
"+#@*@$.>.$>&$@;@.$..$*.@,@;$>$@.@%*-$%..@@..@@@@@@",
"+#+.&..;$.@.-@>@.@.@$$@@@@,.=%**..*;$%.@.@.@@@,@@@",
"+#++.&.;$$.@@.;%@..@$$.$@@@@@-&=..%&%*...@@@..@@,@",
"++#++$&;=$.@.@>$$....$$*@.@@@@,;--.&=%$%..@@@..@@@",
"#+#+++@'*$$@.$@-%@.$$%$$@.@@.@,$$.@;;=%%@..@@@..@@",
"+#+##+#.>..$.$$.*=-$$%$-@@@.@.@@*@..&;$-%.@....$$@",
"++#+#+++%&%.$*$$.@--.$%*$.@@@..%-.%.*-&>=.@@@$.$$.",
"+#+++##+#%>@$=.%.@@=;$$..@.@.@.$-....%*&&*.,.@.$%.",
"+#+#++#+#+@=$=.$.=@@$;-.%@.@.@.$=.@..-$$&';$...$%@",
"++#+#++#+++@=)@$.*...@&*-@..@..$=.$@@$.@@*&;;*$$$.",
"#++#+#+#+#++@--..$.*.$$;&>@.@..==@$$@%$....$$;>..@",
"+#+#++#++#+#+@->..@>.$@@=&*..@@=%@..@%....$..@%;%@",
"+#+#++##+#+#+#@;;.,-..$@@.&*$,@=*@@..$$..$$....@..",
"++#+#+++++#+#++@-&.-=$$$@@@&-$,=*.@@..$..$$$@$.@@@",
"#++#+####+++#++#.--=*..%..@@$*.>=.@@@.$.$..%..$..@",
"++#+#++++#+#+##++@$&%%%..@@.@@.==$@@@@.@@...$.*...",
"#+#++#+#+#+#+++##+.==$$$$@@..,@%;.$@.@..$...$$$$..",
"+#++#+#+#+++#+#++++.&=$...@$..@@;%$$@@..@..@.$$$..",
"++#+#+++#+#+#+#+##+#$&=.$@$.$$$@$>>$$@.@..@.$.%$..",
"##++#+##++#++#+#++#++$&*%@...$=$.@=;...$...@$$.*.@",
"++#+#+++#+#++#++#++#+#@->$..%.;.%.@%&*.$@$$$.$$*$$",
"#+#++#+#+#+##++#+##++#+.$>....&.*%.@$-*>$@$$$.%%%$",
"+#+#+#+#+#+++#+#+++#+#++@@=$%$&.$%*..@.-;$$$%.$$.$",
"+#++#+++++#+#+#+#+#+#+##+.@*$%&.@.%..@@@-;*$$%%%$.",
"+#++###+#+#+#+++#+#++++#+#@.>=&@..%..*@@,=;*.%$%%$",
"#+#+++#+#+#++#+#++#+##++#++@@;&......$$@@@=;-$$%%$",
"++##++#+++#+#+#+#++#++#+#+#+.$&;@.$@..%.@.@$&&%%%$",
"+#++#++##+#++#+#+#++#+#++#+++@.&&..$@.$$@*...;;=*$",
"+#+#+#++#+#++#+++##+#+#+#+##+#.$>&...@.$@;.@.@-;>=",
"++#+#+#++#+##++##++++#+#+#++#+#@$;'@...@.&..$.@*&&",
"#+++#+#++#+++#+++##++#++++#+#+++..&;.@.@.&*.$...%&",
"+#+#++#+#+#+#+#+#+#+#++###+++#+#+@$;&.@.@&=$$.$$.$",
"+#+#+#++#+#+#+#+#++#+#++++##+#+#+#@$;&$@@&*%@%$.@.",
"#+++#+#++#+#+++#++#+#+###++#++#++++$%>&$.&=*$$$$$.",
"+##+++##+++#+#+#+#++#++++#+#++#+#+++.%-;.&*%=$$.$.",
"++#+##++#+#+#+#++#+#++##+#++##+#+###+@@**&%$**$$$.",
"#+++++#+#+#+++#+#++##++#+#+++++#++++##@@$&>.%=$$..",
"+###+#+#+++#+#+#+#+++#++#+#+###+##+#+++@.=&*$%%...",
"+++#+#++##+#+#+++#+#+#++#+#++++++#++#+#+..=;**%.$$",
"+#++#++#++#+#++##+#++#+#+#+##+##+#+#+#+++@.;>=%..$",
"+#++#+#+#+++#+#+++##+#+++#+++#+++#+#+#+#+#..&>%$.$",
"+#+#+#+#+#+#+#+#+#++++##++##++#+#+++#+#+#++-$&-.$.",
"+#+#++++#++#+++#+#+##++#+#++#+#+#+#+++#++#++*%&-..",
"#+++###+#+#+#+#+#+#+++#+++##+++#+#+#+#+#+#+#+@*&;.",
"+##++++#+#++#+#+++#+#+##+#++##+++#+#++#++#+#+#.$&&",
"++#+#+#++#+#+++##+#+#+++#++#++#+#+#+#+#+#++#+++.@&",
"#+++#+#++#+#+#++#+#+#+#+#+#+#+#+#+++#+#+#+#+##++@*",
"#+##+#+#++#+#+#++++#+#+#++#++#+++#+#+++#++#++++#+,"};
