/* XPM */
static char * cmp_north_xpm[] = {
"40 40 17 1",
" 	c None",
".	c #FFFFFF",
"+	c #222222",
"@	c #666666",
"#	c #555555",
"$	c #333333",
"%	c #AAAAAA",
"&	c #111111",
"*	c #EEEEEE",
"=	c #000000",
"-	c #444444",
";	c #888888",
">	c #777777",
",	c #DDDDDD",
"'	c #BBBBBB",
")	c #CCCCCC",
"!	c #999999",
"........................................",
".*..*..*..*..*.,,*..*.@$).*..*..*..*..*.",
"............,)))&+%...@$%'%)............",
"*..*..*..*,'''),=+$.*.%#,'%>>%,,*..*..*.",
".........'%')*,.=;=$..%-,)%!>@>'........",
"*..*..*)%%).,,*,&.@=%.%#,)%;>@@#',.*..*.",
"......'=#,.,****&..&$*%#,)%!>@##++).....",
"*..*.,>&&@,.,*,,&*.'&$%#,)%;;@@+=&;*..*.",
".....%'%&&@,,,*,&...#&>#)'%!>@+&=+#,....",
"..*.'%,,;=&@*,,,=,.,.)&-)'!;;+&&$#-@..*.",
"...)%',*,%&>,,%+&+',*,##%%;>@$&$-#$$%...",
"...%%),,,)',))))),,,,)''%;!;@@-##-#$#,*.",
".*,%'))),))))))))'''''%%!;>>@@#-#-$$$!..",
"..%;')))))'))'''''''%%%%!>;@@###-#$-$#*.",
".%;%''))))'''''%%%%%%%;>>>@@>###--$$-$,.",
"*&#@%''''''''%%'%%%!;;!!;;@@@#-#-#$$++%.",
".;@$&=@%%'%%'%%%%;%!!;>>@>@@@##-$$$$$+@.",
".!!%%%>#$;'%%%%;%!;;;;>;@@@@##$##$-++--.",
".;>%%@#+&$%%%%%;!;!>!>>>@@@###=-$$$+++$)",
".@-&=&+@%%!%;!%;!;!>>;;@@@@@#-&&&=&&=&&=",
".&&=+@;!;%;!;;!;!>>;>@@@@##-#-&++++=&+=@",
".@@!-$+@!;!;!!;!>;>>;>>@@#@-#$=$$++=++$%",
".;@!>!>+++!;>>>>>;>@@@@#@##-#$&+++&=&+#%",
".%@>#++&+#>>!;;>;>@@@@@###-#$-=$++=&=+@;",
".+&&&=-@;>;>>>>@@@@@@@####-#$$&+++++=+>-",
".++$@@;>;>>;@@@@@@>@####-#$$$+==&&+&+=#-",
".)>@@@@@@@@@@;@@>@#@##-#-$-$-$$++=+=+$..",
"..'@@@@@@@@@@#@@#####-#-$#$-++++++=&+!..",
"...@#@@@@@$@@@##@-#-#-$-$$++$+=+=&=++*..",
".*.%#####+&+-###-#-#$#$$-+-++&&=+&=+!.*.",
"....>#-@+==$##-#-#-$$$-$++$+&=&=&=+-....",
".*..,-#&&&+#--#-$+&&&&++$++++&=&=&+)..*.",
".....'+&=+#$$$$$+=$+$=&+++&=+&=&=&@.....",
"..*...%+$$$#$-$-=++$++=++++=&=&=&$.*..*.",
"....*..'#$$-$+$+&&++$+++=&&=&=++%.......",
".*....*.,@$$$+$++=&=&=+=+=&=++#)*..*..*.",
"...*......%--+++++=&=&=&+++++;..........",
".......*....;#$$&++++&=+&+$;....*..*..*.",
".*..*.......),%%+$$+++&@;,..*...........",
"......*..*...*..--@%%>@..*...*..*..*..*."};
