/* XPM */
static char * cmp_east_xpm[] = {
"40 40 17 1",
" 	c None",
".	c #FFFFFF",
"+	c #222222",
"@	c #777777",
"#	c #444444",
"$	c #AAAAAA",
"%	c #EEEEEE",
"&	c #000000",
"*	c #555555",
"=	c #666666",
"-	c #333333",
";	c #111111",
">	c #CCCCCC",
",	c #BBBBBB",
"'	c #DDDDDD",
")	c #888888",
"!	c #999999",
"................>$$$$$$$,...............",
".%..%..%..%..%.'%$;@$$)-*.%..%..%..%..%.",
"............'>>'%%&$..%$-,$,............",
"%..%..%..%',,$''..&$%.$.@$$!@$''%..%..%.",
".........,$,''%%%.&$%@$.>>!)@=@,........",
"%..%..%>$,>''%%%%.;&&&!.'>,!)*=*>'.%..%.",
"......,&*%.%%'%%.%;$'#$%'>$!@@=#+;>.....",
"..%.%%@&&*.''%%%%.&$.,$%$>$!@*=+&;)%..%.",
".....,,$;&=%'''%'.&$.%.'=$$!@@+;&+*'....",
".%..$$>'$&&=''''%%&$.%>@-,))@+;&##-@..%.",
"...'$>'''$&@'''>$+&&&;;&#$!@@#&-*##-$...",
"..%$$>'''','>>'>''>'>,>$$)!@*=#=*##--%%.",
"..'$$>>>'>>>>,>>,>,>>,,$$)@@@=*####--$..",
"%.!$>>>>>>>>,>>$,,,,$!$))@@==*==##-#-=%.",
".%)$$>$>>>>,,$,,$,!$$$)!!@@@=*#*##-#+#>.",
".>!!,,,,,$,,,,,$$$$$))!@@@*=*==*#-#-++$.",
".$)$$,,$,,,$,!$$!$)$)!@@@@@=**##*---++@.",
".++#---#-#$$,$!$$))!@)@@@=*==#*##----+#.",
".#*=@@@=&#$$!$$)!!)!)@@@@=*==#+&++++;;&@",
".@@$!$;;)$$!$))$))!@)@@=@*=*##++--#&&++@",
".@@)*+;+)!))!!)!)@@)@@@==*==*#&-#++;&-+$",
".@@+;&@!$)!!))!@!@@@@@=@*=*###;-#++&++-$",
".=;&#)@)!*)!)@)@@@@)=@=*=#=##-;++++&;+#@",
"%+;#@@!@)+!@@@@@)@*@=**==#*##-+;++&&++--",
".&&;;&;&;&@@@)@@@=@*==*#=##-#-#;&&;&+&+=",
".>=*@=@@@+@@@@@=@*==**=*#-*-#++++++;++>.",
".%@=@*@=*==@==*==**==###*-#-#+-++;&;;#..",
"..,*=@*=@**=*@*=*=*=##*#*--#++++;+&;+!%.",
"...*==*===-===*=**##*#--#-+#++++&+;++...",
"%..,#*=**+;;***###*####-#+-++&&&&&&+).%.",
"..%.@*#*+&;-*##*#*-#---#++-++;&;;&+#....",
"....'=#+&;-*##*#++-#-+++-++;+;;&&;;'..%.",
".%..%,-;&+-###-#;;--+&;++++;;&&;&;*.....",
".....%,++#--#--++&+++&&++;;+&;&&+-.%..%.",
"..%....,#*-#--#;++;+;+&&+&;&&++;,.......",
".....%.%'=-#+++;+;&+&+&;&+&;;+#>...%..%.",
".%........$-#++;++&&&+&;&+;++!..%.......",
"...%...%.%..!#+&++;;+++&+;#).%.....%..%.",
".....%.....%''#@@#+&+--&#>.....%........",
"..%.....%....$+>..>&>..#;>.%....%..%..%."};
