/* XPM */
static char * cmp_south_xpm[] = {
"40 40 17 1",
" 	c None",
".	c #FFFFFF",
"+	c #222222",
"@	c #777777",
"#	c #666666",
"$	c #555555",
"%	c #000000",
"&	c #444444",
"*	c #AAAAAA",
"=	c #111111",
"-	c #333333",
";	c #888888",
">	c #DDDDDD",
",	c #EEEEEE",
"'	c #CCCCCC",
")	c #BBBBBB",
"!	c #999999",
"........................................",
"...............,>.....-$>...............",
".,..,..,..,.>)'>>#@**#-&'**',..,..,..,..",
"..........>)))'>.=....@$>';;@*>>........",
".....,...)*)>,,..%;.,..$>'*!@#@)........",
".,.....'**',>>,>.-+@*>..>'*;;##$)>,..,..",
"......)=$,.,,>,.,.$%%%-,,'*;@@#&++'.....",
"..,..>@%%#>>>,>>.>..>*=+>'**@##+%%;.....",
"....,*)*%%#,,>,,>;....;%')*;@@+=%+$>,...",
"..,.)*',*%%#>>',,%#..,&#'*!;@+%%&$-#.,..",
"...>*'>>>*%@>>'>>#$%%%@')*;@@&%-$&-&*...",
"...**'>>>>)>''''''>'>'))*!;@##$$$$&-&>..",
"..'!)'''>''>''''''')')**;;@@@$#$&-&-&*..",
"..**)''''''''))))*))***!;!@@$#$$$&-&-$..",
".>;*)')''))))))*)****;;;@@@###&$$-&+-+>.",
".'!*))))))))))****;*;!!;@@@##$$$-&-&+-@.",
".-+#;)*;&-)*******;!;;@;@@#$#$$$-&-++==.",
".+#***)*#%******;*;!;!@@#@##&$$-&+%=%==.",
".$@@#@@@!%***;*!;!;!@@@@@###$$-+%%+=++-.",
".$;!-%+@*%!*;*!;!;!;;@@##$#$$-=%+-+++++.",
".$@;!%;!;%!*;!;;!#@@@@@###&$$$&-+%+=+++.",
".-$#$%###%!;;!;!;!@@@@@###$$$&-&&++%%%%.",
".%%%=%%%=%;!@;@@@@@@####&$$&-&-++=%=%+-.",
".@@@@@@;@=!@;@;@@@@##$##$$$$&-+%%%==++#.",
".)#@@!@@@#@@@@@@@#####$&$$--&-++=+===+;.",
".>#@@@@@@@@@@@@##@###$$$&$&&-&++===%==*'",
"..@###@@@@#@######&$&$$-&--&+&+++=+%=++=",
".,)#####$######$#$#$$$$$-&&-+++++=%=+;**",
"...#&#####-#$$$$$&$$&&-&-&+-+++==+%++...",
"...*$$$&$+%=$#&$$$$&-&-&-&+++%%%%%+=;...",
".,..@&$$+%=-$$$-$--&-&-+++++++%=%%=$....",
"....>$$+%%+$--$&=+&-&++%++++===%%=+',...",
"...,.)+=%+&&$&-&=%&+-++%++=+=%%=%%@...,.",
",.....)=&&-&--&-++%%+++%+==%+%%+%&......",
".......)-&-&++&+%++=%++%+=+%%+=+*.......",
"...,....>#-&-+++=++==%=%=%%+==$>.,..,...",
".,....,...*&-&++%=+=%=%=+===+;........,.",
"...,...,...,;&-++++++%%%=+&!..,.........",
".........,..>>);=+&+++=%@>.......,......",
"...............>&@........,.........,..."};
