/* XPM */
static char * cmp_west_xpm[] = {
"40 40 17 1",
" 	c None",
".	c #FFFFFF",
"+	c #444444",
"@	c #333333",
"#	c #777777",
"$	c #000000",
"%	c #222222",
"&	c #666666",
"*	c #888888",
"=	c #111111",
"-	c #555555",
";	c #AAAAAA",
">	c #999999",
",	c #BBBBBB",
"'	c #EEEEEE",
")	c #DDDDDD",
"!	c #CCCCCC",
"........................................",
"...............').....)';=;.............",
".'..'..'..'.),>=@.',$!.);=#,.'..'..'..'.",
"..........';;,)+=...$*.';&>*#,))........",
".....'...;;!!''>$...$%..+*,*#-#,........",
".'.....!;,))')')$>.*@$..=,;>##-&,)..'...",
"......;%+'.)'''.$&.+,$>'$!;**&&+%=!...'.",
".'..''#$$&)'')')>@)@.@#>*,;>#&&%$$*.....",
".....;;,$$#))')')$&;.;@#!,>>##%$$@+)....",
"....,;)'>$$&)))')+=.'.=+!;;*#@$$@++#....",
"..')>,)))>$#))!))>+'))+*;>**#@$-+-+@>.'.",
"...;,!)))',)!!!!!!)))!!,;;*##&+-++@++'..",
"..!>,!!!!!!!),),),,,!;;>>*##&&&+-++@@>..",
"..,>,!)!!!),,!,!;!;,;,>;**##&--&+++@@-..",
".)*>,,!,!,,!,,;;;,;,>>>**##-&&+++-@@@@).",
".)*,,;,,!,!;,;,;,>>>>**##&##&--+++@@@%>.",
".;*;,;,;;,;;,;,>>;>>*>**##-&-&=++@+@@@&.",
".@@@;,=$-;,,;>>>>>;***###&#-&+=$$$$$$$$.",
".%@>>%=&@->>,>;>>****####-&-&+=+@@@%=$$.",
".@*;*$#>>$;>>>>;*****##&#&-&++@++@%%$$%.",
".+**&$*>>$>>;*****#####&-&-&++-@@%$$$@%.",
".&#*+$*;*$>******#*##&##&-&+-++@%$$%=%@.",
".+#+$@**+@*****>#####&--&+++++@@$$%%=%+.",
".+%$%*#-$@**#*#####-#-&&&--+@+=$=%==%=@#",
".;&#####*#######&##&&--++++-+@=%$$$$$=%@",
".'-##########&###-&--&---++@@@%@%%=%=%;'",
"..#-#&######&#&-&-&&-++++-+@@@%%%===%+..",
"..;&&&--&-&--&-&&-&++&-+@+@@@@%%=%$=%*..",
"...--&&-&-+&-&--+&+&++++@@@@%%=%==$=@...",
"...;&-&-&%$=&&+&++++++@@@@%%%$$$=$%=*'..",
"....#+++@$$@++++-++@@+@@@@%%%=$$$$%+....",
"'...)&+%$$@++-+=$=$$$$=%@%%%%==$$$%!....",
".....,@$$@++++-=%@@@%$%%%%====$$$$#..'..",
".'....;%@+@@@@@%@%%@%$%%===%$$=%=+......",
"...'...;-+@@@@@@@%$%=$%=%==$==%=,..'....",
"........)&++@%@%%=$$$$===$$===+!'....'..",
".......'..>+@@@%%=%=$==%=%%%@*..........",
".'..'.......*+@=@=@%%$%%%=+*............",
"............!);@&+@%=$+&>!.......'..'...",
".......'.......&@*,;#$,....'..'......'.."};
