/* XPM */
static char * done_xpm[] = {
"40 12 4 1",
" 	c None",
".	c #CCCCCC",
"+	c #000000",
"@	c #EEEEEE",
"@@@@@@@@@@@@@@@@@@@@@@@@@@@@@@@@@@@@@@@+",
"@.....+++++............................+",
"@.....+....+...........................+",
"@.....+.....+...+++...+.++....+++......+",
"@.....+.....+..+...+..++..+..+...+.....+",
"@.....+.....+..+...+..+...+..+...+.....+",
"@.....+.....+..+...+..+...+..+++++.....+",
"@.....+.....+..+...+..+...+..+.........+",
"@.....+....+...+...+..+...+..+...+.....+",
"@.....+++++.....+++...+...+...+++......+",
"@......................................+",
"@+++++++++++++++++++++++++++++++++++++++"};
