/* XPM */
static char * far_right_bright_xpm[] = {
"10 24 12 1",
" 	c None",
".	c #333333",
"+	c #DDDDDD",
"@	c #EEEEEE",
"#	c #CCCCCC",
"$	c #222222",
"%	c #999999",
"&	c #888888",
"*	c #BBBBBB",
"=	c #AAAAAA",
"-	c #777777",
";	c #666666",
".........+",
"..$..$..#+",
".......+##",
"..$..$+=@+",
".....@&@++",
"..$.@*@#++",
"...+&+=##=",
"$.@+-+@*=+",
".++%+*##++",
"@@@-@@&&%+",
"@=+;*@@+++",
"+@++-;&=#+",
"+%@%+@+#*+",
"@@*++@+%%%",
".##+#&&*#+",
"..#%-+@=%+",
"...#@#*@@@",
"...$@#++##",
".$...+%#*+",
"...$..&+#+",
".......=+&",
"$..$..$.#+",
"........$+",
"$..$..$..."};
