/* XPM */
static char * loading_xpm[] = {
"160 25 40 1",
" 	c None",
".	c #BBBBBB",
"+	c #444444",
"@	c #000000",
"#	c #333333",
"$	c #111111",
"%	c #222222",
"&	c #B0B0B0",
"*	c #555555",
"=	c #666666",
"-	c #ACACAC",
";	c #757575",
">	c #090909",
",	c #AAAAAA",
"'	c #CCCCCC",
")	c #999999",
"!	c #030303",
"~	c #6F6F6F",
"{	c #BABABA",
"]	c #616161",
"^	c #777777",
"/	c #DDDDDD",
"(	c #5C5C5C",
"_	c #636363",
":	c #141414",
"<	c #888888",
"[	c #262626",
"}	c #7D7D7D",
"|	c #3E3E3E",
"1	c #545454",
"2	c #A6A6A6",
"3	c #2A2A2A",
"4	c #686868",
"5	c #C6C6C6",
"6	c #040404",
"7	c #080808",
"8	c #858585",
"9	c #151515",
"0	c #AEAEAE",
"a	c #929292",
"................................................................................................................................................................",
"..........+@@@@#................................................................................................................................................",
"..........@@@@$%................................................................................................................................................",
"............@@..................................................................................................................................................",
"............@@..................................................................................................................................................",
".........&*+$@%#=-..............................................................................................................................................",
"........;>%=,')=$!~.............................................................................................................................................",
"......{]@^//.''..=@({...........................................................................................................................................",
"......_:,//.'*..,,<[^.....@@..............................}@|.@@.........................|@@@@12.}@@@@312......1@1.....@@@.....4@@|.............................",
"...5._6,/''.*@.,,,,^78....@@..............................}@|.@@.........................|@@@@@9.}@@@@@@92.....9@9.....@@@}....3@@|.............................",
"....,@^'/'''*@,,,,))*70...@@......21|1a.....4||a2}a...4||a}@|.}}.2}a4||4....21|12a}2.....|@}.29@a}@|..a9@9....}@@@4....@@@3...2@@@|...4||a2}a.}}}}}a...a||4.....",
"....*%//..'.+@,,)<=)<$*...@@.....}@@@@@}..29@@@@|@|.29@@@@9@|.@@.}@@@@@@|..}@@@@93@}.....|@}..|@}}@|...29@}...3@4@3....@@3@2..4@|@|.29@@@@|@|.@@@@@|..|@@@@92...",
"....+=''''..+@,<%@@<<++...@@....a@@1}1@@a.|@94}3@@|.|@94}3@@|.@@.}@@|}|@@22@@|}49@@}.....|@1}4@@2}@|....4@|..a@9.9@a...@@}@4..9@}@|.|@94}3@@|.|||@@|.4@94}3@|...",
"....%,'.'..,+@$@@+<<^*%...@@....3@4...4@32@@2...3@|2@@2...1@|.@@.}@9...9@}4@3...a@@}.....|@@@@@|.}@|....}@|..1@1.4@|...@@.@3.a@1}@|2@@2...3@|...}@92.9@2...3@2..",
"....@'.'..,,#@@+)<<^^=@...@@....@@.....@@}@|....}@|}@|....}@|.@@.}@|...|@}|@}....@@}.....|@3||}..}@|....4@|..@@@@@@@2..@@.|@21@a}@|}@|....}@|..}@@2.a@@@@@|9@}..",
"....$)'..,,,)=))<<^^^*%...@@....@@2...2@@}@3....4@|}@3....}@|.@@.}@|...|@}|@4....@@}.....|@}.....}@|...29@}.4@@@@@@@4..@@.}@199.}@|}@3....4@|.29@}..a@@||@@@@}..",
"....#=..,,,,)))<<^^<=##...@@....1@|...|@|.@@}..29@|.@@4..29@|.@@.}@|...|@}}@92..4@@}.....|@}.....}@|..}9@9..9@4...a@9..@@..99@1.}@|.@@}..29@|29@}....@@}..2}}...",
"....=$.,,),)))<<^^^==%*...@@@@@}29@@9@@92.1@@93@@@|.4@@@3@@@|.@@.}@|...|@}.3@@39@@@}.....|@}.....}@@@@@@92.a@@.....9@}.@@..1@@a.}@|.1@@93@@@|}@@@@@@.4@@9|@@|...",
"....,@=,,,)))<<^<^==#@,...@@@@@}.23@@@32...49@@9|@|..}9@@9}@|.@@.}@|...|@}.2|@@@|3@}.....|@}.....}@@@@312..|@1.....4@3.@@..a@3..}@|..49@@9|@|}@@@@@@..}9@@@1....",
".....*@<,)<)<<^^^=^+@*..............}........a2........a2.................2}}.}.2@@2...................................................a2...............2a......",
"......#$^))<<^^^==+@+.....................................................29@9||@@|.............................................................................",
"......,#@*<<^^^=^#@#,......................................................23@@@@|..............................................................................",
"........*@$+===#%@*.............................................................................................................................................",
".........,*#%@$#*,..............................................................................................................................................",
"................................................................................................................................................................"};
