/* XPM */
static char * middle_center_bright_xpm[] = {
"66 66 13 1",
" 	c None",
".	c #DDDDDD",
"+	c #EEEEEE",
"@	c #CCCCCC",
"#	c #BBBBBB",
"$	c #AAAAAA",
"%	c #999999",
"&	c #888888",
"*	c #666666",
"=	c #555555",
"-	c #777777",
";	c #444444",
">	c #FFFFFF",
"..@..++.+....+.+++++..@..++.+....+.+++++..@..+..+...+.++++++@.@.++",
".@@.*.$@.$@@$.@.+.@@@@..&.$.@##@$.@.+.@@@@.@$@#.@#@$@@....@.@@.#$@",
".@##*+.+..@.&.@..+@.@@#$-+@+...@%.@.+.@.@@#%&+....@#$@..+.@@@@#&#+",
".@##*+......-@@....@.###*+...@+@%@.......$#%%+.....@%@.......#$&$+",
"@@$$=$#$$%$%*#@..#$..$$%*$$$$%%&&$@.@$#..$#&&$$%%%$*%#@.@$#.@$$-%$",
"*-**$@$*&&&%$#@@@#%&--*&$@%*%&%%$#@.@#%&**-&$#%&&&%%##@.##%-*--&#$",
"..+@++++@++.....+.@+...@++++@+........#++.@.+++..+........@+.+@+++",
"++++++++&+...+@@..&@>+++++..%++...@.+.*++++>+++@$++@+.@.+@*+++++++",
"++.++.@@%.+.....+.$@++++++@@%.+.+...+.&+++.++.@@%.+.....+.&++.+++.",
"..++.+.@&.@......+$.@..+...@*+..@..+..%.@.++..@@&+..@..+..%+@.++..",
"@@.+.@#$*#+@..+...%@@..+.###*@...@....&.@@++.##$=.........*+@.+..#",
".%%#%*-*=@@$&%%@@%;@@%%$%**=*@@$%%%@@&=.$%%$&*-;&@@$$&$@@**.$%$$**",
"+..@$$#$..#%@#.....++..#$##$.+$%@#+.@..++..$####..%$#@+.@.+.+.@#$@",
".#.@..@@+.#%++++++++.#..@.@...$#++++++++.#.@@.@.+.&.++++++++@@.@..",
".@.@@.@.@.#%+.+.+++#.@@.@.#...$$.+.+++.@.@.@..#.@.-@..++++@.@.@@..",
"@#@.+.@.+.@&..++++.#@#@+.+@+.+$$..++++@##@@+..@+.+%@.+.+++@#$@.+..",
"@#...++.++.*++....#$@@...+.+.+@%.+...+##@@...+.+++$#.++.+.$@@@@..+",
"@##@@..+.+#-+++.+.@.@##@.@..++$%+++.+@@.#@#@...+..&@+...+@@.#@@@.@",
"&%$$%%@.@@$-+$##&=%$&%$$%%.@@@%&.$#$&=$$&%$$%%@@@@-#@##$*=$%&%$$%$",
"$#$$#@.$%%%#++@#$#$%$#$$@@@%%%%@>+@##$$$$$$$@.@%%&%+++###$#$#$##@.",
"@.@.@+.@+@.....+++++@....+...@.@.+.+++++@....+@.+@@...+++.+..@@.++",
"@.@.*.#..#@@%....+@@@@@@-@#.+#@@$@@@+.@@.@@#%@#..@@$@@@.+.@@.@.%$@",
"@@#$=+...@..&@@....@.@#$-+...@.@%......@@@#%&+...@.@$.@.+.@.@##&$+",
".@#@*++.....-@...+..@@$#*++...+@&@@...@+@##$&+.....#%@....@..##%#+",
"#$%&;%&-&-*-=$#@@%%#@$%-*&---*-**$#@@%%@#$%*&&&-&-**&$@@#%$##%%=&&",
"&&*%@@@%$#@@@....@@%&&&$@@@$$#@#@..+.@#%%*&$@.$$$#@#@@...@$%&&%$.@",
"+++.++++#+..@.@...#+.+..++++#+....@...$+++.+++++@+.@+@@...#+++@+++",
"+++++++.%.+..+@...&@>++++++.&++...@.+.*+++++++.@$.+.+.@.+@*+++++++",
"+.+++..@%.++@...+.$.+.++++@@%.+.....+.%+.+++++@@%++.....+.&+.++++.",
"@..+...#&@@.@..+..$@@.+...@#*...@..+.+&+#.....@@*...@..+..&+@.+...",
".@.+.###=@+..@....%@@..+.###=....@.@..*.@.++.$#%*..@+@...@-.@.++.$",
".%%%-=***.$&&*%##&=.@%$&*;-=&@#&*-%##-*.#%$&*=-=$@$&&*$##**+$%%*=*",
"+..@@.@$.@@$+.+.+.++...@@.##..$@+.++.++++..@@@##@+%@..++.++++@.@@.",
".@.@.@@@+.#%.+++++++.#.@@.@.+.$#.++++++..#.@@.@.+.&.++++++++@@+@@.",
".@@.@.@...#%..++.+.#+#.@.+#.@.$$.+.+++@@@@.@.+$+@.&@..++.+@@@@.@..",
"@$..+.@+.+.&+.++++@#@#@+..@+++#%..++++@@#@@+..@+.+%@..++++@##@.+..",
"@@.@.+++++.*.+..++@##@.@.++.++@%+.+..+$##@...++.++%@+.+..+$@#.@.++",
"##@#.@....#-++...@#.@#@@.@.+..$%++..+#@.##@@.@+++@&#++..+$@.#@#@@@",
"*&&&&&#$$#$-.#$%*;&&*-&&&&#$#$&%.$$%*=&--&&&-%$$#$-#@$$&=;%*-&&&&%",
"#@@@@.+@#$#.+++@..@@@@@@.++###$.++.@.@@@@@@@.+.####+++@@.@.#@@@@++",
"@.@.@+@.+@@@@..+.++..@@.#+@..@.@@..+++..@.@.@+@..@@@@.++++...@.@@+",
"@.@@*.#..#@@&@@@+.@@@@.#*.#.+#@@#@@.+.@.@@.$%@#..@@##@@...@.@@.%$@",
"@@$#=+......&.@..+.@.@$$-+.....@%@@...@@.#$%&+.....#$@..+.@.@#$&#+",
".@#@*++.....-@....@.@@$@*++...+@&@..+....##$&++...+#%@...@...$@%$+",
"$%&*;%*=*====%$@#&&#$%&*=&==*;==*%$@$&&$$&&=*-======-%$#$&%$$%*=&*",
"$%%#@+.#@@...+.+.+.$#%%#...#@@...++.+..$#%%@++@@@@...++++.@$$%%@.+",
"++++++++#+..@.@..@%+.+++++++#+.@.@@@.@%+++++++++@+.@.@@...%+++++++",
"++.+++..&.+.+.@@+.%@+++++++@&++.....+.&.++.+++@@%++.+.@..@*+++++++",
"+.++++.@%++....+.+$..+.++.@@%++.....+.%...++.+@@%++....++.%+..++..",
"@@...@.#*@@.@.....%.#..+..@#*.@..@+...%+#.+.+@@#*.@.@.....&+@@++..",
"...++$#%=@+@@#@...-@.@+..$#%=@+@@@@...*@.@++@$$&*.+@@#...@*.@.+.@$",
".$$-;=-*%.$--*%$%-*.@$$-;=**#.%***#$%*&+@$&*==**@@&*-*$$%*%+$$%=;*",
".....+##@@@#+++>+>+++@...+#@@@@@++++>+++......#@@.#++++++++++@....",
".#.@@.@.+.#%++++++++.@@@@.@...$#+++++++..@@@..@...&@+++++++..@.@@.",
".@.@..@...#%..+++..$.@....#...$$..++++@#@@@...#+@.&@@.++++#@@@....",
"@$@.+..+.+.&.+.+++.$@#@+.+.+.+#%.+.+.+@##@.+.+..++$@.+.+.+#$#@.+..",
"@@.@...+++.*++...+@@#@@@.+.+++@%++..++#@#@@..+.+++%#++.+++#@#@@.+.",
"#@@@@.....$-++.+.$#.##@@@@+..@$&++.+.%@.##@@@@+..@&#+...@&..#@@@@.",
"=****-$%%%&-.#&-;;**=**-*-$%%%*%.$&*;;-*=***-&$%%%*#@#&*;;****=--%",
"...++++..@@.++.+++++...++++@..@++++++++.+..++++.@@.+++++>.+..+..++",
".@@.$.@@.@@@#+..+....@@.$+@..#@#@....+..@@@@#.#..@@#.@..++.@@@.@@.",
".@@@=.@..@..&.@@+.@.@@.$*.@..@.@$@@.+.@@.@.$&@@.@@.#$.....@.@@@&#.",
"@@$$=+.+.@..*....+@.@@$$-+...@.@&.@....@.#$%%+.....#$@@.+.@..$$&$+",
".@#@*..@.@+.-#@...@..##@*......@&#...@@..##$&.+....#%#...@@.@#@%#.",
"*&***%*==;==*$$@$&&%&-*=-&======-$$@#&&%&**=%-;=====&$##$&&&%**=%*",
".#$$+.+@..+..+++++.@@###.+.@@.+..++++..@.##@.+.@@...+.++.+@.@#$@++"};
