/* XPM */
static char * middle_right_bright_xpm[] = {
"21 66 15 1",
" 	c None",
".	c #333333",
"+	c #EEEEEE",
"@	c #DDDDDD",
"#	c #CCCCCC",
"$	c #BBBBBB",
"%	c #222222",
"&	c #444444",
"*	c #AAAAAA",
"=	c #666666",
"-	c #888888",
";	c #555555",
">	c #999999",
",	c #777777",
"'	c #FFFFFF",
".....................",
"%..%..%..%..%..%..%.@",
"...................@@",
"..%..%..%..%..%..%+@+",
".................@$##",
"..%..%..%..%..%.++@@@",
"...............++**$&",
".%.%.%.%.%.%.%+,@$>&+",
".............+#@+;&++",
".%.....%....+$+@*#+++",
"...%.....%.+*@#&+++++",
"......%...+#$@&+++@#+",
".%.%.....++#*=#+++@@@",
".....%.%+#@#*+$@@+#&+",
"...%...+#@@+#@@@#@#+@",
"%.....@&#=+@@+=#&#@*+",
"....%+@&-@@@+@&>@@@$$",
".%..++@=+;+@@=@$@#@$@",
"...@@+=++-+;-+@>@+@$@",
".&++@@++@&-++@@#+#*#=",
"&@+@++#@*++@+++#@#-=$",
"+@;+@#*.#+++@@@+&&+@@",
"#&+++*$#$#@+@+$#+@##@",
"*+@+*&++$$@*+*+@+@@#$",
"$#&++&+##*=+@$@*@$*@@",
"*-@#+&@&@++@*@@@+#*#@",
"+=+#+&@#@$@#*@@#*&;&=",
"#=>=+#@&#@@*&&,$+@#++",
"=++@+@@&#;*++@#++++++",
"@@+#@&;@#*$@#+$$+++++",
"$&#$+@+++&+@++#@@+@#+",
"$@++#+@++,@@@$,$@+@#+",
"$@@+#@*@#&+=$$&=&&&;+",
"-&;+@-$+++++++@$+#@@@",
"+=+@+&@$$+++@@@$@#@$@",
"#;+#@&++$#++++@*@@@*@",
"+#=;@&+###+@@++@@+#$#",
"#+@#++$>&>-###@@@##$#",
"*=+#@@@-@++++&-$=$+$#",
"$@+&#+@&$#+@$@++++-&&",
"*@++@+&&#@##*@@,+@$@@",
"+=#@@+++;&+$$@@#+###@",
"@;+@##@++=+#&,@@+>>#@",
"==@@+*$@@=+#@+-&$$$@#",
"@-@#+&$@@;+@#@#@+=-#@",
"$@+$@&@#@&+@@@$++@#&&",
".@@@$&+@*+->@$#@+++++",
"..*#+&+@*+'+-+;#+++++",
"...@+#-###+@++&$@++@+",
"..%.$+@+>#@+@+#*;++#+",
".....&@&@,+@@@@$+&*$+",
"%..%..&&#+=#@+@>@$@>@",
"........$#++##+###+@+",
"..%..%..=@+@+##@@@@*@",
".........;@#*+&+@@#$@",
".%.%..%...$$$$+#-##$#",
"........%..*$@@@+,@$#",
".....%...%..-@@*++&$@",
".%.%.........*@@+@#,=",
"......%..%..%.$#+*$#$",
"...%...........$#*##@",
"%...%...%..%....@=$#@",
"......%......%...#-##",
"..%.......%.......=#@",
"....%...%...%..%...=@",
".%.&.%..............="};
