/* XPM */
static char * numbers_xpm[] = {
"88 12 4 1",
" 	c None",
".	c #FFFFFF",
"+	c #000000",
"@	c #AAAAAA",
"........................................................................................",
"..++++.....++.....++++....++++...++..++..++++++...++++...++++++...++++....++++..........",
".++@@++...+++@...++@@++..++@@++..++@.++@.++@@@@@.++@@++..++@@++@.++@@++..++@@++.........",
".++@.++@...++@....@@.++@..@@.++@.++@.++@.++@.....++@..@@..@@.++@.++@.++@.++@.++@...++...",
".++@.++@...++@.......++@.....++@.++@.++@.++@.....++@........++@@.++@.++@.++@.++@...++@..",
".++@.++@...++@......++@@...+++@@.++++++@.+++++...+++++......++@...++++@@..+++++@....@@..",
".++@.++@...++@.....++@@.....@++...@@@++@..@@@++..++@.++....++@@..++@@++....@@++@........",
".++@.++@...++@....++@@.......++@.....++@.....++@.++@.++@...++@...++@.++@.....++@...++...",
".++@.++@...++@...++@@........++@.....++@.....++@.++@.++@...++@...++@.++@.....++@...++@..",
".++@.++@...++@...++@.....++..++@.....++@.++..++@.++@.++@...++@...++@.++@.++..++@....@@..",
"..++++@@.++++++..++++++...++++@@.....++@..++++@@..++++@@...++@....++++@@..++++@@........",
"...@@@@...@@@@@@..@@@@@@...@@@@.......@@...@@@@....@@@@.....@@.....@@@@....@@@@........."};
