/* XPM */
static char * optionson_xpm[] = {
"160 32 7 1",
" 	c None",
".	c #888888",
"+	c #BBBBBB",
"@	c #FFFFFF",
"#	c #000000",
"$	c #CCCCCC",
"%	c #999999",
"++++++++++++++++++++++++++++++++++++++++........................................++++++++++++++++++++++++++++++++++++++++........................................",
"+++++++++++++++@@+@@++++++++++++++++++++..............@@..@@....@@..............+++++@@@@++++++++++++++@@++++@@+++++++++...............@@@......................",
"+++++++++++++++@@#@@#+++++++++++++++++++.............@@@#.@@#...@@#.............++++@@####+++++++++++++@@#+++@@#++++++++..............@@#@@.....................",
"+++++++++++++++@@#@@#+@@@+++++++++++++++............@.@@#.@@#...@@#.............+++++@@+++@@+@++++@@@++@@#+++@@#++++++++..............@@#@@#@@@.................",
"+++++++++++++++@@#@@#@@#@@++++++++++++++...........@@#@@#.@@#...@@#.............++++++@@++@@@@@++@+@@#+@@#+++@@#++++++++..............@@#@@#@@#@................",
"++++$++$++$++++@@#@@#@@#@@#++$++$++$++++...........@@@@@#.@@#...@@#.............+++++++@@+@@@@@#@@#@@#+@@#+++@@#+++$++++..............@@#@@#@@#@@...............",
"++++++++++++++++@#@@#@@#@##+++++++++++++...........@@#@@#..@@....@@.............+++++++@@#@@#@@#@@#@@#++@@++++@@++++++++..............@@#@##@@#@@#..............",
"+++++++++++++++++@@##@@@+#++++++++++++++...........@@#@@#...@@....@@............+$++@@@@##@@#@@#+@@@@#+++@@++++@@+++++++...............@@.#.@@#@@#..............",
"++++++++++++++++++##+@@##+++++++++++++++............##.##....##....##...........+++++####++##+##++####++++##++++##++$+++................##...##.##..............",
"++$++++++++$+++++++++@@#++++++++++++$+++........................................++++++++++++++++++++++++++++++++++++++++........................................",
"++++++++$+++++++++++++##+++$+++++$++++++........................................++++++++++++++++++++++++++++++++++++++++........................................",
"++++$++++@@@+$+++++++++++++++$++++++++++.....@@@@..........@@...@@......@@......++++++++@+++@++++++++++@@++++$++++++++++............@@@.....@@....@@............",
"+++++++++@@#@+++++++++++$+++++++++++++++.....@@#@@..........##..@@#.....@@#.....++++++++@@+@@#++++$++++@@#+++++++++$++++...........@@#@@...@@##..@@##...........",
"+++++++++@@#@@++@@@++@@+@@+@@@++++++$+++.....@@@@##@@.@@...@@...@@#....@@@#.....$++$++++@@@@@#++@@++++@@@#+++++$++++++++...........@@#@@#.@@##..@@##............",
"+++++++++@@#@@#@@#@@+@@#@@#@@#@+++++++++.....@@#@@.@@#@@#..@@#..@@#...@.@@#.....++++++++@@#@@#+@+@@++@+@@#++++++++++++++...........@@#@@#.@@@...@@@.............",
"+++++++++@@#@@#@@#@@#@@@@@#@@#@@++++++++.....@@#@@#@@#@@#..@@#..@@#..@@#@@#.....++++++++@@#@@#@@#@##@@#@@#$+++++++++$+++...........@@#@@#.@@##..@@##............",
"++$++++++@@#@@#@@#@##@@#@@#@@#@@#+++++++.....@@#@@#.@#@@#..@@#...@@..@@#@@#.....++++++++@@#@@#@@@+#+@@#@@#++@@++++++++++...........@@#@##.@@#...@@#.............",
"++++$++++@@@@##+@@+#+@##@##@@#@@#$++++++.....@@@@##..@@@#..@@#....@@..@@@##.....+++$++++@@#@@#+@@@@++@@@##++@@#+++++++++............@@.#..@@#...@@#.............",
"++++++++++####+++##+++#++#++##+##++++$++......####....###...##.....##..###......+++++++++##+##++####++###++++##+$+++++++.............##....##....##.............",
"++++++++++++++++++++++++++++++++++++++++........................................++++++++++++++++++++++++++++++++++++$+++........................................",
"++++++++++++++++++++++++++++++++++++++++........................................++++$+++++++++++++++++++++++++++++++++++........................................",
"++++++$+++++++++++++++++++++++++++++++++........@@@.............................++++@@++++++++++++++++++++++++++++++++++........................................",
"++++$+++++++++++$++++++++++++++$++++++++........@@#@............................++++@@#+++++++++++++++$++$++++++$+++++++........................................",
"++++++++++++$+++++++$++$+++$+++++++$++++........@@#@@..@@@..@@@.....@@.........%++++@@#$++++@@@+$++@@+++@@@$++@@++++++++........................................",
"+++++++++$++++++++++++++++++++++++++++++........@@#@@#@@#@@.@@#@...@.@@.........++++@@#+++$@+@@#++@@##+@+@@#+@+@@++$++++........................................",
"++++++++++++++++++++++++++++++++++++$+++........@@#@@#@@#@@#@@#@@.@@#@##........++++@@#+++@@#@@#+@@##+@@#@@#@@#@##++++++........................................",
"++++++$+++++++++$++++++++++++$++++++++++........@@#@@#@@#@##@@#@@#@@@.#.........++++@@#+++@@#@@#+@@#++@@#@@#@@@+#+++++++........................................",
"$+++++++++++++++++++++++$+++++$+++++++++........@@#@@#.@@.#.@@#@@#.@@@@.........+++++@@@@++@@@@#+@@#+++@@@@#+@@@@+++$+++........................................",
"+++++++++++$+++++++$++++++++++++++++++++.........##.##..##...##.##..####........++++++####++####++##++++#@@#++####++++++........................................",
"++$+++++++++++++++++++++++++++++$+++++++.......................................%+++++++++++++++++++++++@@@##++++++++++++........................................",
"+++++++++++++++$+++++++++++++++++++$++++........................................++++++++++++++++++++++++###+++++++++++++........................................",
"++++++++$+++++++++++++$+++++++++++++++++........................................+$++++++++++++++++++++++++++++++++++$+++........................................"};
