/* XPM */
static char * options_xpm[] = {
"160 68 17 1",
" 	c None",
".	c #BBBBBB",
"+	c #888888",
"@	c #999999",
"#	c #AAAAAA",
"$	c #444444",
"%	c #000000",
"&	c #333333",
"*	c #777777",
"=	c #111111",
"-	c #222222",
";	c #555555",
">	c #666666",
",	c #EEEEEE",
"'	c #FFFFFF",
")	c #CCCCCC",
"!	c #DDDDDD",
"........................................++++++++++++++++++++++++++++++++++++++++........................................++++++++++++++++++@@@@++++++++++++++++++",
"........................................++++++++++++++++++++++++++++++++++++++++................#+......................+++++++++++++++++#@+++++++++++++++++++++",
".................$%%%%&.................++++++++++++++++++++++++++++++++++++++++............##*=-$......................++++++++++++++++@+;$$$>+++++++++++++++++",
".................%%%%=-.................++++++++++++++@@##.,,''',)#+++++++++++++...........@>&%%%&......................++++++++++++++*+*$---&&>++++++++++++++++",
"...............)...%%...................+++++++++++@..!,'','',''','.++++++++++++..........+$-%%%%;......................+++++++++++++***$$&----$>+++++++++++++++",
".)...)..)..).......%%.....)..)..)..)....+++++++++++#,,'',''','','','.+++++++++++...)..)..+$%%%%%%*.)...)..)..)..)..)....+++++++++++++*>;&&$-&---;+++++++++++++++",
"................#;$=%-&>#...............++++++++++++@,,'',''','',''',+++++++++++........#;%%%%%%%@......................+++++++++++++*>$&&--&--&&>++++++++++++++",
"...............;%->#)@>=%;..............+++++++++++++.'%%%%%%%%%%%%,,+++++++++++........>-%%%%%%%.......................+++++++++++++>>&&$---&---$++++++++++++++",
".............#$%*!!.))..>%&#.........)..++++++++++++++'%%'',''''*'),,+++++++++++.......+&%%%%%%%-.......................++++++++++++*>$$&&$&---&-$*+++++++++++++",
".............&=#!!.);..##+-$............++++++++++++++,'%*%%%%%%'.%),++++++++++@......@$%%%%%%%%&...................)...++++++++++++*>$&;$;;-&----;+++++++++++++",
"..)...)...).;%#!)).;%.####*%;.)...).....++++++++++++++''%'''','-',%.)+++++++++++...)..+-%----%%%-;*@.).....).....)......++++++++++**>*$$$>*>&--&--$+++++++++++++",
"...........#%*)!)));%####@@;%#..........++++++++++++++,'%,%==-%&=+-.!+++++++++++......+-%$;>@$>#&$$-%-&>>+#..)..........+++++++++**;;>;$$>*+;&---&&*++++++++++++",
"...........;-!!..).$%##@+>@+=;..........+++++++++++++#''%,@@@,%@@#+*!+++++++++++......>-%;*+@#.)@.!;+#-&$=%--$>+#.......+++++++++>;$;>>>;>*@*&-&---*++++++++++++",
"...........$>))))..$%#+-%%++$$..........+++++++++++++)!,%,@+;!***@*>)+++++++++++......;%%>+@#..!)!)!..>+#$@#-$$-+...)...+++++++++>;&&>*>$>*@@;--&-&>@+++++++++++",
".....).....-#).)..#$%=%%$++*;-......)...+++++++++++++!,)%)-=+=-=)--#.+++++++++++.....#;%%-&;*#)!)!!)..+@##..+##=#.......+++++++++>&-&;+*$$>+@$----->++++++++++++",
"...........%).)..##&%%$@++**>%.)........++++++++++++@.!%))%*.%.))%@)#+++++++++++)....#;%%%%%%%=&;*@#.#@@#....#@%........+++++++++>$-=;*+;$$**$&$-&->++++++++++++",
"...........=@)..###@>@@++***;-..........++++++++++++#).%.*%*.%=%;%#.*+++++++++++......*-%%%%%%%$>;&-%=&$>@...#*-........+++++++++*$-=&*@+$$;>>$&&$&>++++++++++++",
".)....)....&>..####@@@++**+>&&..........++++++++++++#..%.*%.#%-.>%#.++++++++++++......+&%%%%%%%>.....@*;&-%-&$&$........++++++++++;&&-;@#+>>>;;$$&$>++++++++++++",
"...........>=.##@#@@@++***>>-;.....)....++++++++++++#..%.%%%.%-)>%#.++++++++++++.......;-%%%%%%+...........#+>$*.)...)..++++++++++*>$-;*#).#+>;$;$$>++++++++++++",
"...........#%>###@@@++*+*>>&%#..........++++++++++++#)..%)+#+)%-##%#++++++++++++..)....>%%%%%%%#............)...........++++++++++++*$&;@)!)#*>;$$>*++++++++++++",
"............;%+#@+@++***>*$%;..)........++++++++++++.!))%!#%#!%*>>>.++++++++++++.......#&%%%%%%......)..................+++++++++++++>&&*..).@*>;$>+++++++++++++",
".)....)......&=*@@++***>>$%$........)...++++++++++++.,)!%&&%&&%&&$;&++++++++++++........*-%%%%-.........................+++++++++++++*$-$@..).@*;;*+++++++++++++",
".............#&%;++***>*&%&#............++++++++++++.,!,,,,'''''''''#+++++++++++....)...#>&%%%&..)..............).......++++++++++++++>$&>#.).@>>>++++++++++++++",
"...............;%=$>>>&-%;..............++++++++++++@!',',')!),,',',#+++++++++++.........#*&%%>...................).....++++++++++++++*>;&>@##+>>+++++++++++++++",
"................#;&-%=&;#......)........+++++++++++++#,,!..@+@##..).@+++++++++++...........@;=*.....)....)..)...........++++++++++++++++>;$;>****+++++++++++++++",
"...).....).......................)......++++++++++++++@#@+++++++++++++++++++++++)...........#>#.....................)...++++++++++++++++++>;$;>>*+++++++++++++++",
"...........................)............++++++++++++++++++++++++++++++++++++++++....)...................................+++++++++++++++++++**>**++++++++++++++++",
"......%%%%%)..%%...................)....++++++++++++%+++%+++++++++++++++++++++++......)..%%%%...%%..)...................+++++++%%%%++++++++++++++++++++++%%+++++",
"....)...%%.........)....)...............++++++++++++%%+%%+++++++++++++++++++++++........%%...)..................).....).++++++%%+++++++++++++++++++++++++%%+++++",
"........%%..).%%..%%.%....%%.....%%.....++++++++++++%%%%%+++%%%++%%%++++++++++++.........%%.....%%..%%=%%..)%%..........+++++++%%++++%%%++%%+%%+%%%+++++%%%+++++",
"........%%....%%..%%%%%..%.%%..)%%......++++++++++++%%+%%++%+%%+%%+%%+++++++++++.........)%%....%%....%%...%.%%....)....++++++++%%++%%+%%+%%+%%+%%+%+++%+%%+++++",
").......%%....%%..%%%%%.%%.%...%%..)....++++++++++++%%+%%+%%+%%+%%+%%+++++++++++..)........%%.).%%...%%...%%.%..........+++++++++%%+%%+%%+%%+%%+%%+%%+%%+%%+++++",
"....)...%%....%%..%%.%%.%%%.)..%%.......++++++++++++%%+%%+%%+%%+%%+%++++++++++++......)....%%...%%..%%....%%%..)........+++++++++%%+%%+%+++%+%%+%%+%%+%%+%%+++++",
"........%%..).%%..%%.%%..%%%%..%%.......++++++++++++%%+%%++%%%%+%%%+++++++++++++........%%%%....%%..%%%%%..%%%%.........++++++%%%%+++%%+++++%%%+%%+%%++%%%++++++",
"................).......)...............++++++++++++++++++++++++%%++++++++++++++.......................).............)..++++++++++++++++++++++++++++++++++++++++",
".....)%%%%%%%%%%%%%%%%%%%%%%%%%%%%%)....++++++++++++%%%%%%%%%%%+%%+%%+++++++++++........%%%%%%%%%%%%%%%%%%%%%%%.........++++++%%%%%%%%%%%%%%%%%%%%%%%%%%%%%+++++",
"..................).....................++++++++++++++++++++++++++++++++++++++++.).....)...)..)...........).....).......++++++++++++++++++++++++++++++++++++++++",
")........).........)...........)........++++++++++++++++++++++++++++++++++++++++........................................++++++++++++++++++++++++++++++++++++++++",
".......)........%%.%%...)..)............+++++++++++++++%%++%%++++%%+++++++++++++......%%%%............).%%...)%%....)...++++++++++++++++%%%+++++++++++++++++++++",
"..).........)...%%.%%...................++++++++++++++%%%++%%++++%%+++++++++++++..)..%%........)........%%....%%........+++++++++++++++%%+%%++++++++++++++++++++",
"................%%.%%..%%%......)...)...+++++++++++++%+%%++%%++++%%+++++++++++++......%%...%%.%...)%%%..%%....%%........+++++++++++++++%%+%%+%%%++++++++++++++++",
"................%%.%%.%%.%%.............++++++++++++%%+%%++%%++++%%+++++++++++++.......=%..%%%%%..%.%%..%%....%%)....)..+++++++++++++++%%+%%+%%+%+++++++++++++++",
"........)....)..%%.%%.%%.%%.)...........++++++++++++%%%%%++%%++++%%+++++++++++++........%%.%%%%%.%%.%%..%%....%%........+++++++++++++++%%+%%+%%+%%++++++++++++++",
"..)..............%.%%.%%.%..............++++++++++++%%+%%+++%%++++%%++++++++++++..).....%%.%%.%%.%%.%%)..%%....%%.......+++++++++++++++%%+%++%%+%%++++++++++++++",
"..................%%..%%%...............++++++++++++%%+%%++++%%++++%%+++++++++++.....%%%%..%%.%%..%%%%....=%....%%......++++++++++++++++%%+++%%+%%++++++++++++++",
"...).............)....%%......)...).....++++++++++++++++++++++++++++++++++++++++.................................)......++++++++++++++++++++++++++++++++++++++++",
".......)....).......).%%................++++++++++++++++++++++++++++++++++++++++.......)............................)...++++++++++++++++++++++++++++++++++++++++",
".........................).........)....++++++++++++++++++++++++++++++++++++++++..).........)...)..........).........)..++++++++++++++++++++++++++++++++++++++++",
"..........%%%..........)................++++++%%%%++++++++++%%+++%%++++++%%+++++.........=...%......)...%%..............+++++++++++++%%%+++++%%++++%%+++++++++++",
".......)..%%.=..............)...........++++++%%+%%++++++++++++++%%++++++%%+++++...).....%%.%%.......)..%%....).........++++++++++++%%+%%+++%%++++%%++++++++++++",
"...)......%%.%%..%%%..%%.%%.%%%.........++++++%%%%++%%+%%+++%%+++%%+++++%%%+++++.........%%%%%...=%....%%%..............++++++++++++%%+%%++%%++++%%+++++++++++++",
"..........%%.%%.%%.%%.%%.%%.%%)%........++++++%%+%%+%%+%%+++%%+++%%++++%+%%+++++.........%%.%%..%.%%..%.%%..............++++++++++++%%+%%++%%%+++%%%++++++++++++",
"..........%%.%%.%%.%%.%%%%%.%%.%%.).....++++++%%+%%+%%+%%+++%%+++%%+++%%+%%+++++.....)...%%.%%.%%.%..%%.%%....)....)....++++++++++++%%+%%++%%++++%%+++++++++++++",
"..........%%.%%.%=.%..%%.%%.%%.%%.......++++++%%+%%++%+%%+++%%++++%%++%%+%%+++++.........%%.%%.%%%...%%.%%)..%%......)..++++++++++++%%+%+++%%++++%%+++++++++++++",
"....).....%%%%...%%...%..%..%%.%%.......++++++%%%%++++%%%+++%%+++++%%++%%%++++++.........%%.%%..%%%%..%%%....%%.........+++++++++++++%%++++%%++++%%+++++++++++++",
"........)..........................)....++++++++++++++++++++++++++++++++++++++++).....)...).............................++++++++++++++++++++++++++++++++++++++++",
"............).........).................++++++++++++++++++++++++++++++++++++++++...................)..........).........++++++++++++++++++++++++++++++++++++++++",
")................)........)...).........++++++++++++++++++++++++++++++++++++++++..............)........)................++++++++++++++++++++++++++++++++++++++++",
"...)................................)...+++++++++%%%++++++++++++++++++++++++++++..)..%%....................)......)..)..++++++++++++++++++++++++++++++++++++++++",
".....)............).....................+++++++++%%+%+++++++++++++++++++++++++++.....%%...).............................++++++++++++++++++++++++++++++++++++++++",
"........)...).........).................+++++++++%%+%%++%%%++%%%+++++%%+++++++++.....%%).....%%%.)..%%..)%%%...=%.......++++++++++++++++++++++++++++++++++++++++",
"..........................).....).......+++++++++%%+%%+%%+%%+%%+%+++%+%%++++++++.....%%.....%.%%...%%...%.%%..%.%%......++++++++++++++++++++++++++++++++++++++++",
"..............................).....)...+++++++++%%+%%+%%+%%+%%+%%+%%+%+++++++++.....%%....%%.%%..%%...%%.%%.%%.%.......++++++++++++++++++++++++++++++++++++++++",
"...............)........................+++++++++%%+%%+%%+%++%%+%%+%%%++++++++++..)..%%....%%.%%..%%...%%.%%.%%%....)...++++++++++++++++++++++++++++++++++++++++",
"..)....)....).......)......)............+++++++++%%+%%++%%+++%%+%%++%%%%++++++++......%%%%..=%%%..%=....%%%%..%%%%......++++++++++++++++++++++++++++++++++++++++",
"......................).................++++++++++++++++++++++++++++++++++++++++..........................%%............++++++++++++++++++++++++++++++++++++++++",
".................).................)....++++++++++++++++++++++++++++++++++++++++......)........)........%%%.....).......++++++++++++++++++++++++++++++++++++++++",
"...)...)............................)...++++++++++++++++++++++++++++++++++++++++.......................).............)..++++++++++++++++++++++++++++++++++++++++"};
