/* XPM */
static char * soundon_xpm[] = {
"40 12 4 1",
" 	c None",
".	c #EEEEEE",
"+	c #000000",
"@	c #CCCCCC",
".......................................+",
".@@@@@@@@@@@@@@@@@@@@@@@@@@@@@@@@@@@@@@+",
".@@@@@@@++++@@@@@@@@@@@@@@@@@@@@+@@@@@@+",
".@@@@@@+@@@@@@@@@@@@@@@@@@@@@@@@+@@@@@@+",
".@@@@@@+@@@@@@@@@@@@@@@@@@@@@@@@+@@@@@@+",
".@@@@@@@++++@@@++@@+@@+@+++@@@+++@@@@@@+",
".@@@@@@@@@@@+@+@@+@+@@+@+@@+@+@@+@@@@@@+",
".@@@@@@@@@@@+@+@@+@+@@+@+@@+@+@@+@@@@@@+",
".@@@@@@@@@@@+@+@@+@+@@+@+@@+@+@@+@@@@@@+",
".@@@@@@@++++@@@++@@@+++@+@@+@@+++@@@@@@+",
".@@@@@@@@@@@@@@@@@@@@@@@@@@@@@@@@@@@@@@+",
".+++++++++++++++++++++++++++++++++++++++"};
