/* XPM */
static char * soundoff_xpm[] = {
"40 12 5 1",
" 	c None",
".	c #EEEEEE",
"+	c #FFFFFF",
"@	c #CCCCCC",
"#	c #000000",
"......................................++",
".@@@@@@@@@@@@@@@@@@@@@@@@@@@@@@@@#####@+",
".@@@@@@@####@@@@@@@@@@@@@@@@@####@@@@..#",
".@@@@@@#@@@@@@@@@@@@@@@@#####@@@@....@@#",
".@@@@@@#@@@@@@@@@@@@####@@@@.....@@@@@@#",
".@@@@@@@####@@@#####@@@@....@@###@@@@@@#",
".@@@@@@@@@@####@@@@.....#@@#@#@@#@@@@@@#",
".@@@@@#####@@@@....#@@#@#@@#@#@@#@@@@@@#",
".#####@@@@@....@@#@#@@#@#@@#@#@@#@@@@@@#",
".#@@@@.....#@@@##@@@###@#@@#@@###@@@@@@#",
"+@....@@@@@@@@@@@@@@@@@@@@@@@@@@@@@@@@@#",
"++######################################"};
