/* XPM */
static char * timeup_xpm[] = {
"80 24 13 1",
" 	c None",
".	c #FFFFFF",
"+	c #000000",
"@	c #AAAAAA",
"#	c #555555",
"$	c #CCCCCC",
"%	c #DDDDDD",
"&	c #222222",
"*	c #777777",
"=	c #333333",
"-	c #888888",
";	c #EEEEEE",
">	c #666666",
"................................................................................",
".++++++++++++++++++++++++++++++++++++++++++++++++++++++++++++++++++++++++++++++.",
".+............................................................................+.",
".+.++++++++++++++++++++++++++++++++++++++++++++++++++++++++++++++++++++++++++.+.",
".+.+........................................................................+.+.",
".+.+........@@@@@@%@$...........................$@%..$@%..........%@$.......+.+.",
".+.+........++++++@+#...........................#+@..#+@..........@+#.......+.+.",
".+.+........@@++@@%@$...........................#+@..#+@..........@+#.......+.+.",
".+.+..........++..$#-.#*=++*$=++*...$=++*%......#+@..#+@.#-*++=@..@+#.......+.+.",
".+.+..........++..@+#.+++#&+++#++*.@++#=+&......#+@..#+@.+++=#++@.@+#.......+.+.",
".+.+..........++..@+#.++-.%++$.@++.&+;..-+-.....#+@..#+@.++-..@++.@+#.......+.+.",
".+.+..........++..@+#.++...++...++$+&####+#.....#+@..#+@.++....=+@@+#.......+.+.",
".+.+..........++..@+#.++...++...++@+++++++#.....#+@..#+@.++....#+@@+#.......+.+.",
".+.+..........++..@+#.++...++...++.+&%..$@$.....*+-..&+$.++@..%++;%@$.......+.+.",
".+.+..........++..@+#.++...++...++.*+&*>++$.....$++*=+&..+++#*&+>.$#-.......+.+.",
".+.+..........++..@+#.++...++...++..-&++&@.......@&++=%..++#+++*..@+#.......+.+.",
".+.+..................................%%...........;.....++..$..............+.+.",
".+.+.....................................................++.................+.+.",
".+.+.....................................................##.................+.+.",
".+.+........................................................................+.+.",
".+.++++++++++++++++++++++++++++++++++++++++++++++++++++++++++++++++++++++++++.+.",
".+............................................................................+.",
".++++++++++++++++++++++++++++++++++++++++++++++++++++++++++++++++++++++++++++++.",
"................................................................................"};
