/* XPM */
static char * youwin_xpm[] = {
"80 24 17 1",
" 	c None",
".	c #000000",
"+	c #FFFFFF",
"@	c #AAAAAA",
"#	c #EEEEEE",
"$	c #666666",
"%	c #CCCCCC",
"&	c #555555",
"*	c #DDDDDD",
"=	c #777777",
"-	c #BBBBBB",
";	c #888888",
">	c #999999",
",	c #333333",
"'	c #444444",
")	c #222222",
"!	c #111111",
"++++++++++++++++++++++++++++++++++++++++++++++++++++++++++++++++++++++++++++++++",
"+..............................................................................+",
"+.++++++++++++++++++++++++++++++++++++++++++++++++++++++++++++++++++++++++++++.+",
"+.+..........................................................................+.+",
"+.+.+++++#+######*#*****%*%%%%%-------@@@@@@@>@>>>>>;>;;;;;=;=====$=$$$$$$&$.+.+",
"+.+.++++#+######*#*****%*%%%%-%%%----@--@@@>@@>>>>>>>;;;;;;=;====$=$$$$$$&$&.+.+",
"+.+.++++++#@>%##*%>@***%*%%%%%-------@@@@==@>@;$>>;=$=$&=;=;======&'$$$$&$&&.+.+",
"+.+.+++#+#+$.;#*#,.>**%*%%%%-%%%--------@,.=@>'.>>>,.=,.=;;=;===$=).$=$$$&$&.+.+",
"+.+.+++++##*.)##@.,+#**%*%%%%--%---@-@@@@=.=-@).;@>!.+;>*@;=;=====).@>$&$&$&.+.+",
"+.+.+++#++##$.;#,.%#*-$..,@%%$'>--$';@-@@>.,*>..&-;.&+&,;=)').!'=$).@>$$&$&&.+.+",
"+.+.++++####*.)-.,+*-!.,&..;%'.>%-'.>%@@@@).#$...*$.;*).;$..!'..;=).@>$$&$&&.+.+",
"+.+.+++#++###$...%+*$.&+#>.)*'.@*-,.@%-@@@$.@'.@.-,.#-,.@=.)##=.&;).@>$&$&$&.+.+",
"+.+.++++#####%..,+#*..*#*%,.@'.@%-'.@%@@@@=.=,,*.@!!+>,.@=.&#;&.&%).@>$$&&&&.+.+",
"+.+.+#+#++####&.@#**..+*%%'.@'.@*-,.@%@@@@@!,.$#!'.$#;,.@=.&%='.&%).@>$&$$&&.+.+",
"+.+.+++#######'.@#**,.;%%-..#'.;%-).@%@@@@@,..@%,..%%;).@$.&%=&.&%&;*>$&&&&&.+.+",
"+.+.+++++#####&.@#**@..'$!.$+;.)$,..@%@@@>@$..+-$..+@;,.@=.&%=&.&%')=$$$$$&&.+.+",
"+.+.+#+##+##*#'.@#***@'...;+*-$...&.@%@@@@@>.,+>;.&+;;,.@=.&%=&.&%).;;&&&&&&.+.+",
"+.+.++#+########+**%*%*##++*%--*%++#+%@@@>@>@+*>>>+*;;;%+@@+%==>+%$%+>$$&$&&.+.+",
"+.+.++#+####**#******%*%%%%%-%-----@@@@@@@>>>>>>>;;;;;;;======$=$=$$$$&$&&&&.+.+",
"+.+.+++#######*#****%*%%%%%-%------@-@@@@@@>@>>>;>>;;;=;;;======$$$$$&$&$&&&.+.+",
"+.+..........................................................................+.+",
"+.++++++++++++++++++++++++++++++++++++++++++++++++++++++++++++++++++++++++++++.+",
"+..............................................................................+",
"++++++++++++++++++++++++++++++++++++++++++++++++++++++++++++++++++++++++++++++++"};
