/* XPM */
static char * pdamaze_xpm[] = {
"30 30 17 1",
" 	c None",
".	c #FFFFFF",
"+	c #000000",
"@	c #7F7F7F",
"#	c #C4C4C4",
"$	c #888888",
"%	c #919191",
"&	c #9A9A9A",
"*	c #A3A3A3",
"=	c #ACACAC",
"-	c #B5B5B5",
";	c #BFBFBF",
">	c #C8C8C8",
",	c #D1D1D1",
"'	c #DADADA",
")	c #E3E3E3",
"!	c #ECECEC",
"..............................",
".+.........................+..",
".++.......................++..",
".+@+.....................+#+..",
".+@@+...................+##+..",
".+@@@+.................+###+..",
".+@@@@+...............+####+..",
".+@@@@+..............+#####+..",
".+@@@@+.............+######+..",
".+@@@@+............+#######+..",
".+@@@@+++++.......+########+..",
".+@@@@+###++......+########+..",
".+@@@@+###+@+.....+########+..",
".+@@@@+###+@@+....+########+..",
".+@@@@+###+@@@+++++########+..",
".+@@@@+###+@@+@@@@+########+..",
".+@@@@+###+@+$$$$$+########+..",
".+@@@@+###++%%%%%%+########+..",
".+@@@@+++++&&&&&&&+########+..",
".+@@@@+************+#######+..",
".+@@@@+=============+######+..",
".+@@@@+--------------+#####+..",
".+@@@@+;;;;;;;;;;;;;;;+####+..",
".+@@@+>>>>>>>>>>>>>>>>>+###+..",
".+@@+,,,,,,,,,,,,,,,,,,,+##+..",
".+@+'''''''''''''''''''''+#+..",
".++)))))))))))))))))))))))++..",
".+!!!!!!!!!!!!!!!!!!!!!!!!!+..",
"..............................",
".............................."};
